<?xml version="1.0" encoding="utf-8"?>
<!-- Generator: Adobe Illustrator 16.0.0, SVG Export Plug-In . SVG Version: 6.00 Build 0)  -->
<!DOCTYPE svg PUBLIC "-//W3C//DTD SVG 1.1//EN" "http://www.w3.org/Graphics/SVG/1.1/DTD/svg11.dtd">
<svg version="1.1" id="Calque_1" xmlns="http://www.w3.org/2000/svg" xmlns:xlink="http://www.w3.org/1999/xlink" x="0px" y="0px"
	 width="1920px" height="1080px" viewBox="0 0 1920 1080" enable-background="new 0 0 1920 1080" xml:space="preserve">
<rect x="-28.782" y="-24.737" fill="#F2EFE9" width="2070.208" height="1179.118"/>
<rect x="-54.782" y="-24.737" display="none" fill="#141414" width="2070.208" height="1179.118"/>
<g id="hors-piste">
	<polygon fill="#F2EFE9" points="1077.998,167.053 874.002,167.053 874.002,587.688 1077.998,587.617 	"/>
	<polygon fill="#F2EFE9" points="1180.079,152.054 1125.989,152.054 1125.989,596.658 1180.079,596.584 	"/>
	<polygon fill="#F2EFE9" points="1285.074,307.881 1179.986,307.881 1179.986,592.162 1285.074,592.114 	"/>
	<polygon fill="#F2EFE9" points="1513.062,408.376 1287.981,408.376 1287.981,592.137 1513.062,592.105 	"/>
	<polygon fill="#F2EFE9" points="809.221,147.776 471.5,147.776 471.5,347.569 471.5,352.781 471.5,476.858 809.221,476.995 	"/>
	<polygon fill="#F2EFE9" points="401.5,379 258,379 258,439.383 258,440.958 258,478.458 401.5,478.5 	"/>
	<polygon fill="#F2EFE9" points="798.5,551 356.5,551 356.5,692.154 356.5,695.836 356.5,783.499 798.5,783.596 	"/>
	<polygon fill="#F2EFE9" points="1076.5,649 799.5,649 799.5,730.017 799.5,732.129 799.5,782.444 1076.5,782.5 	"/>
	<rect y="143" fill="#F2EFE9" width="400" height="185"/>
	<rect x="1783.946" y="414" fill="#F2EFE9" width="136.055" height="372"/>
	<polygon fill="#F2EFE9" points="259,378 -41,378 -41,716 256.085,716 258.001,511.915 258.094,511.916 258.098,491.781 259,491.83 
			"/>
	<polygon fill="#F2EFE9" points="1297.347,656.082 1135.654,656.139 1135.654,797 1297.347,797 	"/>
	<rect x="1158.654" y="868" fill="#F2EFE9" width="537.692" height="212"/>
	<rect x="1360.654" y="652" fill="#F2EFE9" width="353.847" height="138.5"/>
	<rect x="1586.654" y="396" fill="#F2EFE9" width="123.847" height="258.5"/>
	<polygon fill="#F2EFE9" points="1710.799,165.506 1710.79,159.241 1710.733,159.241 1710.733,77 1356.069,77 1356.069,340 
		1870.933,340 1870.933,165.239 	"/>
	<rect x="1791.502" y="866" fill="#F2EFE9" width="114.996" height="180.5"/>
	<polygon fill="#F2EFE9" points="1911.876,116.553 1911.876,6 1776.123,6 1776.123,116.779 	"/>
	<polygon fill="#F2EFE9" points="430,83 435,83 1228,83 1228,88 1235,88 1235,95.229 1289,95.039 1289,0 0,0 0,83 	"/>
	<rect x="1340.937" fill="#F2EFE9" width="366.129" height="21"/>
	<rect x="1238.5" y="95.729" fill="#F2EFE9" width="48.5" height="146.271"/>
	<rect y="796.63" fill="#F2EFE9" width="289.125" height="283.37"/>
	<rect x="330.121" y="781.078" fill="#F2EFE9" width="738.964" height="298.922"/>
</g>
<g id="bg">
	<path fill="#B5D0D0" d="M0,851c0,0,314.5,0.5,400,0s245.104,55.061,254.104,280.063C663.104,1356.063,457,1101,457,1101
		s-42-109.333-282-134c-78.037-8.021-172-8-172-8L0,851z"/>
</g>
<g id="routes_1_">
	<polygon fill="#FFFFFF" points="316.914,736 319,501.833 299.098,501.781 297.085,736 	"/>
	<polygon fill="#FFFFFF" points="316.914,756 0,756 0,736 317.085,736 	"/>
	<rect x="304.063" y="501.813" fill="#FFFFFF" width="543.533" height="20"/>
	<rect y="348" fill="#FFFFFF" width="430" height="20"/>
	<rect x="420" y="353" fill="#FFFFFF" width="20" height="159"/>
	<rect x="420" y="113" fill="#FFFFFF" width="20" height="246"/>
	<rect x="-5" y="103" fill="#FFFFFF" width="440" height="20"/>
	<rect x="430" y="103" fill="#FFFFFF" width="788" height="20"/>
	<rect x="836" y="113" fill="#FFFFFF" width="20" height="522"/>
	<rect x="1205" y="108" fill="#FFFFFF" width="20" height="157"/>
	<rect x="1214" y="245" fill="#FFFFFF" width="100" height="20"/>
	<rect x="1299" fill="#FFFFFF" width="20" height="375"/>
	<rect x="1733" fill="#FFFFFF" width="20" height="156"/>
	<rect x="1309" y="33" fill="#FFFFFF" width="434" height="20"/>
	<rect x="1738" y="136" fill="#FFFFFF" width="183" height="20"/>
	<rect x="1307" y="360" fill="#FFFFFF" width="618" height="20"/>
	<rect x="1538" y="371" fill="#FFFFFF" width="20" height="264"/>
	<rect x="845" y="615" fill="#FFFFFF" width="704" height="20"/>
	<rect x="1093" y="109" fill="#FFFFFF" width="20" height="971"/>
	<rect x="297" y="746" fill="#FFFFFF" width="20" height="105"/>
	<rect x="1316" y="624" fill="#FFFFFF" width="20" height="203"/>
	<rect x="1103" y="812" fill="#FFFFFF" width="820" height="20"/>
	<rect x="1742" y="371" fill="#FFFFFF" width="20" height="712"/>
</g>
<g id="routes_-_copie" display="none">
	<polyline display="inline" fill="none" stroke="#FFFFFF" stroke-width="10" stroke-miterlimit="10" points="0,746 307,746 309,512 
			"/>
	
		<line display="inline" fill="none" stroke="#FFFFFF" stroke-width="10" stroke-miterlimit="10" x1="304.063" y1="511.625" x2="847.596" y2="512"/>
	
		<line display="inline" fill="none" stroke="#FFFFFF" stroke-width="10" stroke-miterlimit="10" x1="0" y1="358" x2="430" y2="358"/>
	
		<line display="inline" fill="none" stroke="#FFFFFF" stroke-width="10" stroke-miterlimit="10" x1="430" y1="353" x2="430" y2="512"/>
	
		<line display="inline" fill="none" stroke="#FFFFFF" stroke-width="10" stroke-miterlimit="10" x1="430" y1="359" x2="430" y2="113"/>
	
		<line display="inline" fill="none" stroke="#FFFFFF" stroke-width="10" stroke-miterlimit="10" x1="-5" y1="113" x2="435" y2="113"/>
	
		<line display="inline" fill="none" stroke="#FFFFFF" stroke-width="10" stroke-miterlimit="10" x1="430" y1="113" x2="1218" y2="113"/>
	
		<line display="inline" fill="none" stroke="#FFFFFF" stroke-width="10" stroke-miterlimit="10" x1="846" y1="113" x2="846" y2="630"/>
	
		<line display="inline" fill="none" stroke="#FFFFFF" stroke-width="10" stroke-miterlimit="10" x1="1215" y1="108" x2="1215" y2="260"/>
	
		<line display="inline" fill="none" stroke="#FFFFFF" stroke-width="10" stroke-miterlimit="10" x1="1214" y1="255" x2="1314" y2="255"/>
	
		<line display="inline" fill="none" stroke="#FFFFFF" stroke-width="10" stroke-miterlimit="10" x1="1309" y1="0" x2="1309" y2="375"/>
	
		<line display="inline" fill="none" stroke="#FFFFFF" stroke-width="10" stroke-miterlimit="10" x1="1743" y1="0" x2="1743" y2="149"/>
	
		<line display="inline" fill="none" stroke="#FFFFFF" stroke-width="10" stroke-miterlimit="10" x1="1309" y1="43" x2="1743" y2="43"/>
	
		<line display="inline" fill="none" stroke="#FFFFFF" stroke-width="10" stroke-miterlimit="10" x1="1738" y1="146" x2="1921" y2="146"/>
	
		<line display="inline" fill="none" stroke="#FFFFFF" stroke-width="10" stroke-miterlimit="10" x1="1307" y1="370" x2="1925" y2="370"/>
	
		<line display="inline" fill="none" stroke="#FFFFFF" stroke-width="10" stroke-miterlimit="10" x1="1548" y1="371" x2="1548" y2="630"/>
	
		<line display="inline" fill="none" stroke="#FFFFFF" stroke-width="10" stroke-miterlimit="10" x1="845" y1="625" x2="1549" y2="625"/>
	
		<line display="inline" fill="none" stroke="#FFFFFF" stroke-width="10" stroke-miterlimit="10" x1="1103" y1="109" x2="1103" y2="1080"/>
	
		<line display="inline" fill="none" stroke="#FFFFFF" stroke-width="10" stroke-miterlimit="10" x1="307" y1="746" x2="307" y2="851"/>
	
		<line display="inline" fill="none" stroke="#FBB03B" stroke-width="10" stroke-miterlimit="10" x1="307" y1="851" x2="307" y2="1013"/>
	
		<line display="inline" fill="none" stroke="#FFFFFF" stroke-width="10" stroke-miterlimit="10" x1="1326" y1="624" x2="1326" y2="827"/>
	
		<line display="inline" fill="none" stroke="#FFFFFF" stroke-width="10" stroke-miterlimit="10" x1="1103" y1="822" x2="1923" y2="822"/>
	
		<line display="inline" fill="none" stroke="#FFFFFF" stroke-width="10" stroke-miterlimit="10" x1="1752" y1="371" x2="1752" y2="1083"/>
</g>
<g id="deco">
	<polygon fill="#D9D0C9" stroke="#998675" points="161.698,242.127 189.228,246.503 172.912,297.711 176.474,299.115 
		168.294,330.11 168.347,330.222 144.058,328.879 140.665,328.73 140.417,328.729 141.946,297.17 150.737,299.011 157.264,270.05 
		155.821,269.686 	"/>
	<polygon fill="#D9D0C9" stroke="#998675" points="50.181,244.317 69.596,243.666 68.522,275.309 70.189,299.233 69.243,323.757 
		68.657,340.096 47.494,338.338 48.002,323.025 47.347,323.05 50.226,265.285 	"/>
	<polygon fill="#D9D0C9" stroke="#998675" points="109.942,242.528 129.685,242.042 124.272,327.025 124.171,327.817 
		122.362,342.22 104.947,341.149 105.979,319.718 	"/>
	<polygon fill="#D9D0C9" stroke="#998675" points="55.945,968.492 75.688,968.006 70.275,1052.988 70.174,1053.781 68.365,1068.184 
		50.949,1067.113 51.982,1045.682 	"/>
	<polygon fill="#D9D0C9" stroke="#998675" points="69.596,243.666 89.941,243.135 88.885,319.605 88.797,324.422 89.292,324.467 
		89.289,324.997 69.243,323.757 70.189,299.233 68.522,275.309 	"/>
	<polygon fill="#D9D0C9" stroke="#998675" points="215.474,257.53 245.136,271.864 231.164,317.328 208.833,312.684 
		213.659,297.086 203.878,291.928 	"/>
	<polygon fill="#D9D0C9" stroke="#998675" points="129.685,242.042 149.28,241.499 142.788,281.348 141.946,297.17 140.417,328.729 
		124.171,327.817 124.272,327.025 	"/>
	<polygon fill="#D9D0C9" stroke="#998675" points="255.531,277 270.039,283.96 259.551,314.306 271.621,317.102 269.582,339.361 
		269.481,341.53 240.025,342.827 239.724,338.031 245.496,313.467 243.027,312.645 	"/>
	<polygon fill="#D9D0C9" stroke="#998675" points="31.932,244.842 50.181,244.317 50.226,265.285 47.347,323.05 33.292,322.513 
		32.371,290.084 31.591,283.061 	"/>
	<polygon fill="#D9D0C9" stroke="#998675" points="200.597,250.266 215.474,257.53 203.878,291.928 190.255,332.292 
		172.788,330.542 191.494,280.313 	"/>
	<polygon fill="#D9D0C9" stroke="#998675" points="270.039,283.96 287.1,292.911 282.896,339.968 269.582,339.361 271.621,317.102 
		259.551,314.306 	"/>
	<polygon fill="#D9D0C9" stroke="#998675" points="245.136,271.864 255.531,277 243.027,312.645 245.496,313.467 239.724,338.031 
		240.025,342.827 223.274,342.229 231.164,317.328 	"/>
	<polygon fill="#D9D0C9" stroke="#998675" points="189.228,246.503 200.597,250.266 191.494,280.313 172.788,330.542 
		168.347,330.222 168.294,330.11 176.474,299.115 172.912,297.711 	"/>
	<polygon fill="#D9D0C9" stroke="#998675" points="794.14,400.44 816.152,440.041 734.287,470.529 736.065,476.493 688.217,497.117 
		688.125,497.296 665.484,464.88 662.271,460.392 662.024,460.075 703.926,430.378 710.387,443.469 753.978,422.772 
		752.993,420.561 	"/>
	<polygon fill="#D9D0C9" stroke="#998675" points="741.721,334.641 762.142,359.406 648.013,437.714 646.897,438.378 
		626.657,450.511 610.565,427.16 639.012,406.985 	"/>
	<polygon fill="#D9D0C9" stroke="#998675" points="762.142,359.406 782.49,383.925 725.008,415.587 703.926,430.378 
		662.024,460.075 646.897,438.378 648.013,437.714 	"/>
	<polygon fill="#D9D0C9" stroke="#998675" points="816.152,440.041 822.74,458.357 775.18,476.848 692.171,503.298 688.125,497.296 
		688.217,497.117 736.065,476.493 734.287,470.529 	"/>
	<polygon fill="#D9D0C9" stroke="#998675" points="343.112,170.811 365.431,187.511 327.132,225.215 329.629,228.117 
		307.948,251.73 307.942,251.854 287.078,239.346 284.145,237.634 283.927,237.518 299.986,210.307 306.906,216.032 
		326.177,193.449 325.07,192.455 	"/>
	<polyline fill="#D9D0C9" stroke="#998675" points="189.15,205.071 188.559,204.788 218.025,155.02 227.756,136.447 
		227.756,136.447 245.238,144.918 229.542,172.415 219.868,194.36 207.603,215.618 	"/>
	<polygon fill="#D9D0C9" stroke="#998675" points="297.133,147.046 314.824,155.817 270.436,228.486 269.977,229.139 
		261.665,241.041 246.756,231.977 257.655,213.496 	"/>
	<polygon fill="#D9D0C9" stroke="#998675" points="245.238,144.918 263.486,153.929 226.917,221.098 224.594,225.318 
		225.011,225.589 224.761,226.056 207.603,215.618 219.868,194.36 229.542,172.415 	"/>
	<polygon fill="#D9D0C9" stroke="#998675" points="403.408,269.674 391.336,300.326 344.952,289.793 347.912,267.178 
		363.827,270.824 368.24,260.684 	"/>
	<polygon fill="#D9D0C9" stroke="#998675" points="314.824,155.817 332.418,164.468 308.104,196.7 299.986,210.307 283.927,237.518 
		269.977,229.139 270.436,228.486 	"/>
	<polygon fill="#D9D0C9" stroke="#998675" points="386.99,311.076 381.136,326.063 350.092,317.875 348.203,330.12 325.857,329.752 
		323.687,329.813 320.19,300.537 324.948,299.878 349.876,303.796 350.513,301.271 	"/>
	<polygon fill="#D9D0C9" stroke="#998675" points="211.365,128.407 227.756,136.447 218.025,155.02 188.559,204.788 
		176.374,197.763 190.67,168.641 193.253,162.063 	"/>
	<polygon fill="#D9D0C9" stroke="#998675" points="373.736,196.138 383.515,209.498 357.225,234.529 326.362,263.894 
		311.723,254.207 351.68,218.481 	"/>
	<polygon fill="#D9D0C9" stroke="#998675" points="381.136,326.063 373.487,343.746 326.244,343.073 325.857,329.752 
		348.203,330.12 350.092,317.875 	"/>
	<polygon fill="#D9D0C9" stroke="#998675" points="391.336,300.326 386.99,311.076 350.513,301.271 349.876,303.796 
		324.948,299.878 320.19,300.537 319.531,283.788 344.952,289.793 	"/>
	<polygon fill="#D9D0C9" stroke="#998675" points="365.431,187.511 373.736,196.138 351.68,218.481 311.723,254.207 
		307.942,251.854 307.948,251.73 329.629,228.117 327.132,225.215 	"/>
	<polygon fill="#D9D0C9" stroke="#998675" stroke-miterlimit="10" points="681.044,177.752 691.58,176.464 702.004,153.58 
		762.6,148.198 764.864,173.796 758.844,174.398 759.567,182.602 765.647,181.933 766.31,189.832 764.473,232.2 719.447,229.816 
		706.37,229.05 691.115,228.298 686.263,228.808 	"/>
	<polygon fill="#D9D0C9" stroke="#998675" stroke-miterlimit="10" points="691.115,228.298 706.37,229.05 706.104,245.357 
		718.865,246.004 719.447,229.816 764.473,232.2 766.983,232.337 765.588,255.94 766.726,255.977 764.935,286.81 763.935,286.762 
		762.629,310.539 686.647,306.451 687.348,292.675 687.485,288.998 688.931,289.041 	"/>
	<polygon fill="#D9D0C9" stroke="#998675" stroke-miterlimit="10" points="484.006,147.995 486.007,148.023 486.108,148.795 
		526.769,148.161 526.733,163.434 526.699,169.423 520.573,169.567 520.771,193.164 533.128,193.368 533.062,221.545 
		520.562,221.774 520.49,245.953 526.901,246.164 527.025,248.174 538.397,248.22 538.565,264.011 527.08,264.183 527.183,266.939 
		486.58,266.729 486.513,267.543 483.933,267.534 	"/>
	<polygon fill="#D9D0C9" stroke="#998675" stroke-miterlimit="10" points="533.054,191.876 538.011,184.778 593.5,184.94 
		593.506,179.993 628.009,180.62 632.49,180.626 632.531,221.434 632.553,234.188 593.444,233.882 593.323,229.508 538.658,229.792 
		533.031,223.235 533.062,221.545 533.128,193.368 	"/>
	<polygon fill="#D9D0C9" stroke="#998675" stroke-miterlimit="10" points="627.74,155.802 678.488,155.883 681.044,177.752 
		686.263,228.808 645.867,233.076 645.521,221.08 632.531,221.434 632.49,180.626 628.009,180.62 	"/>
	<polygon fill="#D9D0C9" stroke="#998675" stroke-miterlimit="10" points="520.573,169.567 526.699,169.423 526.733,163.434 
		539.156,163.923 539.032,155.793 593.698,155.84 593.506,179.993 593.5,184.94 538.011,184.778 533.054,191.876 533.128,193.368 
		520.771,193.164 	"/>
	<polygon fill="#D9D0C9" stroke="#998675" stroke-miterlimit="10" points="593.444,233.882 632.553,234.188 634.926,284.188 
		617.728,284.922 597.669,285.916 597.535,284.517 595.815,284.588 	"/>
	<polygon fill="#D9D0C9" stroke="#998675" stroke-miterlimit="10" points="552.05,392.27 558.882,397.587 555.853,452.993 
		560.791,453.255 558.382,487.679 558.146,492.155 517.389,490.088 504.652,489.448 506.978,450.408 511.353,450.514 
		513.896,395.909 520.734,390.626 522.419,390.743 550.556,392.267 	"/>
	<polygon fill="#D9D0C9" stroke="#998675" stroke-miterlimit="10" points="506.978,450.408 504.652,489.448 454.595,489.233 
		454.751,472.02 454.795,451.938 456.198,451.879 456.217,450.155 	"/>
	<polygon fill="#D9D0C9" stroke="#998675" stroke-miterlimit="10" points="166.809,1065.671 161.34,1072.382 106.016,1068.113 
		105.643,1073.045 71.282,1069.865 66.812,1069.529 69.791,1028.829 70.716,1016.109 109.694,1019.309 109.49,1023.681 
		164.024,1027.445 169.153,1034.399 168.998,1036.082 166.844,1064.178 	"/>
	<polygon fill="#D9D0C9" stroke="#998675" stroke-miterlimit="10" points="109.694,1019.309 70.716,1016.109 72.051,966.07 
		89.257,966.611 109.332,967.104 109.36,968.508 111.083,968.565 	"/>
	<polygon fill="#D9D0C9" stroke="#998675" stroke-miterlimit="10" points="593.698,155.84 627.74,155.802 628.009,180.62 
		593.506,179.993 	"/>
	<polygon fill="#D9D0C9" stroke="#998675" stroke-miterlimit="10" points="678.488,155.883 702.004,153.58 691.58,176.464 
		681.044,177.752 	"/>
	<polygon fill="none" stroke="#998675" stroke-width="0.75" points="706.37,229.05 719.447,229.816 718.865,246.004 
		706.104,245.357 	"/>
	<polygon fill="#D9D0C9" stroke="#998675" stroke-miterlimit="10" points="552.256,533.441 606.453,546.229 587.444,617.493 
		566.515,612.13 573.45,581.666 543.211,574.518 	"/>
	<polygon fill="#D9D0C9" stroke="#998675" stroke-miterlimit="10" points="596.402,601.229 629.688,611.085 625.073,624.035 
		619.483,634.602 613.687,644.34 574.219,666.797 585.724,634.958 582.61,633.36 585.604,624.732 587.76,625.571 590.296,614.403 
		592.931,614.86 	"/>
	<polygon fill="#D9D0C9" stroke="#998675" stroke-miterlimit="10" points="566.515,612.13 587.444,617.493 585.604,624.732 
		582.61,633.36 585.724,634.958 574.219,666.797 554.5,665.008 	"/>
	<polygon fill="#D9D0C9" stroke="#998675" stroke-miterlimit="10" points="669.198,536.393 669.888,535.782 730.742,546.661 
		729.277,562.403 713.394,560.579 697.075,558.699 669.455,555.631 666.17,555.344 	"/>
	<polygon fill="#D9D0C9" stroke="#998675" stroke-miterlimit="10" points="603.136,574.146 634.986,581.216 629.688,611.085 
		596.402,601.229 	"/>
	<polygon fill="#D9D0C9" stroke="#998675" stroke-miterlimit="10" points="611.151,547.843 640.065,555.248 634.986,581.216 
		603.136,574.146 	"/>
	<polygon fill="#D9D0C9" stroke="#998675" stroke-miterlimit="10" points="965.153,1044.633 956.701,1031.973 969.781,987.444 
		975.396,961.254 976.387,952.491 976.993,923.896 1057.173,926.466 1053.741,960.188 1053.131,1036.131 1053.24,1045.146 	"/>
	<polygon fill="#D9D0C9" stroke="#998675" stroke-miterlimit="10" points="10.779,1024.145 6.701,1018.036 13.011,996.554 
		15.72,983.919 16.198,979.691 16.491,965.896 55.173,967.136 53.517,983.404 53.223,1020.042 53.276,1024.392 	"/>
	<polygon fill="#D9D0C9" stroke="#998675" stroke-miterlimit="10" points="53.656,1066.729 47.7,1071.026 26.002,1065.506 
		13.277,1063.261 9.034,1062.938 -4.763,1063.149 -4.938,1024.447 11.381,1025.508 48.004,1024.463 52.349,1024.251 	"/>
	<polygon fill="#D9D0C9" stroke="#998675" stroke-miterlimit="10" points="913.156,605.78 911.901,572.998 906.396,572.794 
		906.315,568.979 1005.56,568.598 1038.047,567.879 1033.198,608.017 972.652,606.921 914.608,605.909 	"/>
	<polygon fill="#D9D0C9" stroke="#998675" stroke-miterlimit="10" points="905.228,563.212 902.185,529.655 914.067,528.622 
		914.086,529.591 1039.459,519.912 1036.75,537.595 1009.408,536.048 1008.201,562.226 	"/>
	<polygon fill="#D9D0C9" stroke="#998675" stroke-miterlimit="10" points="973.068,742.387 971.308,711.571 969.073,711.479 
		968.932,710.186 1064.252,708.945 1064.362,754.357 1020.444,755.335 1019.719,741.738 	"/>
	<polygon fill="#D9D0C9" stroke="#998675" stroke-miterlimit="10" points="967.305,680.695 966.746,645.737 964.404,645.839 
		964.361,644.348 1060.767,641.313 1062.646,677.771 	"/>
	<polygon fill="#D9D0C9" stroke="#998675" stroke-miterlimit="10" points="975.503,815.278 975.325,780.446 1062.573,781.092 
		1062.781,778.4 1067.037,778.323 1064.242,821.426 1016.656,818.693 1016.78,816.81 	"/>
	<polygon fill="#D9D0C9" stroke="#998675" stroke-miterlimit="10" points="972.798,780.449 970.669,742.434 973.068,742.387 
		1019.719,741.738 1020.444,755.335 1064.362,754.357 1064.328,755.594 1062.781,778.4 1062.573,781.092 975.325,780.446 	"/>
	<polygon fill="#D9D0C9" stroke="#998675" stroke-miterlimit="10" points="968.932,710.186 967.305,680.695 1062.646,677.771 
		1064.285,708.244 1064.252,708.945 	"/>
	<polygon fill="#D9D0C9" stroke="#998675" stroke-miterlimit="10" points="976.923,898.665 976.151,866.093 1061.349,869.624 
		1059.94,899.399 	"/>
	<polygon fill="#D9D0C9" stroke="#998675" stroke-miterlimit="10" points="975.484,842.412 975.503,815.278 1016.78,816.81 
		1016.656,818.693 1064.242,821.426 1067.354,821.611 1064.303,846.116 1020.027,844.17 	"/>
	<polygon fill="#D9D0C9" stroke="#998675" stroke-miterlimit="10" points="976.993,923.896 976.923,898.665 1059.94,899.399 
		1057.173,926.466 	"/>
	<polygon fill="#D9D0C9" stroke="#998675" stroke-miterlimit="10" points="976.151,866.093 975.484,842.412 1020.027,844.17 
		1064.303,846.116 1061.349,869.624 	"/>
	<polygon fill="#F7EFB7" points="30.019,614.948 57.469,595.186 93.638,588.219 255.119,593.691 257.175,608.954 281.676,614.452 
		276.038,699.921 225.388,698.821 188.604,700.396 118.436,700.691 117.921,686.268 108.279,683.121 85.137,684.248 56.759,678.514 
		38.805,627.692 	"/>
	<path fill="#0092DA" d="M152.739,620.735v8.063h8.643l3.636-4.031l-3.636-4.027L152.739,620.735L152.739,620.735z M148.707,616.704
		v27.646h4.029v-11.52h9.792l6.913-8.063l-6.913-8.063H148.707L148.707,616.704z"/>
	<polygon fill="#C8FACC" points="1143.756,848.721 1229.841,848.87 1269.406,878.705 1340.302,1053.854 1338.243,1066.783 
		1111.213,1118.521 	"/>
	
		<text transform="matrix(0.9994 0.0352 -0.0352 0.9994 1186.0957 956.8398)" fill="#0C8416" font-family="'DejaVuSans-Oblique'" font-size="21.7259">Sq</text>
	
		<text transform="matrix(0.9994 0.0352 -0.0352 0.9994 1212.1406 957.7559)" fill="#0C8416" font-family="'DejaVuSans-Oblique'" font-size="21.7259">u</text>
	
		<text transform="matrix(0.9994 0.0352 -0.0352 0.9994 1225.1855 958.2158)" fill="#0C8416" font-family="'DejaVuSans-Oblique'" font-size="21.7259">a</text>
	
		<text transform="matrix(0.9994 0.0352 -0.0352 0.9994 1238.2109 958.6748)" fill="#0C8416" font-family="'DejaVuSans-Oblique'" font-size="21.7259">r</text>
	
		<text transform="matrix(0.9994 0.0352 -0.0352 0.9994 1246.8984 958.9824)" fill="#0C8416" font-family="'DejaVuSans-Oblique'" font-size="21.7259">e</text>
	
		<text transform="matrix(0.9994 0.0352 -0.0352 0.9994 1161.2949 982.0547)" fill="#0C8416" font-family="'DejaVuSans-Oblique'" font-size="21.7259">d</text>
	
		<text transform="matrix(0.9994 0.0352 -0.0352 0.9994 1174.3184 982.5127)" fill="#0C8416" font-family="'DejaVuSans-Oblique'" font-size="21.7259">u</text>
	
		<text transform="matrix(0.9994 0.0352 -0.0352 0.9994 1187.3418 982.9707)" fill="#0C8416" font-family="'DejaVuSans-Oblique'" font-size="21.7259"> </text>
	
		<text transform="matrix(0.9994 0.0352 -0.0352 0.9994 1193.873 983.2021)" fill="#0C8416" font-family="'DejaVuSans-Oblique'" font-size="21.7259">S</text>
	
		<text transform="matrix(0.9994 0.0352 -0.0352 0.9994 1206.8965 983.6602)" fill="#0C8416" font-family="'DejaVuSans-Oblique'" font-size="21.7259">o</text>
	
		<text transform="matrix(0.9994 0.0352 -0.0352 0.9994 1219.9199 984.1182)" fill="#0C8416" font-family="'DejaVuSans-Oblique'" font-size="21.7259">u</text>
	
		<text transform="matrix(0.9994 0.0352 -0.0352 0.9994 1232.9434 984.5781)" fill="#0C8416" font-family="'DejaVuSans-Oblique'" font-size="21.7259">v</text>
	
		<text transform="matrix(0.9994 0.0352 -0.0352 0.9994 1243.7949 984.959)" fill="#0C8416" font-family="'DejaVuSans-Oblique'" font-size="21.7259">e</text>
	
		<text transform="matrix(0.9994 0.0352 -0.0352 0.9994 1256.8281 985.418)" fill="#0C8416" font-family="'DejaVuSans-Oblique'" font-size="21.7259">n</text>
	
		<text transform="matrix(0.9994 0.0352 -0.0352 0.9994 1269.8516 985.8779)" fill="#0C8416" font-family="'DejaVuSans-Oblique'" font-size="21.7259">i</text>
	
		<text transform="matrix(0.9994 0.0352 -0.0352 0.9994 1274.2109 986.0293)" fill="#0C8416" font-family="'DejaVuSans-Oblique'" font-size="21.7259">r</text>
	<polygon fill="#F7EFB7" points="885.323,513.92 880.466,126.595 1052.092,129.067 1050.137,504.335 	"/>
	<polygon fill="#AF9C8D" points="899.99,494.621 900.471,480.43 902.087,480.268 902.722,460.465 901.228,460.517 901.385,453.745 
		903.08,453.384 903.61,434.116 902.298,434.098 902.403,427.438 903.878,427.267 904.656,407.292 903.19,407.281 904.611,374.271 
		905.744,374.249 906.604,353.577 905.731,353.624 905.593,347.256 906.8,347.242 907.824,327.322 906.378,327.097 906.834,320.093 
		907.952,320.19 908.612,300.508 907.522,300.536 907.729,285.768 922.025,286.442 922.119,288.03 935.783,288.556 936.166,285.046 
		948.916,285.365 949.187,287.793 963.335,288.094 963.734,286.175 976.78,286.708 977.051,290.028 991.772,290.97 991.911,289.287 
		1005.93,289.715 1005.731,304.809 1003.746,305.108 1002.712,324.207 1004.797,324.48 1004.687,331.435 1002.678,331.502 
		1001.513,351.388 1003.475,351.685 1003.406,357.235 1001.202,357.416 1000.9,377.633 1002.674,378.083 1002.521,384.672 
		999.85,384.875 998.836,404.207 1001.459,404.75 1001.106,410.796 999.767,411.039 998.517,431.122 1000.285,431.411 
		1000.008,437.747 998.291,437.593 997.753,457.722 999.318,457.762 999.176,464.244 997.141,464.374 996.536,484.476 
		997.942,484.607 997.448,498.397 983.548,498.166 983.411,496.055 964.532,495.051 964.34,496.86 958.55,497.012 958.565,494.892 
		939.505,494.142 939.293,496.252 932.862,496.366 932.397,493.842 914.375,493.205 913.705,495.664 	"/>
	<path fill="#0092DA" d="M966.271,231.845l0.465,10.176l10.899-0.496l4.354-5.296l-4.817-4.879L966.271,231.845L966.271,231.845z
		 M960.948,226.989l1.587,34.889l5.089-0.231l-0.66-14.539l12.354-0.562l8.26-10.572l-9.188-9.778L960.948,226.989L960.948,226.989z
		"/>
	<polygon points="953.228,371.107 950.24,373.938 950.004,382.666 938.365,382.352 938.21,388.17 949.847,388.485 949.218,411.76 
		955.035,411.917 955.666,388.642 967.303,388.957 967.461,383.138 955.823,382.823 956.06,374.095 	"/>
	<polygon fill="#D9D0C9" stroke="#998675" stroke-miterlimit="10" points="1238.172,543.552 1226.459,544.021 1212.937,568.264 
		1145.779,568.738 1145.59,540.368 1152.267,540.247 1152.209,531.156 1145.459,531.345 1145.441,522.596 1151.271,476.143 
		1200.597,482.813 1214.911,484.832 1231.632,487.031 1237.021,486.906 	"/>
	<polygon fill="#D9D0C9" stroke="#998675" stroke-miterlimit="10" points="1231.632,487.031 1214.911,484.832 1216.675,466.914 
		1202.693,465.054 1200.597,482.813 1151.271,476.143 1148.521,475.766 1152.178,449.922 1150.93,449.779 1155.673,416.015 
		1156.768,416.158 1160.342,390.113 1243.574,401.441 1241.567,416.537 1241.084,420.57 1239.498,420.394 	"/>
	<polygon fill="#D9D0C9" stroke="#998675" stroke-miterlimit="10" points="1452.295,594.008 1450.095,593.796 1450.053,592.938 
		1405.258,589.981 1406.671,573.179 1407.24,566.59 1413.993,566.984 1415.902,541.004 1402.323,539.669 1404.931,508.67 
		1418.707,509.543 1420.953,482.945 1413.922,482.137 1413.967,479.915 1401.457,478.841 1402.692,461.451 1415.343,462.295 
		1415.479,459.252 1460.132,463.134 1460.281,462.245 1463.118,462.488 	"/>
	<polygon fill="#D9D0C9" stroke="#998675" stroke-miterlimit="10" points="1402.271,541.315 1396.18,548.68 1335.141,543.513 
		1334.688,548.956 1296.781,545.165 1291.853,544.755 1295.475,499.85 1296.599,485.816 1339.603,489.668 1339.341,494.491 
		1399.512,499.094 1405.114,506.814 1404.931,508.67 1402.323,539.669 	"/>
	<polygon fill="#D9D0C9" stroke="#998675" stroke-miterlimit="10" points="1294.846,572.493 1239.018,567.843 1238.172,543.552 
		1237.021,486.906 1281.846,485.841 1281.154,499.072 1295.475,499.85 1291.853,544.755 1296.781,545.165 	"/>
	<polygon fill="#D9D0C9" stroke="#998675" stroke-miterlimit="10" points="1242.224,348.215 1233.033,324.625 1231.942,321.867 
		1237.34,319.792 1227.365,295.673 1203.522,304.567 1199.7,293.458 1272.138,271.006 1293.207,325.217 1290.24,332.961 	"/>
	<path fill="#D9D0C9" stroke="#998675" stroke-miterlimit="10" d="M1098.598,79.44l11.912,0.393l0.814-28.711l-11.941-0.406
		L1098.598,79.44L1098.598,79.44z M1067.399,93.231l0.385-54.782l0.037-2.418l1.971-0.073l50.469,2.844l-0.163,4.91l-0.467,13.918
		l-0.204,5.3l10.402-0.148l27.784,0.12l85.362,0.326l1.082,29.229l-67.433-1.24l-0.12-12.526l-28.536-0.294l-0.095,8.688l8.65-0.199
		l-0.063,4.354l-1.229-0.013l-0.104,2.652L1067.399,93.231L1067.399,93.231z"/>
	<path fill="#D9D0C9" stroke="#998675" stroke-miterlimit="10" d="M1177.714,195.018l0.563-23.919l-10.074-0.148l-0.563,23.914
		L1177.714,195.018L1177.714,195.018z M1189.916,223.838l-0.993,0.053l-2.107-0.335l-12.383-2.115l-16.981-2.405l2.318-80.55
		l30.38,0.416l-0.297,32.358l0.771,0.065L1189.916,223.838L1189.916,223.838z"/>
	<polygon fill="#D9D0C9" stroke="#998675" stroke-miterlimit="10" points="1157.449,219.037 1143.317,216.877 1143.711,193.31 
		1137.739,193.078 1137.653,183.282 1143.932,183.223 1144.041,170.842 1129.225,170.19 1119.467,169.983 1122.082,138.109 
		1159.771,138.486 	"/>
	<polygon fill="#D9D0C9" stroke="#998675" stroke-miterlimit="10" points="1413.993,566.984 1407.24,566.59 1406.671,573.179 
		1393.043,571.521 1392.447,580.479 1332.305,575.513 1334.688,548.956 1335.141,543.513 1396.18,548.68 1402.271,541.315 
		1402.323,539.669 1415.902,541.004 	"/>
	<polygon fill="#D9D0C9" stroke="#998675" stroke-miterlimit="10" points="1339.603,489.668 1296.599,485.816 1298.485,430.588 
		1317.474,431.327 1339.633,432.036 1339.65,433.585 1341.55,433.663 	"/>
	<polygon fill="#D9D0C9" stroke="#998675" stroke-miterlimit="10" points="1120.258,38.801 1120.885,21.655 1140.798,22.131 
		1140.938,16.197 1146.86,15.023 1174.683,10.776 1195.15,10.511 1195.266,12.025 1241.63,10.917 1241.896,41.41 	"/>
	<polygon fill="#D9D0C9" stroke="#998675" stroke-miterlimit="10" points="1119.628,57.628 1120.095,43.71 1120.258,38.801 
		1241.896,41.41 1242.978,63.226 1157.613,62.9 1157.678,57.5 	"/>
</g>
<g id="antennes">
	<path id="antenne2" d="M233.948,543.631c1.717-0.887,2.902-2.656,2.902-4.723c0-2.946-2.388-5.336-5.335-5.336
		c-2.946,0-5.337,2.39-5.337,5.336c0,2.07,1.196,3.848,2.919,4.73c-5.803,48.167-22.903,65.939-23.08,66.121
		c-0.734,0.736-0.731,1.924,0,2.657c0.736,0.736,1.928,0.736,2.664,0c0.308-0.308,3.319-3.412,7.196-10.237
		c0.202,0.075,0.418,0.122,0.646,0.122h30.287c2.23,3.855,4.731,7.313,7.537,10.118c0.365,0.368,0.85,0.551,1.334,0.551
		c0.481,0,0.964-0.183,1.33-0.551c0.734-0.736,0.734-1.926,0-2.662C241.679,594.428,235.659,557.042,233.948,543.631z
		 M231.537,553.393c1.175,7.162,2.984,16.229,5.662,25.344h-11.483C227.917,571.616,229.951,563.229,231.537,553.393z
		 M217.839,598.535c2.155-4.23,4.464-9.537,6.661-16.035h13.604c0.083,0,0.161-0.015,0.238-0.024
		c1.789,5.571,3.917,11.063,6.435,16.061L217.839,598.535L217.839,598.535z M241.338,546.138v-1.256
		c3.952,0,7.168-3.216,7.168-7.168c0-3.949-3.216-7.165-7.168-7.165v-1.256c4.643,0,8.422,3.778,8.422,8.421
		C249.76,542.358,245.981,546.138,241.338,546.138z M245.172,523.952v-1.256c8.427,0,15.279,6.855,15.279,15.283
		c0,8.426-6.853,15.278-15.279,15.278v-1.255c7.731,0,14.022-6.292,14.022-14.023C259.198,530.244,252.904,523.952,245.172,523.952z
		 M270.263,538.135c0,12.152-9.885,22.037-22.037,22.037v-1.256c11.461,0,20.779-9.323,20.779-20.781s-9.318-20.779-20.779-20.779
		v-1.257C260.378,516.099,270.263,525.983,270.263,538.135z M215.612,537.871c0,3.952,3.216,7.168,7.168,7.168v1.256
		c-4.642,0-8.422-3.778-8.422-8.424c0-4.644,3.78-8.422,8.422-8.422v1.255C218.827,530.704,215.612,533.92,215.612,537.871z
		 M218.945,522.854v1.257c-7.73,0-14.024,6.293-14.024,14.024c0,7.735,6.294,14.026,14.024,14.026v1.256
		c-8.426,0-15.278-6.856-15.278-15.282C203.666,529.71,210.519,522.854,218.945,522.854z M215.892,560.325
		c-12.15,0-22.037-9.885-22.037-22.035c0-12.151,9.887-22.036,22.037-22.036v1.256c-11.459,0-20.779,9.322-20.779,20.78
		c0,11.459,9.32,20.782,20.779,20.782V560.325z"/>
	<circle id="reseau3" cx="304.5" cy="590.499" r="21.667"/>
	<path id="antenne2_1_" d="M1390.986,892.523c1.717-0.888,2.901-2.656,2.901-4.724c0-2.946-2.388-5.336-5.335-5.336
		c-2.946,0-5.337,2.39-5.337,5.336c0,2.071,1.196,3.849,2.919,4.731c-5.803,48.167-22.903,65.938-23.08,66.121
		c-0.733,0.735-0.73,1.924,0,2.656c0.736,0.736,1.929,0.736,2.664,0c0.308-0.308,3.319-3.412,7.196-10.236
		c0.202,0.074,0.418,0.122,0.646,0.122h30.287c2.23,3.854,4.731,7.312,7.537,10.117c0.365,0.368,0.851,0.552,1.334,0.552
		c0.481,0,0.964-0.184,1.33-0.552c0.734-0.735,0.734-1.926,0-2.661C1398.716,943.32,1392.697,905.935,1390.986,892.523z
		 M1388.574,902.285c1.175,7.162,2.983,16.229,5.662,25.343h-11.483C1384.954,920.509,1386.989,912.122,1388.574,902.285z
		 M1374.876,947.428c2.155-4.229,4.464-9.537,6.661-16.035h13.604c0.083,0,0.161-0.015,0.238-0.023
		c1.789,5.571,3.917,11.063,6.436,16.06L1374.876,947.428L1374.876,947.428z M1398.375,895.03v-1.256
		c3.952,0,7.168-3.217,7.168-7.168c0-3.949-3.216-7.165-7.168-7.165v-1.256c4.643,0,8.422,3.777,8.422,8.421
		C1406.797,891.251,1403.018,895.03,1398.375,895.03z M1402.209,872.845v-1.256c8.427,0,15.279,6.856,15.279,15.283
		c0,8.426-6.854,15.279-15.279,15.279v-1.255c7.731,0,14.022-6.293,14.022-14.024
		C1416.235,879.137,1409.941,872.845,1402.209,872.845z M1427.3,887.027c0,12.151-9.885,22.037-22.037,22.037v-1.257
		c11.461,0,20.779-9.322,20.779-20.78s-9.318-20.78-20.779-20.78v-1.256C1417.415,864.991,1427.3,874.876,1427.3,887.027z
		 M1372.649,886.764c0,3.952,3.216,7.168,7.168,7.168v1.256c-4.643,0-8.422-3.777-8.422-8.424c0-4.643,3.779-8.422,8.422-8.422
		v1.255C1375.865,879.597,1372.649,882.813,1372.649,886.764z M1375.982,871.746v1.256c-7.73,0-14.024,6.293-14.024,14.025
		c0,7.734,6.294,14.025,14.024,14.025v1.256c-8.427,0-15.278-6.855-15.278-15.281
		C1360.703,878.604,1367.556,871.746,1375.982,871.746z M1372.929,909.218c-12.149,0-22.037-9.885-22.037-22.035
		s9.888-22.035,22.037-22.035v1.256c-11.459,0-20.779,9.321-20.779,20.779c0,11.459,9.32,20.782,20.779,20.782V909.218z"/>
	<circle id="reseau2" cx="1386.5" cy="824.499" r="21.666"/>
	<path id="antenne1" d="M1165.933,271.168c1.718-0.887,2.902-2.656,2.902-4.723c0-2.946-2.388-5.336-5.335-5.336
		c-2.946,0-5.337,2.39-5.337,5.336c0,2.071,1.196,3.848,2.919,4.731c-5.803,48.167-22.903,65.939-23.08,66.121
		c-0.734,0.736-0.731,1.924,0,2.657c0.736,0.736,1.928,0.736,2.664,0c0.308-0.308,3.319-3.412,7.196-10.237
		c0.201,0.075,0.418,0.122,0.646,0.122h30.287c2.229,3.855,4.731,7.313,7.537,10.118c0.365,0.368,0.85,0.551,1.334,0.551
		c0.48,0,0.964-0.183,1.33-0.551c0.733-0.736,0.733-1.926,0-2.662C1173.663,321.965,1167.644,284.579,1165.933,271.168z
		 M1163.522,280.93c1.175,7.162,2.983,16.229,5.661,25.343H1157.7C1159.902,299.153,1161.937,290.767,1163.522,280.93z
		 M1149.823,326.072c2.154-4.23,4.464-9.537,6.661-16.035h13.604c0.083,0,0.161-0.016,0.238-0.024
		c1.789,5.571,3.917,11.063,6.435,16.061L1149.823,326.072L1149.823,326.072z M1173.323,273.675v-1.256
		c3.952,0,7.168-3.216,7.168-7.168c0-3.949-3.216-7.165-7.168-7.165v-1.256c4.643,0,8.422,3.778,8.422,8.421
		C1181.744,269.896,1177.965,273.675,1173.323,273.675z M1177.156,251.489v-1.256c8.427,0,15.278,6.856,15.278,15.283
		c0,8.426-6.853,15.279-15.278,15.279v-1.255c7.73,0,14.021-6.292,14.021-14.024
		C1191.182,257.781,1184.888,251.489,1177.156,251.489z M1202.247,265.672c0,12.152-9.885,22.037-22.037,22.037v-1.256
		c11.461,0,20.779-9.323,20.779-20.781s-9.318-20.78-20.779-20.78v-1.256C1192.363,243.636,1202.247,253.521,1202.247,265.672z
		 M1147.596,265.408c0,3.952,3.216,7.168,7.168,7.168v1.256c-4.642,0-8.422-3.778-8.422-8.424c0-4.643,3.78-8.422,8.422-8.422v1.255
		C1150.812,258.241,1147.596,261.457,1147.596,265.408z M1150.929,250.391v1.256c-7.729,0-14.023,6.293-14.023,14.025
		c0,7.735,6.294,14.026,14.023,14.026v1.256c-8.426,0-15.277-6.856-15.277-15.282
		C1135.651,257.247,1142.503,250.391,1150.929,250.391z M1147.876,287.862c-12.15,0-22.037-9.885-22.037-22.035
		c0-12.151,9.887-22.036,22.037-22.036v1.256c-11.459,0-20.779,9.322-20.779,20.78c0,11.459,9.32,20.782,20.779,20.782V287.862z"/>
	<circle id="reseau1" cx="1103.5" cy="310.167" r="21.667"/>
</g>
<rect id="pont" x="234.818" y="913.207" transform="matrix(0.0011 1 -1 0.0011 1229.9369 615.1248)" fill="#FBB03B" width="144.501" height="20"/>
<path id="cadenas" d="M312.699,919.572v-2.729c0-3.194-2.649-5.845-5.845-5.845s-5.845,2.649-5.845,5.845v2.729
	c-1.325,0-2.338,1.013-2.338,2.338v7.793c0,1.325,1.013,2.338,2.338,2.338h11.689c1.325,0,2.338-1.013,2.338-2.338v-7.793
	C315.037,920.663,314.024,919.572,312.699,919.572z M307.244,925.729v2.026c0,0.233-0.156,0.39-0.39,0.39s-0.39-0.155-0.39-0.39
	v-2.026c-0.468-0.154-0.779-0.622-0.779-1.091c0-0.623,0.545-1.169,1.169-1.169s1.169,0.546,1.169,1.169
	C308.023,925.184,307.712,925.573,307.244,925.729z M310.361,919.572h-7.014v-2.729c0-1.947,1.559-3.507,3.507-3.507
	s3.507,1.56,3.507,3.507V919.572L310.361,919.572z"/>
<g id="ami">
	<circle id="objectif" fill="#E5201C" cx="133" cy="357" r="15.5"/>
	<text transform="matrix(1 0 0 1 115.5 400.5)" font-family="'MyriadPro-Regular'" font-size="12">Amis</text>
</g>
<g id="chercheur">
	<circle id="objectif_1_" fill="#E5201C" cx="1673.434" cy="370.634" r="15.5"/>
	<text transform="matrix(1 0 0 1 1625.1035 404.7998)" font-family="'MyriadPro-Regular'" font-size="12">Chercheur de métaux</text>
</g>
<g id="collegue">
	<circle id="objectif_2_" fill="#E5201C" cx="1388.363" cy="625.16" r="15.5"/>
	<text transform="matrix(1 0 0 1 1370.8623 661.1611)" font-family="'MyriadPro-Regular'" font-size="12">Collège</text>
</g>
<g id="cle">
	<circle id="objectif_3_" fill="#E5201C" cx="620.329" cy="109.608" r="15.5"/>
	<text transform="matrix(1 0 0 1 608.9995 85.2734)" font-family="'MyriadPro-Regular'" font-size="12">Clé</text>
</g>
<g id="eglise">
	<circle id="objectif_4_" fill="#E5201C" cx="846.975" cy="306.138" r="15.5"/>
	<text transform="matrix(1 0 0 1 872.1416 307.3047)" font-family="'MyriadPro-Regular'" font-size="12">Église</text>
</g>
<g id="parc">
	<circle id="objectif3" fill="#E5201C" cx="1187.363" cy="823.16" r="15.5"/>
	<text transform="matrix(1 0 0 1 1169.8623 799.6602)" font-family="'MyriadPro-Regular'" font-size="12">Parc</text>
</g>
<g id="voiture">
	<path fill="#4D4D4D" d="M16.934,752.441h-2.207c-0.264,0-0.479-0.207-0.479-0.459v0.337c0,0.297,0.216,0.54,0.479,0.54h2.207
		c0.265,0,0.48-0.243,0.48-0.54v-0.337C17.414,752.234,17.198,752.441,16.934,752.441z"/>
	<path fill="#808080" d="M14.248,751.408v0.574c0,0.252,0.216,0.459,0.479,0.459h2.207c0.265,0,0.48-0.207,0.48-0.459v-0.556H14.45
		C14.381,751.429,14.315,751.418,14.248,751.408z"/>
	<path fill="#4D4D4D" d="M30.541,752.441h-2.207c-0.265,0-0.48-0.207-0.48-0.459v0.337c0,0.297,0.216,0.54,0.48,0.54h2.207
		c0.264,0,0.479-0.243,0.479-0.54v-0.337C31.021,752.234,30.805,752.441,30.541,752.441z"/>
	<path fill="#808080" d="M27.855,751.429v0.556c0,0.252,0.216,0.459,0.48,0.459h2.207c0.264,0,0.479-0.207,0.479-0.459v-0.574
		c-0.066,0.01-0.133,0.021-0.202,0.021L27.855,751.429L27.855,751.429z"/>
	<path fill="#BFF0FF" d="M17.663,742.123l-0.378,0.077l-0.021-0.095c0.105-0.063,0.258-0.122,0.426-0.184
		c0.13-0.811,0.353-1.552,0.645-2.176c0.06-0.127,0.175-0.231,0.309-0.229h2.724c0.188,0,0.258,0.229,0.245,0.349
		c-0.027,0.267-0.05,0.566-0.073,0.857l1.756-1.131H21.9c-0.194,0-0.239-0.094-0.229-0.245l0.016-0.256
		c0.008-0.135,0.103-0.245,0.227-0.245h0.652v-0.479c-0.545,0-1.137,0-2.858,0c-1.585,0-2.958,0.604-2.958,2.073v2.239
		c0.282-0.077,0.578-0.146,0.881-0.211C17.637,742.354,17.647,742.236,17.663,742.123z"/>
	<path fill="#BFF0FF" d="M26.846,738.528c0.151,0.041,0.296,0.088,0.432,0.146C27.142,738.616,26.997,738.569,26.846,738.528z"/>
	<path fill="#BFF0FF" d="M23.613,741.729l-0.441,0.284c0.23,0.006,0.462,0.016,0.691,0.025c-0.005-0.104-0.01-0.206-0.016-0.306
		L23.613,741.729z"/>
	<path fill="#BFF0FF" d="M28.231,739.427c0.044,0.066,0.079,0.142,0.113,0.214C28.31,739.566,28.275,739.493,28.231,739.427z"/>
	<path fill="#BFF0FF" d="M27.447,738.757c0.111,0.059,0.217,0.118,0.313,0.188C27.662,738.875,27.558,738.813,27.447,738.757z"/>
	<path fill="#BFF0FF" d="M21.516,741.863l2.233-1.438c-0.017-0.176-0.029-0.367-0.046-0.533l-2.216,1.427
		c-0.012,0.172-0.018,0.361-0.027,0.542L21.516,741.863z"/>
	<path fill="#BFF0FF" d="M23.36,738.848c0.125,0,0.219,0.11,0.227,0.245l0.016,0.256c0.001,0.023-0.011,0.035-0.013,0.058
		l0.877-0.565l0.734-0.473c-1.436,0-1.99,0-2.493,0v0.479H23.36L23.36,738.848z"/>
	<path fill="#BFF0FF" d="M24.282,739.519h0.875l1.586-1.021c-0.225-0.054-0.463-0.088-0.708-0.107l-1.57,1.013L24.282,739.519z"/>
	<path fill="#BFF0FF" d="M27.679,742.403l0.313,0.095c0.049,0.016,0.077,0.068,0.063,0.118c0,0.002-0.003,0.003-0.004,0.005
		c0.16,0.039,0.32,0.078,0.473,0.121v-2.305c0-0.244-0.051-0.46-0.123-0.657l-1.126,0.726
		C27.469,741.08,27.604,741.722,27.679,742.403z"/>
	<path fill="#BFF0FF" d="M26.977,739.748c0.045,0.097,0.083,0.206,0.125,0.309l1.079-0.692c-0.096-0.133-0.21-0.251-0.342-0.354
		l-0.958,0.616C26.918,739.661,26.955,739.7,26.977,739.748z"/>
	<path fill="#B3B3B3" d="M14.52,742.608h-0.717c-0.273,0-0.496-0.237-0.496-0.527v0.197c0,0.29,0.223,0.526,0.496,0.526h0.717
		l0.771,0.381c0.07-0.029,0.145-0.061,0.218-0.09L14.52,742.608z"/>
	<path fill="#B3B3B3" d="M31.46,742.608h-0.717l-1.063,0.522c0.074,0.03,0.153,0.057,0.225,0.087l0.839-0.413h0.717
		c0.271,0,0.496-0.236,0.496-0.526v-0.197C31.956,742.371,31.732,742.608,31.46,742.608z"/>
	<path fill="#CCCCCC" d="M13.803,742.608h0.717l0.99,0.487c0.062-0.023,0.126-0.049,0.189-0.072l-0.812-0.398v-0.198v-1.072h-1.085
		c-0.273,0-0.496,0.237-0.496,0.528v0.198C13.307,742.371,13.531,742.608,13.803,742.608z"/>
	<path fill="#CCCCCC" d="M29.68,743.133l1.063-0.522h0.717c0.271,0,0.496-0.237,0.496-0.527v-0.198c0-0.291-0.225-0.526-0.496-0.526
		h-1.085v1.07v0.198l-0.883,0.436C29.555,743.084,29.618,743.108,29.68,743.133z"/>
	<path fill="#A7E1F2" d="M18.97,741.876c-0.011-0.001-0.019-0.01-0.029-0.015l-1.278,0.262c-0.017,0.113-0.025,0.229-0.038,0.347
		c0.518-0.108,1.062-0.201,1.624-0.271l0.424-0.273L18.97,741.876z"/>
	<path fill="#A7E1F2" d="M20.285,742.092c0.311-0.023,0.625-0.045,0.941-0.06l-0.767-0.054L20.285,742.092z"/>
	<path fill="#A7E1F2" d="M21.46,741.859c0.01-0.181,0.016-0.37,0.027-0.542l-0.762,0.489L21.46,741.859z"/>
	<polygon fill="#A7E1F2" points="19.589,741.729 19.939,741.754 20.157,741.613 	"/>
	<path fill="#A7E1F2" d="M20.408,741.452l1.13-0.729c0.023-0.291,0.046-0.593,0.073-0.857c0.014-0.118-0.058-0.349-0.245-0.349
		h-2.724c-0.134-0.002-0.249,0.104-0.309,0.229c-0.292,0.624-0.514,1.365-0.645,2.176C18.504,741.634,19.883,741.382,20.408,741.452
		z"/>
	<path fill="#A7E1F2" d="M26.5,741.697l-0.002,0.098l-0.898-0.021l2.08,0.629c-0.076-0.684-0.211-1.323-0.404-1.897l-1.604,1.034
		C26.026,741.575,26.332,741.627,26.5,741.697z"/>
	<path fill="#A7E1F2" d="M24.466,739.964l0.691-0.445h-0.875l-0.58,0.374c0.018,0.166,0.029,0.357,0.046,0.533L24.466,739.964z"/>
	<path fill="#A7E1F2" d="M23.943,741.516c0.285-0.021,0.606-0.026,0.93-0.021l2.23-1.438c-0.042-0.103-0.08-0.212-0.125-0.309
		c-0.021-0.048-0.06-0.087-0.096-0.124l-2.415,1.555L23.943,741.516z"/>
	<path fill="#A7E1F2" d="M24.796,742.104c0.75,0.063,1.483,0.156,2.178,0.283l-1.782-0.539L24.796,742.104z"/>
	<path fill="#A7E1F2" d="M24.475,741.748l-0.629-0.015c0.006,0.1,0.011,0.202,0.016,0.306c0.05,0.003,0.1,0.006,0.148,0.009
		l0.456-0.294L24.475,741.748z"/>
	<path fill="#49A4C1" d="M28.414,739.771c-0.019-0.049-0.048-0.087-0.07-0.133c0.021,0.045,0.04,0.092,0.057,0.142L28.414,739.771z"
		/>
	<path opacity="0.5" fill="#FFFFFF" enable-background="new    " d="M28.414,739.771c-0.019-0.049-0.048-0.087-0.07-0.133
		c0.021,0.045,0.04,0.092,0.057,0.142L28.414,739.771z"/>
	<path fill="#49A4C1" d="M27.85,739c-0.026-0.021-0.063-0.035-0.091-0.055c0.027,0.02,0.054,0.041,0.08,0.063L27.85,739z"/>
	<path opacity="0.5" fill="#FFFFFF" enable-background="new    " d="M27.85,739c-0.026-0.021-0.063-0.035-0.091-0.055
		c0.027,0.02,0.054,0.041,0.08,0.063L27.85,739z"/>
	<path fill="#49A4C1" d="M27.278,738.674c0.06,0.025,0.113,0.057,0.168,0.083C27.391,738.729,27.337,738.699,27.278,738.674z"/>
	<path opacity="0.5" fill="#FFFFFF" enable-background="new    " d="M27.278,738.674c0.06,0.025,0.113,0.057,0.168,0.083
		C27.391,738.729,27.337,738.699,27.278,738.674z"/>
	<path fill="#49A4C1" d="M28.193,739.354l-0.012,0.009c0.016,0.021,0.035,0.041,0.05,0.063
		C28.217,739.404,28.209,739.376,28.193,739.354z"/>
	<path opacity="0.5" fill="#FFFFFF" enable-background="new    " d="M28.193,739.354l-0.012,0.009
		c0.016,0.021,0.035,0.041,0.05,0.063C28.217,739.404,28.209,739.376,28.193,739.354z"/>
	<path fill="#49A4C1" d="M26.042,738.386c-0.155-0.013-0.314-0.02-0.477-0.02c0.16,0,0.315,0.011,0.471,0.021L26.042,738.386z"/>
	<path opacity="0.5" fill="#FFFFFF" enable-background="new    " d="M26.042,738.386c-0.155-0.013-0.314-0.02-0.477-0.02
		c0.16,0,0.315,0.011,0.471,0.021L26.042,738.386z"/>
	<path fill="#49A4C1" d="M26.747,738.495l-0.003,0.002c0.035,0.009,0.067,0.021,0.103,0.031
		C26.812,738.521,26.782,738.504,26.747,738.495z"/>
	<path opacity="0.5" fill="#FFFFFF" enable-background="new    " d="M26.747,738.495l-0.003,0.002
		c0.035,0.009,0.067,0.021,0.103,0.031C26.812,738.521,26.782,738.504,26.747,738.495z"/>
	<path fill="#BFF0FF" d="M26.669,739.519c0.083-0.001,0.152,0.046,0.212,0.105l0.958-0.616c-0.026-0.021-0.053-0.043-0.08-0.063
		c-0.097-0.07-0.201-0.134-0.313-0.188c-0.056-0.028-0.108-0.058-0.168-0.083c-0.136-0.058-0.28-0.104-0.432-0.146
		c-0.035-0.011-0.067-0.022-0.103-0.031l-1.586,1.021L26.669,739.519L26.669,739.519z"/>
	<path opacity="0.5" fill="#FFFFFF" enable-background="new    " d="M26.669,739.519c0.083-0.001,0.152,0.046,0.212,0.105
		l0.958-0.616c-0.026-0.021-0.053-0.043-0.08-0.063c-0.097-0.07-0.201-0.134-0.313-0.188c-0.056-0.028-0.108-0.058-0.168-0.083
		c-0.136-0.058-0.28-0.104-0.432-0.146c-0.035-0.011-0.067-0.022-0.103-0.031l-1.586,1.021L26.669,739.519L26.669,739.519z"/>
	<path fill="#BFF0FF" d="M27.276,740.506l1.126-0.726c-0.017-0.048-0.035-0.097-0.057-0.142c-0.034-0.072-0.069-0.146-0.113-0.214
		c-0.015-0.021-0.034-0.043-0.05-0.063l-1.079,0.692C27.162,740.203,27.223,740.35,27.276,740.506z"/>
	<path opacity="0.5" fill="#FFFFFF" enable-background="new    " d="M27.276,740.506l1.126-0.726
		c-0.017-0.048-0.035-0.097-0.057-0.142c-0.034-0.072-0.069-0.146-0.113-0.214c-0.015-0.021-0.034-0.043-0.05-0.063l-1.079,0.692
		C27.162,740.203,27.223,740.35,27.276,740.506z"/>
	<path fill="#BFF0FF" d="M23.25,741.72l0.002-0.097c0.144-0.044,0.352-0.074,0.584-0.096c-0.025-0.39-0.056-0.748-0.087-1.104
		l-2.233,1.438l0.566,0.039c0.052,0.004,0.091,0.049,0.087,0.101c0,0.001-0.001,0.002-0.001,0.003
		c0.334-0.003,0.668-0.001,1.002,0.008l0.441-0.284L23.25,741.72z"/>
	<path opacity="0.5" fill="#FFFFFF" enable-background="new    " d="M23.25,741.72l0.002-0.097c0.144-0.044,0.352-0.074,0.584-0.096
		c-0.025-0.39-0.056-0.748-0.087-1.104l-2.233,1.438l0.566,0.039c0.052,0.004,0.091,0.049,0.087,0.101
		c0,0.001-0.001,0.002-0.001,0.003c0.334-0.003,0.668-0.001,1.002,0.008l0.441-0.284L23.25,741.72z"/>
	<path fill="#BFF0FF" d="M23.589,739.404c-0.011,0.11-0.063,0.188-0.217,0.188h-0.078l-1.756,1.131
		c-0.018,0.199-0.036,0.386-0.051,0.595l2.216-1.427c-0.001-0.009-0.001-0.02-0.002-0.025c-0.014-0.118,0.058-0.348,0.245-0.348
		h0.338l0.184-0.117l1.57-1.013c-0.154-0.013-0.311-0.021-0.471-0.021c-0.133,0-0.246,0-0.365,0l-0.734,0.473L23.589,739.404z"/>
	<path opacity="0.5" fill="#FFFFFF" enable-background="new    " d="M23.589,739.404c-0.011,0.11-0.063,0.188-0.217,0.188h-0.078
		l-1.756,1.131c-0.018,0.199-0.036,0.386-0.051,0.595l2.216-1.427c-0.001-0.009-0.001-0.02-0.002-0.025
		c-0.014-0.118,0.058-0.348,0.245-0.348h0.338l0.184-0.117l1.57-1.013c-0.154-0.013-0.311-0.021-0.471-0.021
		c-0.133,0-0.246,0-0.365,0l-0.734,0.473L23.589,739.404z"/>
	<path fill="#A7E1F2" d="M19.673,741.925l-0.424,0.273c0.339-0.043,0.686-0.077,1.036-0.106l0.175-0.111L19.673,741.925z"/>
	<path opacity="0.5" fill="#FFFFFF" enable-background="new    " d="M19.673,741.925l-0.424,0.273
		c0.339-0.043,0.686-0.077,1.036-0.106l0.175-0.111L19.673,741.925z"/>
	<path fill="#A7E1F2" d="M20.448,741.454l0.02,0.096l-0.311,0.063l-0.219,0.141l0.787,0.055l0.762-0.489
		c0.015-0.209,0.034-0.396,0.051-0.595l-1.13,0.729C20.42,741.453,20.438,741.452,20.448,741.454z"/>
	<path opacity="0.5" fill="#FFFFFF" enable-background="new    " d="M20.448,741.454l0.02,0.096l-0.311,0.063l-0.219,0.141
		l0.787,0.055l0.762-0.489c0.015-0.209,0.034-0.396,0.051-0.595l-1.13,0.729C20.42,741.453,20.438,741.452,20.448,741.454z"/>
	<path fill="#A7E1F2" d="M24.966,741.779c-0.011-0.004-0.016-0.016-0.025-0.021l-0.466-0.011l-0.009,0.006l-0.456,0.294
		c0.264,0.016,0.525,0.033,0.786,0.055l0.396-0.255L24.966,741.779z"/>
	<path opacity="0.5" fill="#FFFFFF" enable-background="new    " d="M24.966,741.779c-0.011-0.004-0.016-0.016-0.025-0.021
		l-0.466-0.011l-0.009,0.006l-0.456,0.294c0.264,0.016,0.525,0.033,0.786,0.055l0.396-0.255L24.966,741.779z"/>
	<path fill="#A7E1F2" d="M23.946,739.519c-0.188,0-0.258,0.229-0.245,0.349c0.001,0.008,0.001,0.019,0.002,0.025l0.58-0.374H23.946
		L23.946,739.519z"/>
	<path opacity="0.5" fill="#FFFFFF" enable-background="new    " d="M23.946,739.519c-0.188,0-0.258,0.229-0.245,0.349
		c0.001,0.008,0.001,0.019,0.002,0.025l0.58-0.374H23.946L23.946,739.519z"/>
	<path fill="#A7E1F2" d="M23.749,740.426c0.031,0.354,0.062,0.714,0.087,1.104c0.037-0.004,0.067-0.01,0.106-0.014l0.523-0.337
		l2.415-1.555c-0.061-0.061-0.129-0.106-0.212-0.104h-1.511l-0.691,0.444L23.749,740.426z"/>
	<path opacity="0.5" fill="#FFFFFF" enable-background="new    " d="M23.749,740.426c0.031,0.354,0.062,0.714,0.087,1.104
		c0.037-0.004,0.067-0.01,0.106-0.014l0.523-0.337l2.415-1.555c-0.061-0.061-0.129-0.106-0.212-0.104h-1.511l-0.691,0.444
		L23.749,740.426z"/>
	<path fill="#A7E1F2" d="M25.67,741.54l1.604-1.034c-0.053-0.156-0.112-0.303-0.173-0.449l-2.23,1.438
		C25.15,741.498,25.42,741.515,25.67,741.54z"/>
	<path opacity="0.5" fill="#FFFFFF" enable-background="new    " d="M25.67,741.54l1.604-1.034
		c-0.053-0.156-0.112-0.303-0.173-0.449l-2.23,1.438C25.15,741.498,25.42,741.515,25.67,741.54z"/>
	<path fill="#A7E1F2" d="M21.909,738.848c-0.125,0-0.219,0.11-0.227,0.245l-0.016,0.256c-0.01,0.151,0.036,0.245,0.229,0.245h1.396
		h0.078c0.154,0,0.207-0.077,0.217-0.188c0.002-0.021,0.015-0.032,0.013-0.058l-0.016-0.256c-0.008-0.135-0.103-0.245-0.227-0.245
		h-0.652v-0.479c-0.048,0-0.098,0-0.146,0v0.479H21.909L21.909,738.848z"/>
	<path fill="#34859E" d="M13.024,749.536L13.024,749.536c0.031-0.153,0.093-0.293,0.167-0.425c0.011-0.021,0.02-0.037,0.03-0.057
		c0.077-0.121,0.171-0.229,0.278-0.32c0.02-0.02,0.04-0.033,0.06-0.052c0.112-0.088,0.236-0.159,0.371-0.214
		c0.021-0.008,0.041-0.012,0.063-0.019c0.145-0.05,0.297-0.082,0.458-0.082h3.17v-0.22c0-0.802,0.654-1.455,1.456-1.455h7.116
		c0.802,0,1.456,0.652,1.456,1.455v0.22h3.17c0.161,0,0.313,0.032,0.458,0.082c0.021,0.007,0.042,0.011,0.063,0.019
		c0.135,0.055,0.258,0.126,0.371,0.214c0.021,0.019,0.04,0.032,0.06,0.052c0.107,0.094,0.202,0.199,0.278,0.32
		c0.011,0.02,0.02,0.036,0.03,0.057c0.074,0.132,0.136,0.271,0.167,0.424c0,0.001,0,0.001,0,0.001l0,0
		c0.019,0.094,0.028,0.188,0.028,0.29v-3.122c0,0.397-0.654,0.725-1.456,0.725h-2.563H28.25c0-0.002,0-0.004,0-0.006
		c-0.042-0.765-0.674-1.377-1.447-1.377h-8.298c-0.773,0-1.405,0.612-1.447,1.377c0,0.002,0,0.004,0,0.006h-0.006H14.45
		c-0.801,0-1.456-0.325-1.456-0.725v3.122C12.995,749.727,13.005,749.63,13.024,749.536L13.024,749.536z"/>
	<polygon fill="#49A4C1" points="17.057,747.429 17.057,747.423 17.051,747.429 	"/>
	<path fill="#49A4C1" d="M14.45,747.429h2.601l-0.802-4.538l2.255,3.155h8.298l2.217-3.155v-2.756c0-1.593-1.489-2.247-3.207-2.247
		c-3.898,0-2.458,0-6.355,0c-1.719,0-3.207,0.654-3.207,2.247v2.697c-0.19,0.061-0.373,0.125-0.55,0.192
		c-0.063,0.022-0.129,0.048-0.189,0.071c-0.073,0.029-0.147,0.061-0.218,0.092c-1.401,0.61-2.297,1.465-2.297,2.564v0.95
		C12.995,747.104,13.65,747.429,14.45,747.429z M16.744,740.439c0-1.471,1.374-2.073,2.958-2.073c1.723,0,2.313,0,2.858,0
		c0.048,0,0.098,0,0.146,0c0.503,0,1.059,0,2.493,0c0.119,0,0.232,0,0.365,0c0.162,0,0.32,0.007,0.477,0.02l-0.006,0.004
		c0.245,0.021,0.482,0.056,0.708,0.107l0.003-0.002c0.034,0.009,0.064,0.022,0.099,0.033c0.151,0.041,0.296,0.088,0.432,0.146
		c0.06,0.025,0.113,0.057,0.168,0.083c0.111,0.059,0.216,0.118,0.313,0.188c0.028,0.02,0.063,0.033,0.091,0.055l-0.011,0.008
		c0.131,0.104,0.246,0.224,0.342,0.354l0.012-0.008c0.017,0.021,0.023,0.05,0.038,0.07c0.044,0.066,0.079,0.142,0.113,0.214
		c0.021,0.047,0.052,0.084,0.07,0.134L28.4,739.78c0.072,0.198,0.123,0.413,0.123,0.659v2.303c-0.152-0.043-0.313-0.082-0.473-0.121
		c-0.017,0.045-0.066,0.072-0.113,0.058l-0.964-0.292c-0.694-0.127-1.428-0.22-2.178-0.283c-0.26-0.021-0.522-0.039-0.786-0.056
		c-0.05-0.003-0.099-0.006-0.148-0.009c-0.229-0.012-0.46-0.021-0.691-0.025c-0.334-0.009-0.668-0.011-1.002-0.008
		c-0.006,0.05-0.049,0.089-0.1,0.085l-0.842-0.059c-0.315,0.015-0.631,0.034-0.941,0.06c-0.352,0.029-0.697,0.063-1.036,0.106
		c-0.563,0.069-1.105,0.161-1.624,0.271c-0.304,0.064-0.599,0.135-0.881,0.211V740.439L16.744,740.439z M15.219,743.889
		c0.694,0,1.261,0.566,1.261,1.263c0,0.691-0.565,1.26-1.261,1.26c-0.696,0-1.26-0.566-1.26-1.26
		C13.958,744.455,14.524,743.889,15.219,743.889z"/>
	<polygon fill="#49A4C1" points="28.25,747.429 28.256,747.429 28.25,747.423 	"/>
	<path fill="#49A4C1" d="M28.256,747.429h2.563c0.801,0,1.456-0.323,1.456-0.725v-0.95c0-1.07-0.925-1.918-2.37-2.534
		c-0.07-0.028-0.149-0.057-0.225-0.087c-0.062-0.022-0.125-0.049-0.188-0.07c-0.153-0.06-0.311-0.112-0.473-0.165v-0.007
		L28.256,747.429z M30.051,743.889c0.694,0,1.26,0.566,1.26,1.263c0,0.691-0.565,1.26-1.26,1.26c-0.695,0-1.261-0.566-1.261-1.26
		C28.79,744.455,29.356,743.889,30.051,743.889z"/>
	<path fill="#34859E" d="M30.051,746.409c0.694,0,1.26-0.566,1.26-1.26c0-0.694-0.565-1.263-1.26-1.263
		c-0.695,0-1.261,0.566-1.261,1.263C28.79,745.843,29.356,746.409,30.051,746.409z M29.192,744.719
		c0.035-0.067,0.078-0.13,0.127-0.188c0.026-0.031,0.05-0.063,0.079-0.09c0.063-0.059,0.131-0.101,0.205-0.141
		c0.031-0.017,0.059-0.038,0.09-0.051c0.111-0.044,0.23-0.072,0.356-0.072s0.245,0.028,0.355,0.072
		c0.033,0.013,0.061,0.035,0.092,0.052c0.073,0.039,0.143,0.081,0.204,0.14c0.029,0.025,0.054,0.06,0.079,0.091
		c0.05,0.058,0.093,0.118,0.126,0.187c0.021,0.041,0.036,0.082,0.052,0.125c0.011,0.033,0.031,0.063,0.039,0.099
		c-0.002,0.012-0.011,0.021-0.014,0.03c0.013,0.062,0.036,0.114,0.036,0.18c0,0.532-0.436,0.97-0.97,0.97
		c-0.535,0-0.971-0.438-0.971-0.97c0-0.063,0.023-0.117,0.035-0.179c-0.003-0.012-0.011-0.021-0.013-0.032
		c0.008-0.034,0.028-0.063,0.04-0.099C29.157,744.799,29.172,744.759,29.192,744.719z"/>
	<path fill="#34859E" d="M15.219,746.409c0.694,0,1.261-0.566,1.261-1.26c0-0.694-0.565-1.263-1.261-1.263
		c-0.696,0-1.26,0.566-1.26,1.263C13.958,745.843,14.524,746.409,15.219,746.409z M14.271,744.939
		c0.007-0.034,0.028-0.063,0.039-0.098c0.016-0.044,0.03-0.085,0.051-0.126c0.034-0.066,0.077-0.128,0.125-0.186
		c0.027-0.032,0.052-0.064,0.082-0.093c0.062-0.058,0.129-0.1,0.203-0.139c0.031-0.017,0.059-0.039,0.091-0.052
		c0.111-0.044,0.229-0.072,0.356-0.072c0.127,0,0.246,0.028,0.356,0.072c0.032,0.013,0.06,0.035,0.091,0.052
		c0.073,0.039,0.143,0.081,0.204,0.14c0.029,0.025,0.054,0.06,0.08,0.091c0.049,0.059,0.092,0.119,0.126,0.188
		c0.021,0.04,0.035,0.08,0.05,0.123c0.012,0.033,0.032,0.063,0.04,0.1c-0.002,0.012-0.011,0.021-0.014,0.031
		c0.012,0.062,0.036,0.114,0.036,0.179c0,0.532-0.436,0.97-0.971,0.97c-0.534,0-0.97-0.438-0.97-0.97
		c0-0.063,0.023-0.118,0.036-0.18C14.281,744.96,14.274,744.951,14.271,744.939z"/>
	<path fill="#54AFCA" d="M26.802,746.046c0.773,0,1.405,0.612,1.447,1.377l0.006,0.006l0.764-4.538L26.802,746.046z"/>
	<path fill="#54AFCA" d="M16.249,742.891l0.802,4.538l0.006-0.006c0.042-0.765,0.674-1.377,1.447-1.377L16.249,742.891z"/>
	<path fill="#CCCCCC" d="M14.771,744.303c0.031-0.017,0.059-0.039,0.091-0.052C14.829,744.264,14.802,744.286,14.771,744.303z"/>
	<path fill="#CCCCCC" d="M14.487,744.532c0.027-0.031,0.052-0.064,0.082-0.095C14.537,744.468,14.514,744.5,14.487,744.532z"/>
	<path fill="#CCCCCC" d="M14.31,744.844c0.016-0.044,0.031-0.086,0.051-0.126C14.341,744.759,14.325,744.8,14.31,744.844z"/>
	<path fill="#CCCCCC" d="M15.575,744.251c0.032,0.013,0.06,0.035,0.091,0.052C15.635,744.286,15.608,744.264,15.575,744.251z"/>
	<path fill="#CCCCCC" d="M15.219,746.119c0.535,0,0.971-0.438,0.971-0.97c0-0.063-0.023-0.117-0.036-0.179
		c-0.108,0.417-0.482,0.729-0.935,0.729c-0.453,0-0.826-0.313-0.934-0.729c-0.013,0.062-0.036,0.114-0.036,0.18
		C14.248,745.684,14.684,746.119,15.219,746.119z"/>
	<path fill="#CCCCCC" d="M15.87,744.44c0.029,0.025,0.054,0.06,0.08,0.091C15.924,744.5,15.9,744.468,15.87,744.44z"/>
	<path fill="#CCCCCC" d="M16.076,744.719c0.02,0.039,0.035,0.08,0.05,0.123C16.112,744.799,16.097,744.759,16.076,744.719z"/>
	<path fill="#CCCCCC" d="M29.604,744.302c0.031-0.016,0.059-0.038,0.09-0.051C29.661,744.264,29.635,744.285,29.604,744.302z"/>
	<path fill="#CCCCCC" d="M29.32,744.53c0.026-0.03,0.051-0.063,0.079-0.09C29.369,744.468,29.346,744.499,29.32,744.53z"/>
	<path fill="#CCCCCC" d="M30.908,744.718c0.02,0.04,0.035,0.082,0.051,0.125C30.944,744.8,30.928,744.759,30.908,744.718z"/>
	<path fill="#CCCCCC" d="M30.406,744.251c0.033,0.013,0.061,0.035,0.092,0.052C30.466,744.286,30.44,744.264,30.406,744.251z"/>
	<path fill="#CCCCCC" d="M30.051,745.701c-0.452,0-0.827-0.313-0.935-0.729c-0.012,0.062-0.036,0.114-0.036,0.179
		c0,0.532,0.436,0.97,0.971,0.97c0.534,0,0.97-0.438,0.97-0.97c0-0.063-0.023-0.118-0.036-0.18
		C30.877,745.39,30.502,745.701,30.051,745.701z"/>
	<path fill="#CCCCCC" d="M29.142,744.842c0.014-0.043,0.03-0.084,0.05-0.123C29.172,744.759,29.157,744.799,29.142,744.842z"/>
	<path fill="#CCCCCC" d="M30.701,744.44c0.029,0.025,0.054,0.06,0.079,0.091C30.755,744.5,30.732,744.468,30.701,744.44z"/>
	<path fill="#E6E6E6" d="M15.219,745.701c0.452,0,0.826-0.313,0.935-0.729c0.004-0.012,0.012-0.021,0.014-0.032
		c-0.008-0.034-0.028-0.063-0.04-0.099c-0.015-0.043-0.03-0.084-0.05-0.123c-0.034-0.066-0.077-0.129-0.126-0.188
		c-0.026-0.031-0.051-0.063-0.08-0.093c-0.062-0.057-0.13-0.099-0.204-0.138c-0.031-0.017-0.059-0.039-0.091-0.052
		c-0.111-0.044-0.23-0.072-0.356-0.072s-0.245,0.028-0.356,0.072c-0.032,0.013-0.061,0.035-0.091,0.052
		c-0.073,0.039-0.143,0.081-0.203,0.138c-0.029,0.027-0.055,0.063-0.082,0.094c-0.048,0.058-0.091,0.117-0.125,0.186
		c-0.021,0.04-0.036,0.082-0.051,0.126c-0.011,0.033-0.032,0.063-0.039,0.097c0.002,0.013,0.011,0.021,0.014,0.031
		C14.392,745.39,14.767,745.701,15.219,745.701z"/>
	<path fill="#E6E6E6" d="M29.115,744.973c0.107,0.418,0.482,0.729,0.935,0.729c0.453,0,0.827-0.313,0.934-0.729
		c0.003-0.012,0.012-0.021,0.014-0.03c-0.007-0.034-0.028-0.063-0.039-0.099c-0.016-0.043-0.031-0.085-0.051-0.125
		c-0.035-0.066-0.077-0.129-0.127-0.187c-0.025-0.031-0.05-0.063-0.079-0.091c-0.062-0.059-0.131-0.101-0.204-0.14
		c-0.031-0.017-0.059-0.039-0.092-0.052c-0.11-0.044-0.229-0.072-0.355-0.072s-0.246,0.028-0.356,0.072
		c-0.032,0.013-0.06,0.035-0.09,0.051c-0.074,0.04-0.144,0.082-0.205,0.141c-0.028,0.025-0.053,0.06-0.079,0.09
		c-0.05,0.059-0.093,0.119-0.127,0.188c-0.02,0.039-0.035,0.08-0.05,0.123c-0.012,0.033-0.032,0.063-0.04,0.1
		C29.105,744.951,29.113,744.961,29.115,744.973z"/>
	<path fill="#B3B3B3" d="M32.244,749.535c-0.031-0.152-0.092-0.292-0.167-0.424C32.153,749.242,32.214,749.384,32.244,749.535z"/>
	<path fill="#B3B3B3" d="M14.248,751.408c0.066,0.01,0.133,0.021,0.202,0.021h2.964h0.206h10.027h0.206h2.964
		c0.069,0,0.136-0.011,0.202-0.021c0.356-0.051,0.669-0.229,0.895-0.489c0.221-0.255,0.358-0.583,0.358-0.945v-0.146
		c0-0.1-0.01-0.196-0.028-0.29c-0.137,0.527-0.726,0.927-1.427,0.927h-3.17h-1.396c-0.086,0.031-0.177,0.058-0.274,0.058h-1.584H24
		h-2.809h-0.395h-1.584c-0.097,0-0.188-0.024-0.274-0.058H17.62h-3.17c-0.701,0-1.29-0.397-1.427-0.927
		c-0.019,0.094-0.028,0.19-0.028,0.29v0.146c0,0.362,0.139,0.69,0.358,0.945C13.579,751.18,13.892,751.357,14.248,751.408z"/>
	<path fill="#B3B3B3" d="M30.819,748.37c0.161,0,0.313,0.033,0.458,0.082C31.132,748.402,30.98,748.37,30.819,748.37z"/>
	<path fill="#B3B3B3" d="M13.221,749.057c0.076-0.119,0.171-0.229,0.278-0.32C13.392,748.828,13.298,748.936,13.221,749.057z"/>
	<path fill="#B3B3B3" d="M13.992,748.452c0.145-0.049,0.297-0.082,0.458-0.082C14.289,748.37,14.137,748.402,13.992,748.452z"/>
	<path fill="#B3B3B3" d="M13.559,748.685c0.112-0.088,0.236-0.159,0.371-0.214C13.795,748.523,13.672,748.597,13.559,748.685z"/>
	<path fill="#B3B3B3" d="M31.77,748.734c0.107,0.094,0.202,0.199,0.278,0.32C31.971,748.936,31.877,748.828,31.77,748.734z"/>
	<path fill="#B3B3B3" d="M13.191,749.111c-0.074,0.132-0.136,0.271-0.167,0.424C13.055,749.384,13.116,749.242,13.191,749.111z"/>
	<path fill="#B3B3B3" d="M31.339,748.471c0.135,0.055,0.258,0.126,0.371,0.214C31.597,748.597,31.474,748.523,31.339,748.471z"/>
	<path fill="#CCCCCC" d="M32.244,749.535c-0.031-0.151-0.093-0.293-0.167-0.424c-0.011-0.021-0.02-0.037-0.03-0.057
		c-0.076-0.121-0.171-0.229-0.278-0.32c-0.02-0.02-0.04-0.033-0.06-0.052c-0.112-0.088-0.236-0.161-0.371-0.214
		c-0.021-0.008-0.041-0.012-0.063-0.019c-0.145-0.049-0.297-0.082-0.458-0.082h-3.17v-0.22c0-0.803-0.654-1.455-1.456-1.455h-7.116
		c-0.802,0-1.456,0.653-1.456,1.455v0.22h-3.17c-0.161,0-0.313,0.033-0.458,0.082c-0.021,0.007-0.042,0.011-0.063,0.019
		c-0.135,0.053-0.258,0.126-0.371,0.214c-0.021,0.019-0.04,0.032-0.06,0.052c-0.107,0.094-0.202,0.199-0.278,0.32
		c-0.011,0.02-0.02,0.036-0.03,0.057c-0.074,0.131-0.136,0.271-0.167,0.424c0,0.001,0,0.001,0,0.001l0,0
		c0.137,0.525,0.726,0.927,1.427,0.927h3.17h1.318c-0.287-0.104-0.491-0.365-0.522-0.68h2.381v0.733h0.395v-0.733H24v0.733h0.395
		v-0.733h2.381c-0.031,0.313-0.235,0.575-0.522,0.68h1.396h3.17C31.52,750.463,32.109,750.063,32.244,749.535L32.244,749.535
		C32.245,749.536,32.245,749.536,32.244,749.535z M29.808,749.189h0.944c0.194,0,0.255,0.091,0.245,0.234l-0.018,0.248
		c-0.009,0.13-0.107,0.235-0.239,0.235h-0.92c-0.132,0-0.23-0.105-0.239-0.235l-0.018-0.248
		C29.552,749.28,29.601,749.189,29.808,749.189z M24,747.441v0.733h-2.809v-0.733H24z M24.395,747.441h1.584
		c0.419,0,0.756,0.324,0.797,0.733h-2.381V747.441z M20.798,748.177h-2.381c0.042-0.409,0.378-0.733,0.797-0.733h1.584V748.177z
		 M18.401,748.572h2.397v0.813h-2.397C18.401,748.695,18.401,749.265,18.401,748.572z M21.192,748.572H24v0.813h-2.809
		L21.192,748.572L21.192,748.572z M24.395,748.572h2.397c0,0.69,0,0.123,0,0.813h-2.397V748.572z M14.517,749.189h0.944
		c0.194,0,0.255,0.091,0.245,0.234l-0.018,0.248c-0.009,0.13-0.107,0.235-0.239,0.235h-0.92c-0.132,0-0.23-0.105-0.239-0.235
		l-0.018-0.248C14.262,749.28,14.31,749.189,14.517,749.189z"/>
	<path fill="#E6E6E6" d="M14.53,749.909h0.92c0.132,0,0.23-0.105,0.239-0.235l0.018-0.248c0.01-0.146-0.051-0.234-0.245-0.234
		h-0.944c-0.207,0-0.255,0.091-0.245,0.234l0.018,0.248C14.298,749.804,14.397,749.909,14.53,749.909z"/>
	<path fill="#E6E6E6" d="M29.82,749.909h0.921c0.132,0,0.23-0.105,0.239-0.235l0.018-0.248c0.01-0.146-0.051-0.234-0.245-0.234
		h-0.944c-0.207,0-0.255,0.091-0.245,0.234l0.018,0.248C29.589,749.804,29.688,749.909,29.82,749.909z"/>
	<path fill="#4D4D4D" d="M26.777,749.783h-2.381v0.733h1.584c0.098,0,0.188-0.022,0.274-0.056
		C26.54,750.358,26.744,750.098,26.777,749.783z"/>
	<rect x="21.192" y="749.783" fill="#4D4D4D" width="2.809" height="0.733"/>
	<path fill="#4D4D4D" d="M20.798,749.783h-2.381c0.032,0.313,0.235,0.575,0.522,0.68c0.086,0.031,0.178,0.057,0.274,0.057h1.584
		L20.798,749.783L20.798,749.783z"/>
	<path fill="#4D4D4D" d="M20.798,748.572h-2.397c0,0.69,0,0.123,0,0.813h2.397V748.572z"/>
	<path fill="#4D4D4D" d="M18.416,748.177h2.381v-0.733h-1.584C18.794,747.441,18.458,747.768,18.416,748.177z"/>
	<path fill="#4D4D4D" d="M25.979,747.441h-1.584v0.733h2.381C26.735,747.768,26.399,747.441,25.979,747.441z"/>
	<rect x="21.192" y="748.572" fill="#4D4D4D" width="2.809" height="0.813"/>
	<rect x="21.192" y="747.441" fill="#4D4D4D" width="2.809" height="0.733"/>
	<path fill="#4D4D4D" d="M26.792,748.572h-2.397v0.813h2.397C26.792,748.695,26.792,749.265,26.792,748.572z"/>
	<path fill="#87BECF" d="M22.082,741.902l-0.566-0.039l-0.056-0.004l-0.734-0.053l-0.787-0.055l-0.35-0.024l0.568-0.114l0.311-0.063
		l-0.02-0.096c-0.012-0.002-0.029-0.001-0.041-0.002c-0.525-0.07-1.904,0.182-2.718,0.472c-0.168,0.061-0.319,0.121-0.426,0.182
		l0.021,0.097l0.378-0.077l1.278-0.262c0.011,0.005,0.019,0.014,0.029,0.015l0.703,0.049l0.787,0.056l0.767,0.054l0.842,0.059
		c0.051,0.004,0.094-0.035,0.1-0.085c0-0.001,0.001-0.002,0.001-0.003C22.173,741.951,22.134,741.906,22.082,741.902z"/>
	<path fill="#87BECF" d="M27.993,742.498l-0.313-0.095l-2.08-0.629l0.898,0.021l0.002-0.098c-0.168-0.07-0.476-0.122-0.83-0.157
		c-0.25-0.025-0.521-0.042-0.799-0.047c-0.322-0.006-0.645,0.001-0.93,0.021c-0.039,0.003-0.069,0.008-0.106,0.014
		c-0.232,0.021-0.44,0.052-0.584,0.096l-0.002,0.097l0.362,0.009l0.233,0.007l0.629,0.015l0.466,0.011
		c0.01,0.007,0.015,0.019,0.025,0.021l0.227,0.066l1.782,0.539l0.964,0.292c0.047,0.017,0.097-0.013,0.113-0.058
		c0.001-0.002,0.003-0.003,0.004-0.005C28.071,742.566,28.042,742.514,27.993,742.498z"/>
</g>
</svg>
