<?xml version="1.0" encoding="utf-8"?>
<!-- Generator: Adobe Illustrator 18.0.0, SVG Export Plug-In . SVG Version: 6.00 Build 0)  -->
<!DOCTYPE svg PUBLIC "-//W3C//DTD SVG 1.1//EN" "http://www.w3.org/Graphics/SVG/1.1/DTD/svg11.dtd">
<svg version="1.1" id="Calque_1" xmlns="http://www.w3.org/2000/svg" xmlns:xlink="http://www.w3.org/1999/xlink" x="0px" y="0px"
	 viewBox="0 0 422 60" enable-background="new 0 0 422 60" xml:space="preserve">
<g>
	<g>
		<path fill="#F6F6F6" d="M88.6,31.4H67v21h24.8V54H65.3V9h26.5v1.7H67v19h21.6V31.4z"/>
		<path fill="#F6F6F6" d="M134.9,54h-1.7l-28.9-41.9l-0.2,0.1V54h-1.7V9h1.7L133,50.8l0.2-0.1V9h1.7V54z"/>
		<path fill="#F6F6F6" d="M152.3,54h-1.7V9h1.7V54z"/>
		<path fill="#F6F6F6" d="M199.9,48c-0.9,1.6-2.8,3.1-5.5,4.6c-2.7,1.4-6,2.1-9.9,2.1c-5.2,0-9.3-1.8-12.5-5.5
			c-3.2-3.7-4.8-8.4-4.8-14.3v-7.4c0-5.6,1.6-10.2,4.7-13.8c3.1-3.6,7.2-5.3,12.1-5.3c4.8,0,8.6,1.2,11.5,3.7
			c2.9,2.5,4.2,5.6,4.1,9.5l-0.1,0.2h-1.4c0-3.4-1.2-6.3-3.7-8.5C192,11.1,188.5,10,184,10c-4.6,0-8.2,1.6-11,4.9
			c-2.8,3.2-4.2,7.4-4.2,12.5v7.4c0,5.4,1.4,9.7,4.3,13.1c2.9,3.4,6.7,5.1,11.4,5.1c3.6,0,6.6-0.6,8.9-1.8s3.9-2.5,4.8-4V34.4h-13.8
			v-1.7h15.4V48z"/>
		<path fill="#F6F6F6" d="M235.6,51.4h0.2L254.6,9h1.9v45h-1.7V13.1l-0.2,0L236.4,54H235l-18.6-41.8l-0.2,0V54h-1.7V9h2.3
			L235.6,51.4z"/>
		<path fill="#F6F6F6" d="M295.3,40.6h-22l-5,13.4h-1.8l16.8-45h2l16.8,45h-1.8L295.3,40.6z M273.9,38.9h20.7l-9.4-25.2l-0.9-2.6
			h-0.2l-0.8,2.6L273.9,38.9z"/>
		<path fill="#F6F6F6" d="M310.8,14.2l-1.5,8.4h-1.5l1.4-8.3V9h1.7V14.2z"/>
		<path fill="#F6F6F6" d="M354.8,12.2h-15.3V54h-3.7V12.2h-15.9V9h34.9V12.2z"/>
		<path fill="#F6F6F6" d="M368.9,54h-3.7V9h3.7V54z"/>
		<path fill="#F6F6F6" d="M414.6,40l0.1,0.2c0.1,4.4-1.4,7.9-4.3,10.6s-6.9,4-11.7,4c-5,0-9-1.8-12.1-5.4c-3.1-3.6-4.6-8.3-4.6-14
			v-7.3c0-5.7,1.5-10.4,4.6-14c3.1-3.6,7.1-5.5,12.1-5.5c4.9,0,8.8,1.3,11.7,3.9c2.9,2.6,4.4,6.1,4.3,10.6l-0.1,0.2h-3.5
			c0-3.6-1.1-6.5-3.3-8.5c-2.2-2-5.3-3-9.2-3c-3.9,0-7.1,1.5-9.5,4.6c-2.4,3-3.6,7-3.6,11.7v7.4c0,4.8,1.2,8.8,3.6,11.8
			c2.4,3,5.5,4.6,9.5,4.6c3.9,0,6.9-1,9.2-3c2.2-2,3.3-4.9,3.3-8.6H414.6z"/>
	</g>
	<g>
		<path fill="#F6F6F6" d="M31.1,33.7c-0.1-0.4-0.5-0.8-1-0.8l-0.2,0c-0.3,0-0.5,0.2-0.7,0.4c-0.2,0.2-0.2,0.5-0.2,0.8l10.6,18.2
			H10.9l21.5-28.1c0.3-0.5,0.3-1.1-0.2-1.5c-0.4-0.3-1.1-0.2-1.5,0.2L7.9,52.8c-0.2,0.3-0.3,0.7-0.1,1.1c0.2,0.4,0.5,0.6,0.9,0.6
			h32.4c0.3,0,0.6-0.1,0.8-0.4c0.2-0.2,0.3-0.6,0.2-0.9L31.1,33.7z"/>
		<path fill="#F6F6F6" d="M35.5,8.6h-0.8H31H8.9C8.5,8.6,8.2,8.8,8,9.1c-0.2,0.3-0.2,0.7-0.1,1l9.4,21.8l0,0l0.6,1.3
			c0.2,0.5,0.8,0.7,1.3,0.5l0.1,0c0.5-0.2,0.7-0.8,0.5-1.3l-0.5-1.2c0-0.1-0.1-0.2-0.1-0.3l-1.1-2.6c0,0,0,0,0,0l-7.6-17.6H31
			c0,0,0,0,0,0h4.5c0.5,0,1-0.5,1-1V9.6C36.5,9,36,8.6,35.5,8.6z"/>
	</g>
</g>
</svg>
