<?xml version="1.0" encoding="utf-8"?>
<!-- Generator: Adobe Illustrator 18.0.0, SVG Export Plug-In . SVG Version: 6.00 Build 0)  -->
<!DOCTYPE svg PUBLIC "-//W3C//DTD SVG 1.1//EN" "http://www.w3.org/Graphics/SVG/1.1/DTD/svg11.dtd">
<svg version="1.1" id="Calque_1" xmlns="http://www.w3.org/2000/svg" xmlns:xlink="http://www.w3.org/1999/xlink" x="0px" y="0px"
	 viewBox="0 0 1190.6 841.9" enable-background="new 0 0 1190.6 841.9" xml:space="preserve">
<g>
	<g>
		<path fill="#F5F5F5" d="M653.4,256.7c-1.3-4.1-5-7.2-9.4-7.2h-1.6c-2.5,0.3-5,1.9-6.3,4.1c-1.6,2.2-2.2,4.7-1.6,7.2l98.6,169.8
			H465.4l200.6-262c3.1-4.4,2.5-10.4-1.9-13.9c-4.1-3.1-10.7-2.2-13.9,1.9L437.6,434.3c-2.2,3.1-2.5,6.9-0.9,10.4
			c1.6,3.5,5,5.4,8.8,5.4h302.4c2.8,0,5.7-1.3,7.6-3.5c1.9-2.2,2.8-5,2.2-7.9L653.4,256.7z"/>
		<path fill="#F5F5F5" d="M694.3,22.7h-6.9h-34.6H446.5c-3.5,0-6.3,1.6-8.2,4.4c-1.9,2.8-2.2,6.3-0.6,9.4l87.9,203.1l0.3,0.3
			l5.4,12.6c1.9,4.7,7.6,6.9,12.3,4.7l0.9-0.3c4.7-1.9,6.9-7.6,4.7-12.3l-4.7-11.3c-0.3-0.9-0.6-1.9-1.3-2.8L532.4,206l0,0
			L461.9,42.2h190.6h0.3h41.6c5,0,9.4-4.1,9.4-9.4v-1.3C703.5,26.8,699.4,22.7,694.3,22.7z"/>
	</g>
	<g>
		<path fill="#F5F5F5" d="M151.7,666.1H88.3v61.4h72.8v5H83.3v-132h77.5v5H88.3v55.7h63.3V666.1z"/>
		<path fill="#F5F5F5" d="M287.1,732.3h-4.7l-84.7-122.8l-0.6,0.3v122.5h-5v-132h5l84.7,122.5l0.6-0.3V600.3h5v132H287.1z"/>
		<path fill="#F5F5F5" d="M338.4,732.3h-5v-132h5V732.3z"/>
		<path fill="#F5F5F5" d="M477.6,714.6c-2.8,4.7-8.2,9.1-16.1,13.2c-7.9,4.1-17.6,6.3-29,6.3c-15.1,0-27.4-5.4-36.9-16.1
			s-14.2-24.9-14.2-41.9v-21.4c0-16.7,4.4-29.9,13.5-40.3c9.1-10.4,21.1-15.7,35.6-15.7c14.2,0,25.2,3.8,33.7,11
			c8.5,7.2,12.3,16.7,12,28l-0.3,0.6H472c0-10.1-3.5-18.3-10.7-24.9c-7.2-6.3-17.3-9.8-30.6-9.8s-23.9,4.7-32.1,14.2
			c-8.2,9.4-12.3,21.7-12.3,36.9v21.7c0,15.7,4.1,28.3,12.6,38.4c8.5,9.8,19.5,14.8,33.4,14.8c10.7,0,19.2-1.6,26.1-5
			s11.7-7.2,13.9-12v-37.5H432v-5h45.7V714.6z"/>
		<path fill="#F5F5F5" d="M582.2,724.7h0.6L638,600.6h5.7v132h-5V612.9H638l-53.5,120h-3.8l-54.5-122.5h-0.6v122.5h-5v-132h6.9
			L582.2,724.7z"/>
		<path fill="#F5F5F5" d="M757.3,692.9h-64.3l-14.8,39.4h-5.4l49.1-132h6l49.4,132h-5.4L757.3,692.9z M694.6,688.2h60.8l-27.7-73.7
			l-2.5-7.6h-0.6l-2.5,7.6L694.6,688.2z"/>
		<path fill="#F5F5F5" d="M803,615.4l-4.4,24.6h-4.4l4.1-24.3v-15.4h5v15.1H803z"/>
		<path fill="#F5F5F5" d="M931.8,609.8h-45v122.5h-10.7V609.8h-46.6v-9.1h102v9.1H931.8z"/>
		<path fill="#F5F5F5" d="M973.1,732.3h-11v-132h11V732.3z"/>
		<path fill="#F5F5F5" d="M1106.9,691l0.3,0.6c0.3,12.9-4.1,23.3-12.6,30.9c-8.8,7.9-20.2,11.7-34.3,11.7
			c-14.8,0-26.5-5.4-35.6-15.7c-9.1-10.7-13.5-24.3-13.5-41.3v-21.4c0-16.7,4.4-30.6,13.5-41.3c9.1-10.7,20.8-16.1,35.6-16.1
			c14.2,0,25.8,3.8,34.3,11.3c8.5,7.6,12.9,18,12.6,31.2l-0.3,0.6h-10.1c0-10.7-3.1-18.9-9.8-24.9c-6.6-6-15.4-8.8-26.8-8.8
			c-11.7,0-20.8,4.4-27.7,13.5c-6.9,8.8-10.4,20.5-10.4,34.3v21.7c0,14.2,3.5,25.5,10.4,34.6c6.9,8.8,16.4,13.2,27.7,13.2
			c11.3,0,20.5-2.8,26.8-8.8c6.6-5.7,9.8-14.2,9.8-25.2h10.1V691z"/>
	</g>
	<g>
		<path fill="#DADADA" d="M86.8,791.5v-2.2h12.9c6,0,10.7,4.4,10.7,10.1s-4.7,10.1-10.4,10.1h-9.8v9.1h-2.5v-27.1L86.8,791.5
			L86.8,791.5z M90.2,807.6h9.4c4.7,0,8.5-3.5,8.5-7.9s-3.8-7.9-8.5-7.9h-9.4V807.6z"/>
		<path fill="#DADADA" d="M137.5,815.4v3.5H117v-29.3h2.2v27.1H135v-1.3H137.5z"/>
		<path fill="#DADADA" d="M169,804.1c0,8.2-6.6,15.1-14.8,15.1s-14.8-6.9-14.8-15.1c0-8.2,6.6-15.1,14.8-15.1S169,795.6,169,804.1z
			 M154.5,817c6.6,0,12.3-5.7,12.3-12.9c0-7.2-5.7-12.9-12.3-12.9s-12.6,5.7-12.6,12.9C141.9,811.3,147.6,817,154.5,817z"/>
		<path fill="#DADADA" d="M196.1,815.4v-25.8h2.2v29.9h-2.2l-18-26.5v25.8h-2.2v-27.1H175v-2.2h3.5L196.1,815.4z"/>
		<path fill="#DADADA" d="M207.4,804.1c0,7.2,5.7,12.9,12.9,12.9c3.5,0,7.9-2.5,9.4-4.7v-4.7h-6v-2.2h8.2v13.5h-1.9l-0.3-4.1l0,0
			c-2.2,2.5-6,4.7-9.4,4.7c-8.5,0-15.1-6.9-15.1-15.1c0-8.5,6.9-15.1,15.1-15.1c4.1,0,7.6,1.6,10.4,4.1l0.3,0.3v1.9h-2.2v-0.9
			c-2.2-1.9-5-3.1-8.5-3.1C213.4,791.2,207.4,796.9,207.4,804.1z"/>
		<path fill="#DADADA" d="M241.1,802.8h11.3v2.2h-11.3v11.3h15.7v-1.3h2.2v3.5h-20.5v-27.1h-0.9v-2.2h19.5v3.5H255v-1.3h-13.5v11.3
			H241.1z"/>
		<path fill="#DADADA" d="M266.6,816.4h17.3v-1.3h2.2v3.5h-23v-1.3l19.2-25.8h-15.7v1.3h-2.2v-3.5h21.4v1.6L266.6,816.4z"/>
		<path fill="#DADADA" d="M290.9,802.8v-2.2h15.7v2.2H290.9z"/>
		<path fill="#DADADA" d="M323.6,815.4L335,789l2.2,0.9l-12.6,29.6H323l-12-27.7h-0.9v-2.2h2.2L323.6,815.4z"/>
		<path fill="#DADADA" d="M368.7,804.1c0,8.2-6.6,15.1-14.8,15.1s-14.8-6.9-14.8-15.1c0-8.2,6.6-15.1,14.8-15.1
			S368.7,795.6,368.7,804.1z M353.9,817c6.6,0,12.3-5.7,12.3-12.9c0-7.2-5.7-12.9-12.3-12.9c-6.6,0-12.6,5.7-12.6,12.9
			C341.6,811.3,347.2,817,353.9,817z"/>
		<path fill="#DADADA" d="M386.6,817c5,0,9.1-4.1,9.1-9.1v-18.6h2.2v18.6c0,6.3-5,11.3-11.3,11.3c-6.3,0-11.3-5-11.3-11.3v-16.4
			h-0.9v-2.2h3.5v18.6C377.5,812.9,381.6,817,386.6,817z"/>
		<path fill="#DADADA" d="M417.2,817c6.9,0,10.1-2.8,10.1-5.4c0-8.2-20.5-6-20.5-15.7c0-3.8,5-6.9,10.1-6.9c3.5,0,7.2,0.9,9.8,3.5
			l0.3,0.3v1.6h-2.2v-0.6c-2.2-1.9-5-2.5-7.9-2.5c-4.7,0-7.9,2.8-7.9,4.7c0,7.6,20.5,5.4,20.5,15.7c0,4.4-5,7.6-12.6,7.6
			c-6.3,0-10.4-2.5-12.3-4.7l-0.3-0.3v-1.6h2.2v0.9C408.3,814.8,411.2,817,417.2,817z"/>
		<path fill="#DADADA" d="M481.4,810.4c0,4.4-4.1,8.2-8.8,8.2h-13.9v-27.1h-0.9v-2.2h11.3c4.4,0,8.8,2.8,8.8,6.6
			c0,2.2-1.9,4.1-4.4,5.4l0,0C478.6,802.8,481.4,806.6,481.4,810.4z M468.2,800.6c4.7,0,7.6-1.9,7.6-4.4c0-2.2-2.8-4.4-6.6-4.4h-8.2
			v9.1h7.2V800.6z M461.3,816.4h11.3c3.8,0,6.6-2.8,6.6-6s-3.1-7.6-8.5-7.6h-9.8v13.5H461.3z"/>
		<path fill="#DADADA" d="M488,818.9v-29.3h2.2v29.3H488z"/>
		<path fill="#DADADA" d="M501.6,802.8h11.3v2.2h-11.3v11.3h15.7v-1.3h2.2v3.5h-20.5v-27.1h-0.9v-2.2h19.2v3.5h-2.2v-1.3h-13.5
			V802.8z"/>
		<path fill="#DADADA" d="M546.9,815.4v-25.8h2.2v29.9h-2.2l-18-26.5v25.8h-2.2v-27.1h-0.9v-2.2h3.8L546.9,815.4z"/>
		<path fill="#DADADA" d="M580.6,789.3v3.5h-2.2v-1.3h-9.1v27.1h-2.2v-27.1H558v1.3h-2.2v-3.5H580.6z"/>
		<path fill="#DADADA" d="M612.1,804.1c0,8.2-6.6,15.1-14.8,15.1s-14.8-6.9-14.8-15.1c0-8.2,6.6-15.1,14.8-15.1
			C605.8,789,612.1,795.6,612.1,804.1z M597.6,817c6.6,0,12.3-5.7,12.3-12.9c0-7.2-5.7-12.9-12.3-12.9c-6.6,0-12.6,5.7-12.6,12.9
			C585,811.3,590.7,817,597.6,817z M598.6,778.6l-7.9,6.3l-1.6-1.6l8.5-6.6h1.9l8.5,6.6l-1.3,1.6L598.6,778.6L598.6,778.6z"/>
		<path fill="#DADADA" d="M639.2,789.3v3.5H637v-1.3h-9.1v27.1h-2.2v-27.1h-9.1v1.3h-2.2v-3.5H639.2z"/>
		<path fill="#DADADA" d="M667.6,791.5v-2.2H678c8.5,0,15.4,6.6,15.4,14.8s-6.9,14.8-15.4,14.8h-9.4v-27.1h-0.9V791.5z M678,816.4
			c7.2,0,13.2-5.4,13.2-12.3c0-6.9-6-12.6-13.2-12.6h-7.2v24.9H678z"/>
		<path fill="#DADADA" d="M695.6,816.4h0.9l12-27.7h1.6l12.6,29.6l-2.2,0.9l-3.1-7.2h-16.7l-2.5,6.9h-2.2v-2.5H695.6z M709.1,792.8
			l-7.2,17h14.8L709.1,792.8z"/>
		<path fill="#DADADA" d="M748.8,815.4v-25.8h2.2v29.9h-2.5l-18-26.5v25.8h-2.2v-27.1h-0.9v-2.2h3.8L748.8,815.4z"/>
		<path fill="#DADADA" d="M770.2,817c6.9,0,10.1-2.8,10.1-5.4c0-8.2-20.5-6-20.5-15.7c0-3.8,5-6.9,10.1-6.9c3.5,0,7.2,0.9,9.8,3.5
			l0.3,0.3v1.6h-2.2v-0.6c-2.2-1.9-5-2.5-7.9-2.5c-4.7,0-7.9,2.8-7.9,4.7c0,7.6,20.5,5.4,20.5,15.7c0,4.4-5,7.6-12.6,7.6
			c-6.3,0-10.4-2.5-12.3-4.7l-0.3-0.3v-1.6h2.2v0.9C761.4,814.8,764.3,817,770.2,817z"/>
		<path fill="#DADADA" d="M832.3,815.4v3.5h-20.5v-29.3h2.2v27.1h15.7v-1.3H832.3z"/>
		<path fill="#DADADA" d="M839.8,774.2c0.9,0,1.9,0.9,1.9,1.9c0,2.8-1.6,5.7-3.8,7.9L837,783c1.3-1.3,2.2-2.8,2.2-5
			c-0.6-0.3-1.3-0.9-1.3-1.9C838,775.1,838.6,774.2,839.8,774.2z"/>
		<path fill="#DADADA" d="M846.8,816.4h0.9l12-27.7h1.6l12.6,29.6l-2.2,0.9l-3.1-7.2h-16.7l-2.8,6.6h-2.2L846.8,816.4L846.8,816.4z
			 M860.3,792.8l-7.2,17h14.8L860.3,792.8z"/>
		<path fill="#DADADA" d="M885.2,815.4l11.3-26.5l2.2,0.9l-12.6,29.6h-1.6l-12-27.7h-0.9v-2.2h2.2L885.2,815.4z"/>
		<path fill="#DADADA" d="M906.6,802.8H918v2.2h-11.3v11.3h15.7v-1.3h2.2v3.5h-20.5v-27.1h-0.9v-2.2h19.2v3.5h-2.2v-1.3h-13.5
			L906.6,802.8L906.6,802.8z"/>
		<path fill="#DADADA" d="M951.7,815.4v-25.8h2.2v29.9h-2.2l-18-26.5v25.8h-2.2v-27.1h-0.9v-2.2h3.8L951.7,815.4z"/>
		<path fill="#DADADA" d="M985.7,789.3v3.5h-2.2v-1.3h-9.1v27.1h-2.2v-27.1H963v1.3h-2.2v-3.5H985.7z"/>
		<path fill="#DADADA" d="M1003.6,817c5,0,9.1-4.1,9.1-9.1v-18.6h2.2v18.6c0,6.3-5,11.3-11.3,11.3s-11.3-5-11.3-11.3v-16.4h-0.9
			v-2.2h3.5v18.6C994.5,812.9,998.6,817,1003.6,817z"/>
		<path fill="#DADADA" d="M1041.7,816.4l-4.7-5.7c-2.2-2.8-2.2-3.1-6.3-3.1h-4.4v11.3h-2.2v-27.1h-0.9v-2.2h10.7
			c7.2,0,10.7,4.1,10.7,8.5c0,3.8-2.5,7.6-7.9,8.8c0.6,0.6,1.6,1.3,2.2,2.5l4.7,5.7c0.9,1.3,1.3,1.6,2.2,1.6h0.9v2.2h-0.9
			C1043.9,818.9,1043.3,818.3,1041.7,816.4z M1042,798.1c0-3.1-2.5-6.3-8.5-6.3h-7.2v13.5h7.2C1038.9,805.4,1042,801.6,1042,798.1z"
			/>
		<path fill="#DADADA" d="M1055.6,802.8h11.3v2.2h-11.3v11.3h15.7v-1.3h2.2v3.5h-20.5v-27.1h-0.9v-2.2h19.2v3.5h-2.2v-1.3h-13.5
			V802.8L1055.6,802.8z"/>
		<path fill="#DADADA" d="M1104.1,815.4c0.9,0,1.9,0.9,1.9,1.9s-0.9,1.9-1.9,1.9c-0.9,0-1.9-0.9-1.9-1.9S1102.8,815.4,1104.1,815.4z
			 M1106.3,784.9v2.2h-1.3v22.7h-2.2v-24.9L1106.3,784.9L1106.3,784.9z"/>
	</g>
</g>
</svg>
