<?xml version="1.0" encoding="utf-8"?>
<!-- Generator: Adobe Illustrator 19.1.1, SVG Export Plug-In . SVG Version: 6.00 Build 0)  -->
<svg version="1.1" id="Calque_1" xmlns="http://www.w3.org/2000/svg" xmlns:xlink="http://www.w3.org/1999/xlink" x="0px" y="0px"
	 viewBox="0 0 249 700" style="enable-background:new 0 0 249 700;" xml:space="preserve">
<style type="text/css">
	.st0{fill:#F2AC71;}
	.st1{fill:#560F1E;}
	.st2{fill:#3A0A17;}
	.st3{fill:#211E1B;}
	.st4{fill:#383430;}
	.st5{fill:#CC8C58;}
	.st6{fill:#213954;}
	.st7{fill:#142530;}
	.st8{fill:#E8A370;}
	.st9{fill:#222A2B;}
	.st10{fill:#FFFFFF;}
	.st11{fill:#282516;}
</style>
<path class="st0" d="M190.4,391.6c-0.7,6.4,1.3,15.1,6.1,20.4s6.4,18.4,6.9,23.7c0.4,5.3-2,8.7-3.2,7.7c1.4,5.7-3.2,9.3-5.2,5.5
	c-1.1,4.3-5.7,6.9-6.1,0.1c-4.5,5.3-5.5-3.8-5.5-6.7c0.1-5.8-1.5-20.6-4.6-21.8c-3.6-1.3,0.7,14.3-2.8,14.4s-4.6-7.3-4.3-12.5
	c0.4-5.2-0.3-10.1,3.9-13.6c4.1-3.5,5.9-7.5,6.2-15.9C182.1,384.5,191.2,385.2,190.4,391.6z"/>
<path class="st1" d="M153.8,281.3c6.7,13.5,19.1,59.1,26.5,68.3c7.3,9.2,19.4-2.6,16.4-10.1s-18.2-87.6-24.4-93.9
	C166.2,239.5,147.1,267.8,153.8,281.3z"/>
<path class="st1" d="M176,343.8c1.6,6.4-1.1,59.1-1.1,59.1l20,0.5c0,0,1.6-49.1,1.4-59.3C196,331.4,171.1,323.7,176,343.8z"/>
<path class="st2" d="M180.2,399.1c-4.3,0-2.4-23.2-2.4-32.9s2.9-20.8,0.5-26.6c-0.6-1.3-1.4-3.6-2.4-6.6c-1.6,1.8-2.4,5.2-1.3,10.8
	c1.3,6.4-0.9,59.1-0.9,59.1l16.2,0.5v-0.2C186.2,402.3,183.9,399.1,180.2,399.1z"/>
<path class="st2" d="M178.3,339.6c-2.4-5.8-10.6-31.5-14-48.4c-1.2,1.1-2.4,2.3-3.4,3.6c5.4,19,12.5,47.8,17.1,54.9
	c0.3,0.5,0.7,0.9,1,1.3C179.3,346.4,179.4,342.3,178.3,339.6z"/>
<path class="st3" d="M169.2,645.9c4.7,3.4,21.6,6.9,24.3,8.9c5.5,4-0.3,9.7-12.6,10.1c-7.9,0.2-23.8-2.2-34.7-6.5
	c-6.1-2.4-10.6-5.4-11.2-8.9C133.5,639.8,158.9,638,169.2,645.9z"/>
<path class="st4" d="M193.3,658.7c1.4,1.9-1.5,5.8-12,6.1c-7.9,0.2-23.8-2.2-34.7-6.5c-6.1-2.4-10.6-5.4-11.2-8.9
	c0-0.2-0.1-0.4-0.1-0.6C153.9,658.9,180.4,661,193.3,658.7z"/>
<path class="st3" d="M83.9,645.9c-4.7,3.4-22,8.8-22.7,12.1c-1.3,6.5-1.3,6.5,10.9,6.9c7.9,0.2,23.8-2.2,34.7-6.5
	c6.1-2.4,10.6-5.4,11.2-8.9C119.6,639.8,94.1,638,83.9,645.9z"/>
<path class="st4" d="M61.1,658c-1.4,1.9,0.5,6.6,11,6.9c7.9,0.2,23.8-2.2,34.7-6.5c6.1-2.4,10.6-5.4,11.2-8.9c0-0.2,0.1-0.4,0.1-0.6
	C99.5,658.9,74,660.2,61.1,658z"/>
<path class="st1" d="M60.6,245.6c-6.2,6.3-21.4,86.4-24.4,93.9s9.1,19.3,16.4,10.1c7.4-9.2,19.8-54.8,26.5-68.3
	S66.7,239.5,60.6,245.6z"/>
<path class="st0" d="M45.6,393.4c0.6,6.1-1.2,14.3-5.8,19.4s-6.1,17.4-6.5,22.5s1.9,8.3,3,7.3c-1.3,5.4,3.1,8.8,5,5.2
	c1,4.1,5.4,6.6,5.8,0.1c4.3,5,5.3-3.6,5.2-6.4c-0.1-5.5,1.4-19.6,4.4-20.7c3.4-1.2-0.6,13.6,2.6,13.7c3.3,0.1,4.4-7,4.1-11.9
	s0.3-9.6-3.7-12.9c-3.9-3.4-5.6-7.1-5.9-15.1C53.5,386.7,44.9,387.3,45.6,393.4z"/>
<path class="st1" d="M36.6,344.1c-0.2,10.2,1.4,59.3,1.4,59.3l20-0.5c0,0-2.7-52.7-1.1-59.1C61.8,323.7,36.9,331.4,36.6,344.1z"/>
<path class="st2" d="M43,403.2v0.2l16.2-0.5c0,0-2.2-52.7-0.9-59.1c1.1-5.6,0.3-9-1.3-10.8c-1,3-1.8,5.3-2.4,6.6
	c-2.4,5.8,0.5,16.9,0.5,26.6s1.9,32.9-2.4,32.9C49,399.1,46.7,402.3,43,403.2z"/>
<path class="st2" d="M53.9,351c0.3-0.4,0.7-0.8,1-1.3c4.6-7.1,11.7-35.9,17.1-54.9c-1-1.3-2.2-2.5-3.4-3.6
	c-3.4,16.9-11.6,42.6-14,48.4C53.5,342.3,53.6,346.4,53.9,351z"/>
<path class="st0" d="M102.6,215.2c0,13-10.8,17.6-17.4,19.1c-6.6,1.6,37.1,36.3,37.1,34.3c0-1.9-3.1-63.2-3.1-63.2
	S109.6,206.3,102.6,215.2z"/>
<path class="st0" d="M132.5,215.2c0,13,10.8,17.6,17.4,19.1c6.6,1.6-37.1,36.3-37.1,34.3c0-1.9,3.1-63.2,3.1-63.2
	S125.6,206.3,132.5,215.2z"/>
<rect x="102.6" y="153.8" class="st0" width="29.9" height="91.6"/>
<polygon class="st5" points="103.2,190.3 131.5,190.3 131.5,207.1 103.2,221.2 "/>
<path class="st5" d="M106.6,186c7.3,3,13,2.5,18,0.5s5.1-0.5-0.8,2.5c-5,2.6-10.2,2.6-15.9-0.4C102.2,185.7,103.9,184.6,106.6,186z"
	/>
<path class="st6" d="M73.5,360.2c-3.2,24.3-4.8,72.5,1.6,118.1c6.5,45.6,9.7,116,9.7,133.8c0,17.7-3.2,30.9-3.2,30.9
	s3.8,3.5,16.7,3.5s19.4,0.5,19.4,0.5s-1.6-13.2-2.2-32.9c-0.5-19.8-4.8-106.9-4.3-137.3s-1.5-54.4,2.6-54.2c2.3,0.1,5.2,0.1,7.6,0
	c4.1-0.3,3.9,23.8,6.6,54.2c2.8,30.4,5,117.5,5.9,137.3s0.3,32.9,0.3,32.9s6.4-0.5,19.3-0.5c12.9,0,16.4-3.5,16.4-3.5
	s-4.2-13.2-5.5-30.9s-3.3-88.2-0.2-133.8s-0.6-93.8-5.6-118.1C155,361.8,77,361.8,73.5,360.2z"/>
<path class="st1" d="M62,243.2c-9,5.5,10.7,81.9,4.7,142c-0.6,6,15.4,12,49.7,11.2c34.3,0.8,50.3-5.2,49.7-11.2
	c-10.3-103.6,13.7-136.4,4.7-142c-8.6-5.3-20.2-11.6-32.4-15c-4,4.4-13,8.4-21.9,8.4s-16.6-3-20.7-7.4
	C83.5,232.6,70.6,237.9,62,243.2z"/>
<g>
	<path class="st7" d="M70.9,393.5c-0.8,24.5,0,55.2,4.1,84.8c6.5,45.6,9.7,116,9.7,133.8c0,17.7-3.2,30.9-3.2,30.9s3.8,3.5,16.7,3.5
		c2.3,0,4.3,0,6.2,0c-10.5-1.9-16.9-5.9-15.1-12.4c2.5-9-1.9-70.5-1.9-96.7C87.4,511.2,75.4,431.2,70.9,393.5L70.9,393.5z"/>
	<path class="st7" d="M112.6,423.4c0.3-0.5,0.7-0.8,1.1-0.8c2.3,0.1,5.2,0.1,7.6,0c4.1-0.3,3.9,23.8,6.6,54.2
		c2.8,30.4,5,117.5,5.9,137.3s0.3,32.9,0.3,32.9s6.4-0.5,19.3-0.5c6.3,0,10.3-0.8,12.8-1.7c-16.4,3.3-26.2-0.3-25.6-7.7
		c0.6-7.8-3.8-80.6-3.8-102.7c0-22.1-4.4-74.6-7-97.3c-2.5-22.7-8.2-17.9-17.8-16.1C112.3,421.8,112.5,422.6,112.6,423.4z"/>
</g>
<path class="st0" d="M48.9,118.6c6.1-1.5,13,4.6,15.6,13.6s-0.3,17.4-6.3,18.9c-6.1,1.5-13-4.6-15.6-13.6
	C40,128.5,42.9,120,48.9,118.6z"/>
<path class="st8" d="M49.9,123.3c4.3-1.1,9.4,3.3,11.2,9.7c1.8,6.4-0.2,12.5-4.6,13.6c-4.3,1.1-9.4-3.3-11.2-9.7
	C43.5,130.4,45.5,124.3,49.9,123.3z"/>
<path class="st0" d="M188,121.9c-6-1.8-13.2,4-16.2,12.8s-0.6,17.4,5.4,19.2s13.2-4,16.2-12.8C196.4,132.3,193.9,123.7,188,121.9z"
	/>
<path class="st8" d="M185,126c-4.7-1.4-10.5,3.1-12.9,10.2c-2.4,7-0.4,13.8,4.3,15.2s10.5-3.1,12.9-10.2
	C191.7,134.3,189.8,127.4,185,126z"/>
<path class="st0" d="M117.2,208.6c-12.3-0.3-46.4-19.2-55.6-32.2c-9.3-13-11.9-58.8-9.1-78.8s26.4-56.8,67.9-55.8
	c41.4,1,63.3,38.9,65.1,59s-3,65.7-12.9,78.2C162.6,191.6,129.5,208.9,117.2,208.6z"/>
<path class="st5" d="M112.4,134.2c-0.2,6.7-1,11.2-2.2,17c-1.2,5.7-4.5,11.2,1,13.5c5.5,2.4,8.3,2.4,12-0.6c3.8-3,3.1,0.3,0.5,2.2
	s-9.2,3.8-13.5,0.8c-4.4-3-5-0.5-2.1-14.4C111,138.8,112,129.6,112.4,134.2z"/>
<path class="st5" d="M106.1,186c7.2,3.2,12.9,2.8,18,1c5.1-1.9,5.1-0.4-0.8,2.5c-5,2.4-10.3,2.3-15.9-0.8
	C101.7,185.5,103.4,184.5,106.1,186z"/>
<path class="st9" d="M143.6,128.9c3.4,0.1,6,3.6,5.9,7.8s-3,7.6-6.3,7.5c-3.4-0.1-6-3.6-5.9-7.8S140.3,128.9,143.6,128.9z"/>
<path class="st10" d="M145.5,130.7c1.4,0,2.6,1.4,2.5,3c0,1.6-1.3,2.9-2.7,2.9s-2.6-1.4-2.5-3C142.8,132,144,130.7,145.5,130.7z"/>
<path class="st11" d="M135.5,122.5c5.3-0.3,11.9-1.7,17.5-0.5s7.2-0.4,0.6-3c-5.7-2.3-11.5-3.1-17.8-2.8
	C130.2,116.5,130.8,122.8,135.5,122.5z"/>
<path class="st9" d="M92.3,127.8c-3.4-0.1-6.2,3.3-6.3,7.5c-0.1,4.2,2.5,7.7,5.9,7.8s6.2-3.3,6.3-7.5
	C98.4,131.4,95.7,127.9,92.3,127.8z"/>
<path class="st10" d="M94.1,129.7c-1.4,0-2.7,1.3-2.7,2.9c-0.1,1.6,1.1,3,2.5,3s2.7-1.3,2.7-2.9C96.7,131.1,95.6,129.7,94.1,129.7z"
	/>
<path class="st11" d="M100.7,125c-5.2-0.6-11.8-2.3-17.4-1.3c-5.6,0.9-7.1-0.8-0.5-3.1c5.8-2,11.6-2.5,17.9-1.9
	C106.2,119.3,105.3,125.6,100.7,125z"/>
<path class="st5" d="M140.6,176.4c-3.3-0.3-4.7,3.4-15.5,2c-3-0.4-5.6-0.6-7.7-0.7c0-0.1,0-0.1,0-0.2c-0.4,0-0.9,0-1.4,0.1
	c-0.5,0-0.9-0.1-1.4-0.1c0,0.1,0,0.1,0,0.2c-2.2,0.1-4.7,0.2-7.7,0.5c-10.8,1-12.1-2.7-15.5-2.5c-4.3-0.2-3,2.8,0.8,3
	c3.8,0.3,8.9,1.5,14.7,1.5c2.4,0,5.7,0.2,9,0.2c3.3,0.1,6.6,0,9,0.1c5.8,0.2,10.9-0.9,14.7-1C143.5,179.3,144.9,176.4,140.6,176.4z"
	/>
<path class="st2" d="M62.4,279.7c3.2,28.9,8.8,70.6,5.1,106.5c-0.6,6,15.4,12,49.7,11.2c34.3,0.8,50.3-5.2,49.7-11.2
	c-2.3-23-4-57.8-1.8-80.7c0.3-3.3,1-6.7,1.4-9.8c-0.6-12.2-1.7-31.5,0.5-42.1c2.2-10.6-5,7-5.5,20.4s-2.8,38-2.2,54.7
	c0.5,16.7,3,47.1,0.5,56.6s-34.8,8.9-43.9,8.9s-23.8,1-32.4-2.4c-8.6-3.3-9.6-9.1-8.6-22.9s-3.5-42-5.1-59.1
	c-1.5-17.2-4.6-45.3-4.6-56.8c-1-5.1-2.4,4-2.4,11.7C62.8,268.2,62.8,273.9,62.4,279.7z"/>
<path id="cheveux" class="st11" d="M64.2,83.9c7.9-5.2,38.4-2.5,45.3,2c6.9,4.6,10.8,4.7,17.2,1c6.3-3.7,29.7-5,41.3-1.5
	c11.6,3.5,12.7,28.5,11.6,42.4c-1.1,13.8-3.6,21.8,0.6,29c2.3,4.1,6-29,7.1-42.2c1.1-13.2,13.1-27.4,7.3-45.8S176.5,42,179.4,49
	c2.9,7-10.4,9.8-25.7-3.1c-15.2-13-36.1-19.2-59.6-19.1C70.8,26.9,73,30,87.8,31c14.8,1,6.1,4.6-14.9,5.3c-21.1,0.7-28.1,3-40.8,9.7
	c-12.6,6.6-10.4,9.2,2.2,4.5s17.1-1.4,7,2c-8.6,3-20.7,19.7-11.3,13C39.7,58.9,40.7,70,43,79c1.7,6.5,8.4,9,8,24.2
	c-0.4,15.1-1.5,51.9,3.6,48C60.3,146.7,52.9,91.2,64.2,83.9z"/>
</svg>
