<?xml version="1.0" encoding="utf-8"?>
<!-- Generator: Adobe Illustrator 19.1.1, SVG Export Plug-In . SVG Version: 6.00 Build 0)  -->
<svg version="1.1" id="Calque_1" xmlns="http://www.w3.org/2000/svg" xmlns:xlink="http://www.w3.org/1999/xlink" x="0px" y="0px"
	 viewBox="-355 -70 249 700" style="enable-background:new -355 -70 249 700;" xml:space="preserve">
<style type="text/css">
	.st0{display:none;}
	.st1{display:inline;fill:#F2AC71;}
	.st2{display:inline;}
	.st3{fill:#0E2759;}
	.st4{fill:#0B1A33;}
	.st5{fill:#4E2700;}
	.st6{fill:#331A00;}
	.st7{fill:#F2AC71;}
	.st8{fill:#CC8C58;}
	.st9{fill:#282325;}
	.st10{fill:#0F0D0E;}
	.st11{fill:#E8A370;}
	.st12{fill:#222A2B;}
	.st13{fill:#FFFFFF;}
	.st14{fill:#282516;}
	.st15{fill:#545454;}
	.st16{fill:#454545;}
	.st17{fill:#B8B8B8;}
	.st18{opacity:0.2;fill:#D0F2FF;enable-background:new    ;}
</style>
<g id="brasNormal" class="st0">
	<path class="st1" d="M-168.3,325.7c-0.7,6.4,1.3,15.1,6.1,20.4s6.4,18.4,6.9,23.7c0.4,5.3-2,8.7-3.2,7.7c1.4,5.7-3.2,9.3-5.2,5.5
		c-1.1,4.3-5.7,6.9-6.1,0.1c-4.5,5.3-5.5-3.8-5.5-6.7c0.1-5.8-1.5-20.6-4.6-21.8c-3.6-1.3,0.7,14.3-2.8,14.4s-4.6-7.3-4.3-12.5
		c0.4-5.2-0.3-10.1,3.9-13.6c4.1-3.5,5.9-7.5,6.2-15.9C-176.6,318.6-167.5,319.3-168.3,325.7z"/>
	<g id="bras_x5F_normal" class="st2">
		<path class="st3" d="M-204.9,215.4c6.7,13.5,19.1,59.1,26.5,68.3c7.3,9.2,19.4-2.6,16.4-10.1s-18.2-87.6-24.4-93.9
			C-192.5,173.6-211.6,201.9-204.9,215.4z"/>
		<path class="st3" d="M-182.7,277.9c1.6,6.4-1.1,59.1-1.1,59.1l20,0.5c0,0,1.6-49.1,1.4-59.3C-162.7,265.5-187.6,257.8-182.7,277.9
			z"/>
		<path class="st4" d="M-178.5,333.2c-4.3,0-2.4-23.2-2.4-32.9s2.9-20.8,0.5-26.6c-0.6-1.3-1.4-3.6-2.4-6.6
			c-1.6,1.8-2.4,5.2-1.3,10.8c1.3,6.4-0.9,59.1-0.9,59.1l16.2,0.5v-0.2C-172.5,336.4-174.8,333.2-178.5,333.2z"/>
		<path class="st4" d="M-180.4,273.7c-2.4-5.8-10.6-31.5-14-48.4c-1.2,1.1-2.4,2.3-3.4,3.6c5.4,19,12.5,47.8,17.1,54.9
			c0.3,0.5,0.7,0.9,1,1.3C-179.4,280.5-179.3,276.4-180.4,273.7z"/>
	</g>
</g>
<g id="corps">
	<path class="st5" d="M-189.5,580c4.7,3.4,21.6,6.9,24.3,8.9c5.5,4-0.3,9.7-12.6,10.1c-7.9,0.2-23.8-2.2-34.7-6.5
		c-6.1-2.4-10.6-5.4-11.2-8.9C-225.2,573.9-199.8,572.1-189.5,580z"/>
	<path class="st6" d="M-165.4,592.8c1.4,1.9-1.5,5.8-12,6.1c-7.9,0.2-23.8-2.2-34.7-6.5c-6.1-2.4-10.6-5.4-11.2-8.9
		c0-0.2-0.1-0.4-0.1-0.6C-204.8,593-178.3,595.1-165.4,592.8z"/>
	<path class="st5" d="M-274.8,580c-4.7,3.4-22,8.8-22.7,12.1c-1.3,6.5-1.3,6.5,10.9,6.9c7.9,0.2,23.8-2.2,34.7-6.5
		c6.1-2.4,10.6-5.4,11.2-8.9C-239.1,573.9-264.6,572.1-274.8,580z"/>
	<path class="st6" d="M-297.6,592.1c-1.4,1.9,0.5,6.6,11,6.9c7.9,0.2,23.8-2.2,34.7-6.5c6.1-2.4,10.6-5.4,11.2-8.9
		c0-0.2,0.1-0.4,0.1-0.6C-259.2,593-284.7,594.3-297.6,592.1z"/>
	<path class="st3" d="M-298.1,179.7c-6.2,6.3-21.4,86.4-24.4,93.9s9.1,19.3,16.4,10.1c7.4-9.2,19.8-54.8,26.5-68.3
		C-272.9,201.9-292,173.6-298.1,179.7z"/>
	<path class="st7" d="M-313.1,327.5c0.6,6.1-1.2,14.3-5.8,19.4c-4.6,5.1-6.1,17.4-6.5,22.5s1.9,8.3,3,7.3c-1.3,5.4,3.1,8.8,5,5.2
		c1,4.1,5.4,6.6,5.8,0.1c4.3,5,5.3-3.6,5.2-6.4c-0.1-5.5,1.4-19.6,4.4-20.7c3.4-1.2-0.6,13.6,2.6,13.7c3.3,0.1,4.4-7,4.1-11.9
		s0.3-9.6-3.7-12.9c-3.9-3.4-5.6-7.1-5.9-15.1C-305.2,320.8-313.8,321.4-313.1,327.5z"/>
	<path class="st3" d="M-322.1,278.2c-0.2,10.2,1.4,59.3,1.4,59.3l20-0.5c0,0-2.7-52.7-1.1-59.1
		C-296.9,257.8-321.8,265.5-322.1,278.2z"/>
	<path class="st4" d="M-315.7,337.3v0.2l16.2-0.5c0,0-2.2-52.7-0.9-59.1c1.1-5.6,0.3-9-1.3-10.8c-1,3-1.8,5.3-2.4,6.6
		c-2.4,5.8,0.5,16.9,0.5,26.6s1.9,32.9-2.4,32.9C-309.7,333.2-312,336.4-315.7,337.3z"/>
	<path class="st4" d="M-304.8,285.1c0.3-0.4,0.7-0.8,1-1.3c4.6-7.1,11.7-35.9,17.1-54.9c-1-1.3-2.2-2.5-3.4-3.6
		c-3.4,16.9-11.6,42.6-14,48.4C-305.2,276.4-305.1,280.5-304.8,285.1z"/>
	<path class="st7" d="M-256.1,149.3c0,13-10.8,17.6-17.4,19.1c-6.6,1.6,37.1,36.3,37.1,34.3c0-1.9-3.1-63.2-3.1-63.2
		S-249.1,140.4-256.1,149.3z"/>
	<path class="st7" d="M-226.2,149.3c0,13,10.8,17.6,17.4,19.1c6.6,1.6-37.1,36.3-37.1,34.3c0-1.9,3.1-63.2,3.1-63.2
		S-233.1,140.4-226.2,149.3z"/>
	<rect x="-256.1" y="87.9" class="st7" width="29.9" height="91.6"/>
	<polygon class="st8" points="-255.5,124.4 -227.2,124.4 -227.2,141.2 -255.5,155.3 	"/>
	<path class="st8" d="M-252.1,120.1c7.3,3,13,2.5,18,0.5s5.1-0.5-0.8,2.5c-5,2.6-10.2,2.6-15.9-0.4
		C-256.5,119.8-254.8,118.7-252.1,120.1z"/>
	<path class="st9" d="M-285.2,294.3c-3.2,24.3-4.8,72.5,1.6,118.1c6.5,45.6,9.7,116,9.7,133.8c0,17.7-3.2,30.9-3.2,30.9
		s3.8,3.5,16.7,3.5c12.9,0,19.4,0.5,19.4,0.5s-1.6-13.2-2.2-32.9c-0.5-19.8-4.8-106.9-4.3-137.3s-1.5-54.4,2.6-54.2
		c2.3,0.1,5.2,0.1,7.6,0c4.1-0.3,3.9,23.8,6.6,54.2c2.8,30.4,5,117.5,5.9,137.3s0.3,32.9,0.3,32.9s6.4-0.5,19.3-0.5
		c12.9,0,16.4-3.5,16.4-3.5s-4.2-13.2-5.5-30.9s-3.3-88.2-0.2-133.8s-0.6-93.8-5.6-118.1C-203.7,295.9-281.7,295.9-285.2,294.3z"/>
	<path class="st3" d="M-296.7,177.3c-9,5.5,10.7,81.9,4.7,142c-0.6,6,15.4,12,49.7,11.2c34.3,0.8,50.3-5.2,49.7-11.2
		c-10.3-103.6,13.7-136.4,4.7-142c-8.6-5.3-20.2-11.6-32.4-15c-4,4.4-13,8.4-21.9,8.4s-16.6-3-20.7-7.4
		C-275.2,166.7-288.1,172-296.7,177.3z"/>
	<g>
		<path class="st10" d="M-287.8,327.6c-0.8,24.5,0,55.2,4.1,84.8c6.5,45.6,9.7,116,9.7,133.8c0,17.7-3.2,30.9-3.2,30.9
			s3.8,3.5,16.7,3.5c2.3,0,4.3,0,6.2,0c-10.5-1.9-16.9-5.9-15.1-12.4c2.5-9-1.9-70.5-1.9-96.7C-271.3,445.3-283.3,365.3-287.8,327.6
			L-287.8,327.6z"/>
		<path class="st10" d="M-246.1,357.5c0.3-0.5,0.7-0.8,1.1-0.8c2.3,0.1,5.2,0.1,7.6,0c4.1-0.3,3.9,23.8,6.6,54.2
			c2.8,30.4,5,117.5,5.9,137.3s0.3,32.9,0.3,32.9s6.4-0.5,19.3-0.5c6.3,0,10.3-0.8,12.8-1.7c-16.4,3.3-26.2-0.3-25.6-7.7
			c0.6-7.8-3.8-80.6-3.8-102.7s-4.4-74.6-7-97.3c-2.5-22.7-8.2-17.9-17.8-16.1C-246.4,355.9-246.2,356.7-246.1,357.5z"/>
	</g>
	<path class="st7" d="M-309.8,52.7c6.1-1.5,13,4.6,15.6,13.6s-0.3,17.4-6.3,18.9c-6.1,1.5-13-4.6-15.6-13.6S-315.8,54.1-309.8,52.7z
		"/>
	<path class="st11" d="M-308.8,57.4c4.3-1.1,9.4,3.3,11.2,9.7c1.8,6.4-0.2,12.5-4.6,13.6c-4.3,1.1-9.4-3.3-11.2-9.7
		C-315.2,64.5-313.2,58.4-308.8,57.4z"/>
	<path class="st7" d="M-170.7,56c-6-1.8-13.2,4-16.2,12.8s-0.6,17.4,5.4,19.2s13.2-4,16.2-12.8S-164.8,57.8-170.7,56z"/>
	<path class="st11" d="M-173.7,60.1c-4.7-1.4-10.5,3.1-12.9,10.2c-2.4,7-0.4,13.8,4.3,15.2s10.5-3.1,12.9-10.2
		C-167,68.4-168.9,61.5-173.7,60.1z"/>
	<path class="st7" d="M-241.5,142.7c-12.3-0.3-46.4-19.2-55.6-32.2c-9.3-13-11.9-58.8-9.1-78.8s26.4-56.8,67.9-55.8
		c41.4,1,63.3,38.9,65.1,59s-3,65.7-12.9,78.2C-196.1,125.7-229.2,143-241.5,142.7z"/>
	<path class="st8" d="M-246.3,68.3c-0.2,6.7-1,11.2-2.2,17c-1.2,5.7-4.5,11.2,1,13.5c5.5,2.4,8.3,2.4,12-0.6c3.8-3,3.1,0.3,0.5,2.2
		c-2.6,1.9-9.2,3.8-13.5,0.8c-4.4-3-5-0.5-2.1-14.4S-246.7,63.7-246.3,68.3z"/>
	<path class="st8" d="M-252.6,120.1c7.2,3.2,12.9,2.8,18,1c5.1-1.9,5.1-0.4-0.8,2.5c-5,2.4-10.3,2.3-15.9-0.8
		C-257,119.6-255.3,118.6-252.6,120.1z"/>
	<path class="st12" d="M-215.1,63c3.4,0.1,6,3.6,5.9,7.8s-3,7.6-6.3,7.5c-3.4-0.1-6-3.6-5.9-7.8S-218.4,63-215.1,63z"/>
	<path class="st13" d="M-213.2,64.8c1.4,0,2.6,1.4,2.5,3c0,1.6-1.3,2.9-2.7,2.9s-2.6-1.4-2.5-3C-215.9,66.1-214.7,64.8-213.2,64.8z"
		/>
	<path class="st14" d="M-223.2,56.6c5.3-0.3,11.9-1.7,17.5-0.5s7.2-0.4,0.6-3c-5.7-2.3-11.5-3.1-17.8-2.8
		C-228.5,50.6-227.9,56.9-223.2,56.6z"/>
	<path class="st12" d="M-266.4,61.9c-3.4-0.1-6.2,3.3-6.3,7.5s2.5,7.7,5.9,7.8s6.2-3.3,6.3-7.5C-260.3,65.5-263,62-266.4,61.9z"/>
	<path class="st13" d="M-264.6,63.8c-1.4,0-2.7,1.3-2.7,2.9c-0.1,1.6,1.1,3,2.5,3s2.7-1.3,2.7-2.9C-262,65.2-263.1,63.8-264.6,63.8z
		"/>
	<path class="st14" d="M-258,59.1c-5.2-0.6-11.8-2.3-17.4-1.3c-5.6,0.9-7.1-0.8-0.5-3.1c5.8-2,11.6-2.5,17.9-1.9
		C-252.5,53.4-253.4,59.7-258,59.1z"/>
	<path class="st8" d="M-218.1,110.5c-3.3-0.3-4.7,3.4-15.5,2c-3-0.4-5.6-0.6-7.7-0.7c0-0.1,0-0.1,0-0.2c-0.4,0-0.9,0-1.4,0.1
		c-0.5,0-0.9-0.1-1.4-0.1c0,0.1,0,0.1,0,0.2c-2.2,0.1-4.7,0.2-7.7,0.5c-10.8,1-12.1-2.7-15.5-2.5c-4.3-0.2-3,2.8,0.8,3
		c3.8,0.3,8.9,1.5,14.7,1.5c2.4,0,5.7,0.2,9,0.2c3.3,0.1,6.6,0,9,0.1c5.8,0.2,10.9-0.9,14.7-1C-215.2,113.4-213.8,110.5-218.1,110.5
		z"/>
	<path class="st4" d="M-296.3,213.8c3.2,28.9,8.8,70.6,5.1,106.5c-0.6,6,15.4,12,49.7,11.2c34.3,0.8,50.3-5.2,49.7-11.2
		c-2.3-23-4-57.8-1.8-80.7c0.3-3.3,1-6.7,1.4-9.8c-0.6-12.2-1.7-31.5,0.5-42.1s-5,7-5.5,20.4s-2.8,38-2.2,54.7
		c0.5,16.7,3,47.1,0.5,56.6s-34.8,8.9-43.9,8.9c-9.1,0-23.8,1-32.4-2.4c-8.6-3.3-9.6-9.1-8.6-22.9s-3.5-42-5.1-59.1
		c-1.5-17.2-4.6-45.3-4.6-56.8c-1-5.1-2.4,4-2.4,11.7C-295.9,202.3-295.9,208-296.3,213.8z"/>
</g>
<path id="cheveux" class="st14" d="M-294.5,18c7.9-5.2,38.4-2.5,45.3,2c6.9,4.6,10.8,4.7,17.2,1c6.3-3.7,29.7-5,41.3-1.5
	S-178,48-179.1,61.9c-1.1,13.8-3.6,21.8,0.6,29c2.3,4.1,6-29,7.1-42.2s13.1-27.4,7.3-45.8s-18.1-26.8-15.2-19.8S-189.7-7.1-205-20
	c-15.2-13-36.1-19.2-59.6-19.1c-23.3,0.1-21.1,3.2-6.3,4.2c14.8,1,6.1,4.6-14.9,5.3c-21.1,0.7-28.1,3-40.8,9.7
	c-12.6,6.6-10.4,9.2,2.2,4.5s17.1-1.4,7,2c-8.6,3-20.7,19.7-11.3,13c9.7-6.6,10.7,4.5,13,13.5c1.7,6.5,8.4,9,8,24.2
	c-0.4,15.1-1.5,51.9,3.6,48C-298.4,80.8-305.8,25.3-294.5,18z"/>
<g id="brasTel">
	<g>
		<path class="st15" d="M-181.6,91.6l4.1-32.1c0.2-1.7,1.8-3,3.6-2.7l11.7,1.5c1.7,0.2,3,1.8,2.7,3.6l-4.1,32.1
			c-0.2,1.7-1.8,3-3.6,2.7l-11.7-1.5C-180.6,94.9-181.8,93.3-181.6,91.6z"/>
		<path class="st16" d="M-169.3,93.2l4.1-32.1c0.2-1.7,1.8-3,3.6-2.7l0,0c1.7,0.2,3,1.8,2.7,3.6l-4.1,32.1c-0.2,1.7-1.8,3-3.6,2.7
			l0,0C-168.3,96.6-169.6,95-169.3,93.2z"/>
		<path class="st17" d="M-163.6,67.6l0.2-1.8c0-0.4,0.4-0.6,0.8-0.6l0,0c0.4,0,0.6,0.4,0.6,0.8l-0.2,1.8c0,0.4-0.4,0.6-0.8,0.6l0,0
			C-163.4,68.3-163.7,68-163.6,67.6z"/>
		<path class="st17" d="M-164,70.3v-0.2c0.1-0.4,0.4-0.7,0.8-0.6l0,0c0.4,0.1,0.7,0.4,0.6,0.8v0.2c-0.1,0.4-0.4,0.7-0.8,0.6l0,0
			C-163.8,71-164.1,70.7-164,70.3z"/>
		
			<rect x="-178.1" y="62.4" transform="matrix(-0.9917 -0.1285 0.1285 -0.9917 -355.0324 128.0715)" class="st18" width="9.4" height="26.1"/>
	</g>
	<g>
		<path class="st7" d="M-160.3,117.7c-2.2-8.1-4.9-11.6-9.7-14.1c-4.9-2.4-5.3-7.4-6.9-12.3c-1.5-5-2.1-12.4,1.3-13.2
			c3.4-0.7,2.8,15.5,6,13.4c2.7-1.9,0.9-16.7-0.5-22.3c-0.7-2.8-1.8-11.9,3.8-7.8c-1.2-6.7,3.9-5.2,6-1.3c1.1-4.2,6.4-1.7,6.3,4.2
			c0.9-1.2,4.1,1.5,4.9,6.8c0.7,5.3,2.2,18.4-1.3,24.7s-3.4,15.2-1.3,21.3C-149.4,123-158.1,125.8-160.3,117.7z"/>
	</g>
	<path class="st3" d="M-191.9,212.3l56.8-33.4c11-9.3,7.9-21.5,7.9-21.5l-21.9-55.1l-22.3,9l20,49c-4.3,1-39.8,18.7-39.8,18.7"/>
	<path class="st4" d="M-143.7,180.2c-0.5,0.1-1.1,0.1-1.6,0.3c-8.2,2.2-32.8,18.7-49.6,29.2c-0.1,1.6-0.1,3.3,0.1,5
		c13.9-10.2,37.2-23.8,42.9-26.4C-149.2,186.9-146.6,183.8-143.7,180.2z"/>
	<path class="st4" d="M-127.8,164.2c0.4-1.6,1.1-3.2,1.8-4.7c-0.3-0.6-0.7-1.2-1.1-1.8c-3.6-5.5-21.2-55.2-21.2-55.2l-15.2,5.6
		l0.1,0.2c3.8-0.5,7.1,1.6,10.5,0.2c4-1.6,10.9,20.6,14.5,29.6s5.1,20.4,9.4,24.9C-128.7,163.3-128.3,163.7-127.8,164.2z"/>
</g>
</svg>
