<?xml version="1.0" encoding="utf-8"?>
<!-- Generator: Adobe Illustrator 19.1.1, SVG Export Plug-In . SVG Version: 6.00 Build 0)  -->
<svg version="1.1" xmlns="http://www.w3.org/2000/svg" xmlns:xlink="http://www.w3.org/1999/xlink" x="0px" y="0px"
	 viewBox="0 0 1920 1080" style="enable-background:new 0 0 1920 1080;" xml:space="preserve">
<style type="text/css">
	.st0{fill:none;}
	.st1{fill-rule:evenodd;clip-rule:evenodd;}
	.st2{fill-rule:evenodd;clip-rule:evenodd;fill:#FFFFFF;}
	.st3{display:none;}
	.st4{display:inline;}
	.st5{fill:url(#SVGID_51_);stroke:#4D4D4D;stroke-width:0.15;}
	.st6{fill:url(#SVGID_52_);stroke:#4D4D4D;stroke-width:0.15;}
	.st7{fill:url(#SVGID_53_);stroke:#4D4D4D;stroke-width:0.15;}
	.st8{fill:url(#SVGID_54_);stroke:#4D4D4D;stroke-width:0.15;}
	.st9{fill:#231F20;}
	.st10{fill:url(#SVGID_55_);stroke:#4D4D4D;stroke-width:0.25;}
	.st11{fill:url(#SVGID_56_);}
	.st12{fill:none;stroke:#999999;stroke-width:1.25;}
	.st13{fill:url(#SVGID_57_);}
	.st14{fill:url(#SVGID_58_);}
	.st15{opacity:0.6;}
	.st16{opacity:0.2;}
	.st17{fill:url(#SVGID_59_);}
	.st18{fill:url(#SVGID_60_);stroke:#231F20;}
	.st19{opacity:0.7;fill:url(#SVGID_61_);}
	.st20{display:inline;fill:#9E1915;}
	.st21{fill:#9E1915;}
</style>
<pattern  x="480" y="820" width="2.9" height="2.9" patternUnits="userSpaceOnUse" id="New_Pattern_Swatch_1" viewBox="0 -2.9 2.9 2.9" style="overflow:visible;">
	<g>
		<polygon class="st0" points="0,0 2.9,0 2.9,-2.9 0,-2.9 		"/>
		<path class="st1" d="M0.6-2.9c0,0.2,0,0.4,0,0.6c-0.2,0-0.4,0-0.6,0c0-0.2,0-0.4,0-0.6C0.2-2.9,0.4-2.9,0.6-2.9z"/>
		<path class="st1" d="M2.3,0c0-0.2,0-0.4,0-0.6c0.2,0,0.4,0,0.6,0c0,0.2,0,0.4,0,0.6C2.7,0,2.5,0,2.3,0z"/>
		<path class="st2" d="M0.6-2.9c0.2,0,0.4,0,0.6,0c0,0.2,0,0.4,0,0.6c-0.2,0-0.4,0-0.6,0c0,0.2,0,0.4,0,0.6c-0.2,0-0.4,0-0.6,0
			c0-0.2,0-0.4,0-0.6c0.2,0,0.4,0,0.6,0C0.6-2.5,0.6-2.7,0.6-2.9z"/>
		<path class="st1" d="M1.2-2.9c0.2,0,0.4,0,0.6,0c0,0.2,0,0.4,0,0.6c-0.2,0-0.4,0-0.6,0c0,0.2,0,0.4,0,0.6c-0.2,0-0.4,0-0.6,0
			c0,0.2,0,0.4,0,0.6c-0.2,0-0.4,0-0.6,0c0-0.2,0-0.4,0-0.6c0.2,0,0.4,0,0.6,0c0-0.2,0-0.4,0-0.6c0.2,0,0.4,0,0.6,0
			C1.2-2.5,1.2-2.7,1.2-2.9z"/>
		<path class="st2" d="M1.7-2.9c0.2,0,0.4,0,0.6,0c0,0.2,0,0.4,0,0.6c-0.2,0-0.4,0-0.6,0c0,0.2,0,0.4,0,0.6c-0.2,0-0.4,0-0.6,0
			c0,0.2,0,0.4,0,0.6c-0.2,0-0.4,0-0.6,0c0,0.2,0,0.4,0,0.6c-0.2,0-0.4,0-0.6,0C0-0.8,0-1,0-1.2c0.2,0,0.4,0,0.6,0
			c0-0.2,0-0.4,0-0.6c0.2,0,0.4,0,0.6,0c0-0.2,0-0.4,0-0.6c0.2,0,0.4,0,0.6,0C1.7-2.5,1.7-2.7,1.7-2.9z"/>
		<path class="st1" d="M2.3-2.9c0.2,0,0.4,0,0.6,0c0,0.2,0,0.4,0,0.6c-0.2,0-0.4,0-0.6,0c0,0.2,0,0.4,0,0.6c-0.2,0-0.4,0-0.6,0
			c0,0.2,0,0.4,0,0.6c-0.2,0-0.4,0-0.6,0c0,0.2,0,0.4,0,0.6c-0.2,0-0.4,0-0.6,0c0,0.2,0,0.4,0,0.6C0.4,0,0.2,0,0,0
			c0-0.2,0-0.4,0-0.6c0.2,0,0.4,0,0.6,0c0-0.2,0-0.4,0-0.6c0.2,0,0.4,0,0.6,0c0-0.2,0-0.4,0-0.6c0.2,0,0.4,0,0.6,0
			c0-0.2,0-0.4,0-0.6c0.2,0,0.4,0,0.6,0C2.3-2.5,2.3-2.7,2.3-2.9z"/>
		<path class="st2" d="M0.6,0c0-0.2,0-0.4,0-0.6c0.2,0,0.4,0,0.6,0c0-0.2,0-0.4,0-0.6c0.2,0,0.4,0,0.6,0c0-0.2,0-0.4,0-0.6
			c0.2,0,0.4,0,0.6,0c0-0.2,0-0.4,0-0.6c0.2,0,0.4,0,0.6,0c0,0.2,0,0.4,0,0.6c-0.2,0-0.4,0-0.6,0c0,0.2,0,0.4,0,0.6
			c-0.2,0-0.4,0-0.6,0c0,0.2,0,0.4,0,0.6c-0.2,0-0.4,0-0.6,0c0,0.2,0,0.4,0,0.6C1,0,0.8,0,0.6,0z"/>
		<path class="st1" d="M1.2,0c0-0.2,0-0.4,0-0.6c0.2,0,0.4,0,0.6,0c0-0.2,0-0.4,0-0.6c0.2,0,0.4,0,0.6,0c0-0.2,0-0.4,0-0.6
			c0.2,0,0.4,0,0.6,0c0,0.2,0,0.4,0,0.6c-0.2,0-0.4,0-0.6,0c0,0.2,0,0.4,0,0.6c-0.2,0-0.4,0-0.6,0c0,0.2,0,0.4,0,0.6
			C1.5,0,1.4,0,1.2,0z"/>
		<path class="st2" d="M1.7,0c0-0.2,0-0.4,0-0.6c0.2,0,0.4,0,0.6,0c0-0.2,0-0.4,0-0.6c0.2,0,0.4,0,0.6,0c0,0.2,0,0.4,0,0.6
			c-0.2,0-0.4,0-0.6,0c0,0.2,0,0.4,0,0.6C2.1,0,1.9,0,1.7,0z"/>
	</g>
</pattern>
<g id="c1">
	<image style="overflow:visible;" width="1920" height="1080" id="bg_x5F_orig_1_" xlink:href="3d-bureau-leopold.jpg" >
	</image>
	<image style="display:none;overflow:visible;" width="1920" height="1080" xlink:href="3d-bureau-leopold-realite.jpg" >
	</image>
	<g id="postit">
		<g id="postit_x5F_2">
			<defs>
				<polygon id="SVGID_1_" points="1400.3,502.8 1371.8,502.8 1371.8,523.8 1400.3,523.8 1428.8,523.8 1428.8,502.8 				"/>
			</defs>
			<clipPath id="SVGID_2_">
				<use xlink:href="#SVGID_1_"  style="overflow:visible;"/>
			</clipPath>
			<g style="clip-path:url(#SVGID_2_);">
				
					<image style="overflow:visible;" width="59" height="44" xlink:href="decoupage/post-it.jpg"  transform="matrix(1 0 0 1 1370.8286 480.8097)">
				</image>
			</g>
		</g>
		<g id="postit_x5F_1">
			<defs>
				<polygon id="SVGID_3_" points="1400.3,481.8 1371.8,481.8 1371.8,502.8 1400.3,502.8 1428.8,502.8 1428.8,481.8 				"/>
			</defs>
			<clipPath id="SVGID_4_">
				<use xlink:href="#SVGID_3_"  style="overflow:visible;"/>
			</clipPath>
			<g style="clip-path:url(#SVGID_4_);">
				
					<image style="overflow:visible;" width="59" height="44" xlink:href="decoupage/post-it.jpg"  transform="matrix(1 0 0 1 1370.8286 480.8097)">
				</image>
			</g>
		</g>
	</g>
	<g id="horloge">
		<g id="horloge_x5F_2">
			<defs>
				<polygon id="SVGID_5_" points="756,664.8 727.5,664.8 727.5,685.8 756,685.8 784.5,685.8 784.5,664.8 				"/>
			</defs>
			<clipPath id="SVGID_6_">
				<use xlink:href="#SVGID_5_"  style="overflow:visible;"/>
			</clipPath>
			<g style="clip-path:url(#SVGID_6_);">
				
					<image style="overflow:visible;" width="58" height="44" xlink:href="decoupage/pot-horloge.jpg"  transform="matrix(1 0 0 1 726.9953 642.8097)">
				</image>
			</g>
		</g>
		<g id="horloge_x5F_1">
			<defs>
				<polygon id="SVGID_7_" points="756,643.8 727.5,643.8 727.5,664.8 756,664.8 784.5,664.8 784.5,643.8 				"/>
			</defs>
			<clipPath id="SVGID_8_">
				<use xlink:href="#SVGID_7_"  style="overflow:visible;"/>
			</clipPath>
			<g style="clip-path:url(#SVGID_8_);">
				
					<image style="overflow:visible;" width="58" height="44" xlink:href="decoupage/pot-horloge.jpg"  transform="matrix(1 0 0 1 726.9953 642.8097)">
				</image>
			</g>
		</g>
	</g>
	<g id="meteo">
		<g id="meteo_x5F_1">
			<defs>
				<polygon id="SVGID_9_" points="631,335.3 602.5,335.3 602.5,356.3 631,356.3 659.5,356.3 659.5,335.3 				"/>
			</defs>
			<clipPath id="SVGID_10_">
				<use xlink:href="#SVGID_9_"  style="overflow:visible;"/>
			</clipPath>
			<g style="clip-path:url(#SVGID_10_);">
				
					<image style="overflow:visible;" width="170" height="147" xlink:href="decoupage/tableau-meteo.jpg"  transform="matrix(1 0 0 1 602.5117 335.3097)">
				</image>
			</g>
		</g>
		<g id="meteo_x5F_2">
			<defs>
				<polygon id="SVGID_11_" points="631,356.3 602.5,356.3 602.5,377.3 631,377.3 659.5,377.3 659.5,356.3 				"/>
			</defs>
			<clipPath id="SVGID_12_">
				<use xlink:href="#SVGID_11_"  style="overflow:visible;"/>
			</clipPath>
			<g style="clip-path:url(#SVGID_12_);">
				
					<image style="overflow:visible;" width="170" height="147" xlink:href="decoupage/tableau-meteo.jpg"  transform="matrix(1 0 0 1 602.5117 335.3097)">
				</image>
			</g>
		</g>
		<g id="meteo_x5F_3">
			<defs>
				<polygon id="SVGID_13_" points="688,335.3 659.5,335.3 659.5,356.3 688,356.3 716.5,356.3 716.5,335.3 				"/>
			</defs>
			<clipPath id="SVGID_14_">
				<use xlink:href="#SVGID_13_"  style="overflow:visible;"/>
			</clipPath>
			<g style="clip-path:url(#SVGID_14_);">
				
					<image style="overflow:visible;" width="170" height="147" xlink:href="decoupage/tableau-meteo.jpg"  transform="matrix(1 0 0 1 602.5117 335.3097)">
				</image>
			</g>
		</g>
		<g id="meteo_x5F_4">
			<defs>
				<polygon id="SVGID_15_" points="688,356.3 659.5,356.3 659.5,377.3 688,377.3 716.5,377.3 716.5,356.3 				"/>
			</defs>
			<clipPath id="SVGID_16_">
				<use xlink:href="#SVGID_15_"  style="overflow:visible;"/>
			</clipPath>
			<g style="clip-path:url(#SVGID_16_);">
				
					<image style="overflow:visible;" width="170" height="147" xlink:href="decoupage/tableau-meteo.jpg"  transform="matrix(1 0 0 1 602.5117 335.3097)">
				</image>
			</g>
		</g>
		<g id="meteo_x5F_5">
			<defs>
				<polygon id="SVGID_17_" points="745,335.3 716.5,335.3 716.5,356.3 745,356.3 773.5,356.3 773.5,335.3 				"/>
			</defs>
			<clipPath id="SVGID_18_">
				<use xlink:href="#SVGID_17_"  style="overflow:visible;"/>
			</clipPath>
			<g style="clip-path:url(#SVGID_18_);">
				
					<image style="overflow:visible;" width="170" height="147" xlink:href="decoupage/tableau-meteo.jpg"  transform="matrix(1 0 0 1 602.5117 335.3097)">
				</image>
			</g>
		</g>
		<g id="meteo_x5F_6">
			<defs>
				<polygon id="SVGID_19_" points="745,356.3 716.5,356.3 716.5,377.3 745,377.3 773.5,377.3 773.5,356.3 				"/>
			</defs>
			<clipPath id="SVGID_20_">
				<use xlink:href="#SVGID_19_"  style="overflow:visible;"/>
			</clipPath>
			<g style="clip-path:url(#SVGID_20_);">
				
					<image style="overflow:visible;" width="170" height="147" xlink:href="decoupage/tableau-meteo.jpg"  transform="matrix(1 0 0 1 602.5117 335.3097)">
				</image>
			</g>
		</g>
		<g id="meteo_x5F_7">
			<defs>
				<polygon id="SVGID_21_" points="631,377.3 602.5,377.3 602.5,398.3 631,398.3 659.5,398.3 659.5,377.3 				"/>
			</defs>
			<clipPath id="SVGID_22_">
				<use xlink:href="#SVGID_21_"  style="overflow:visible;"/>
			</clipPath>
			<g style="clip-path:url(#SVGID_22_);">
				
					<image style="overflow:visible;" width="170" height="147" xlink:href="decoupage/tableau-meteo.jpg"  transform="matrix(1 0 0 1 602.5117 335.3097)">
				</image>
			</g>
		</g>
		<g id="meteo_x5F_8">
			<defs>
				<polygon id="SVGID_23_" points="631,398.3 602.5,398.3 602.5,419.3 631,419.3 659.5,419.3 659.5,398.3 				"/>
			</defs>
			<clipPath id="SVGID_24_">
				<use xlink:href="#SVGID_23_"  style="overflow:visible;"/>
			</clipPath>
			<g style="clip-path:url(#SVGID_24_);">
				
					<image style="overflow:visible;" width="170" height="147" xlink:href="decoupage/tableau-meteo.jpg"  transform="matrix(1 0 0 1 602.5117 335.3097)">
				</image>
			</g>
		</g>
		<g id="meteo_x5F_9">
			<defs>
				<polygon id="SVGID_25_" points="688,377.3 659.5,377.3 659.5,398.3 688,398.3 716.5,398.3 716.5,377.3 				"/>
			</defs>
			<clipPath id="SVGID_26_">
				<use xlink:href="#SVGID_25_"  style="overflow:visible;"/>
			</clipPath>
			<g style="clip-path:url(#SVGID_26_);">
				
					<image style="overflow:visible;" width="170" height="147" xlink:href="decoupage/tableau-meteo.jpg"  transform="matrix(1 0 0 1 602.5117 335.3097)">
				</image>
			</g>
		</g>
		<g id="meteo_x5F_10">
			<defs>
				<polygon id="SVGID_27_" points="688,398.3 659.5,398.3 659.5,419.3 688,419.3 716.5,419.3 716.5,398.3 				"/>
			</defs>
			<clipPath id="SVGID_28_">
				<use xlink:href="#SVGID_27_"  style="overflow:visible;"/>
			</clipPath>
			<g style="clip-path:url(#SVGID_28_);">
				
					<image style="overflow:visible;" width="170" height="147" xlink:href="decoupage/tableau-meteo.jpg"  transform="matrix(1 0 0 1 602.5117 335.3097)">
				</image>
			</g>
		</g>
		<g id="meteo_x5F_11">
			<defs>
				<polygon id="SVGID_29_" points="745,377.3 716.5,377.3 716.5,398.3 745,398.3 773.5,398.3 773.5,377.3 				"/>
			</defs>
			<clipPath id="SVGID_30_">
				<use xlink:href="#SVGID_29_"  style="overflow:visible;"/>
			</clipPath>
			<g style="clip-path:url(#SVGID_30_);">
				
					<image style="overflow:visible;" width="170" height="147" xlink:href="decoupage/tableau-meteo.jpg"  transform="matrix(1 0 0 1 602.5117 335.3097)">
				</image>
			</g>
		</g>
		<g id="meteo_x5F_12">
			<defs>
				<polygon id="SVGID_31_" points="745,398.3 716.5,398.3 716.5,419.3 745,419.3 773.5,419.3 773.5,398.3 				"/>
			</defs>
			<clipPath id="SVGID_32_">
				<use xlink:href="#SVGID_31_"  style="overflow:visible;"/>
			</clipPath>
			<g style="clip-path:url(#SVGID_32_);">
				
					<image style="overflow:visible;" width="170" height="147" xlink:href="decoupage/tableau-meteo.jpg"  transform="matrix(1 0 0 1 602.5117 335.3097)">
				</image>
			</g>
		</g>
		<g id="meteo_x5F_13">
			<defs>
				<polygon id="SVGID_33_" points="631,419.3 602.5,419.3 602.5,440.3 631,440.3 659.5,440.3 659.5,419.3 				"/>
			</defs>
			<clipPath id="SVGID_34_">
				<use xlink:href="#SVGID_33_"  style="overflow:visible;"/>
			</clipPath>
			<g style="clip-path:url(#SVGID_34_);">
				
					<image style="overflow:visible;" width="170" height="147" xlink:href="decoupage/tableau-meteo.jpg"  transform="matrix(1 0 0 1 602.5117 335.3097)">
				</image>
			</g>
		</g>
		<g id="meteo_x5F_14">
			<defs>
				<polygon id="SVGID_35_" points="688,419.3 659.5,419.3 659.5,440.3 688,440.3 716.5,440.3 716.5,419.3 				"/>
			</defs>
			<clipPath id="SVGID_36_">
				<use xlink:href="#SVGID_35_"  style="overflow:visible;"/>
			</clipPath>
			<g style="clip-path:url(#SVGID_36_);">
				
					<image style="overflow:visible;" width="170" height="147" xlink:href="decoupage/tableau-meteo.jpg"  transform="matrix(1 0 0 1 602.5117 335.3097)">
				</image>
			</g>
		</g>
		<g id="meteo_x5F_15">
			<defs>
				<polygon id="SVGID_37_" points="745,419.3 716.5,419.3 716.5,440.3 745,440.3 773.5,440.3 773.5,419.3 				"/>
			</defs>
			<clipPath id="SVGID_38_">
				<use xlink:href="#SVGID_37_"  style="overflow:visible;"/>
			</clipPath>
			<g style="clip-path:url(#SVGID_38_);">
				
					<image style="overflow:visible;" width="170" height="147" xlink:href="decoupage/tableau-meteo.jpg"  transform="matrix(1 0 0 1 602.5117 335.3097)">
				</image>
			</g>
		</g>
		<g id="meteo_x5F_16">
			<defs>
				<polygon id="SVGID_39_" points="631,440.3 602.5,440.3 602.5,461.3 631,461.3 659.5,461.3 659.5,440.3 				"/>
			</defs>
			<clipPath id="SVGID_40_">
				<use xlink:href="#SVGID_39_"  style="overflow:visible;"/>
			</clipPath>
			<g style="clip-path:url(#SVGID_40_);">
				
					<image style="overflow:visible;" width="170" height="147" xlink:href="decoupage/tableau-meteo.jpg"  transform="matrix(1 0 0 1 602.5117 335.3097)">
				</image>
			</g>
		</g>
		<g id="meteo_x5F_17">
			<defs>
				<polygon id="SVGID_41_" points="631,461.3 602.5,461.3 602.5,482.3 631,482.3 659.5,482.3 659.5,461.3 				"/>
			</defs>
			<clipPath id="SVGID_42_">
				<use xlink:href="#SVGID_41_"  style="overflow:visible;"/>
			</clipPath>
			<g style="clip-path:url(#SVGID_42_);">
				
					<image style="overflow:visible;" width="170" height="147" xlink:href="decoupage/tableau-meteo.jpg"  transform="matrix(1 0 0 1 602.5117 335.3097)">
				</image>
			</g>
		</g>
		<g id="meteo_x5F_18">
			<defs>
				<polygon id="SVGID_43_" points="688,440.3 659.5,440.3 659.5,461.3 688,461.3 716.5,461.3 716.5,440.3 				"/>
			</defs>
			<clipPath id="SVGID_44_">
				<use xlink:href="#SVGID_43_"  style="overflow:visible;"/>
			</clipPath>
			<g style="clip-path:url(#SVGID_44_);">
				
					<image style="overflow:visible;" width="170" height="147" xlink:href="decoupage/tableau-meteo.jpg"  transform="matrix(1 0 0 1 602.5117 335.3097)">
				</image>
			</g>
		</g>
		<g id="meteo_x5F_19">
			<defs>
				<polygon id="SVGID_45_" points="688,461.3 659.5,461.3 659.5,482.3 688,482.3 716.5,482.3 716.5,461.3 				"/>
			</defs>
			<clipPath id="SVGID_46_">
				<use xlink:href="#SVGID_45_"  style="overflow:visible;"/>
			</clipPath>
			<g style="clip-path:url(#SVGID_46_);">
				
					<image style="overflow:visible;" width="170" height="147" xlink:href="decoupage/tableau-meteo.jpg"  transform="matrix(1 0 0 1 602.5117 335.3097)">
				</image>
			</g>
		</g>
		<g id="meteo_x5F_20">
			<defs>
				<polygon id="SVGID_47_" points="745,440.3 716.5,440.3 716.5,461.3 745,461.3 773.5,461.3 773.5,440.3 				"/>
			</defs>
			<clipPath id="SVGID_48_">
				<use xlink:href="#SVGID_47_"  style="overflow:visible;"/>
			</clipPath>
			<g style="clip-path:url(#SVGID_48_);">
				
					<image style="overflow:visible;" width="170" height="147" xlink:href="decoupage/tableau-meteo.jpg"  transform="matrix(1 0 0 1 602.5117 335.3097)">
				</image>
			</g>
		</g>
		<g id="meteo_x5F_21">
			<defs>
				<polygon id="SVGID_49_" points="745,461.3 716.5,461.3 716.5,482.3 745,482.3 773.5,482.3 773.5,461.3 				"/>
			</defs>
			<clipPath id="SVGID_50_">
				<use xlink:href="#SVGID_49_"  style="overflow:visible;"/>
			</clipPath>
			<g style="clip-path:url(#SVGID_50_);">
				
					<image style="overflow:visible;" width="170" height="147" xlink:href="decoupage/tableau-meteo.jpg"  transform="matrix(1 0 0 1 602.5117 335.3097)">
				</image>
			</g>
		</g>
	</g>
</g>
<g id="Calque_3" class="st3">
	<g class="st4">
		
			<linearGradient id="SVGID_51_" gradientUnits="userSpaceOnUse" x1="3583.3179" y1="4909.061" x2="3606.1697" y2="4909.061" gradientTransform="matrix(1 0 0 -1 -1516.9292 5073.9087)">
			<stop  offset="0" style="stop-color:#E4E2DF"/>
			<stop  offset="0" style="stop-color:#DEDAD7"/>
			<stop  offset="6.584089e-002" style="stop-color:#CDC8C8"/>
			<stop  offset="0.1916" style="stop-color:#A39FA2"/>
			<stop  offset="0.264" style="stop-color:#8A868C"/>
			<stop  offset="0.5225" style="stop-color:#F2F3F3"/>
			<stop  offset="0.5895" style="stop-color:#E1E0E1"/>
			<stop  offset="0.7182" style="stop-color:#B7B4B6"/>
			<stop  offset="0.8764" style="stop-color:#807D81"/>
			<stop  offset="1" style="stop-color:#D0D2D3"/>
			<stop  offset="1" style="stop-color:#A6A8AB"/>
		</linearGradient>
		<path class="st5" d="M2089.2,165.6c0,1.5-0.7,2.8-1.5,2.8h-19.8c-0.8,0-1.5-1.2-1.5-2.8v-1.6c0-1.5,0.7-2.8,1.5-2.8h19.8
			c0.8,0,1.5,1.2,1.5,2.8V165.6z"/>
		
			<linearGradient id="SVGID_52_" gradientUnits="userSpaceOnUse" x1="3636.1052" y1="4909.6816" x2="3652.0383" y2="4909.6816" gradientTransform="matrix(1 0 0 -1 -1516.9292 5073.9087)">
			<stop  offset="0" style="stop-color:#E4E2DF"/>
			<stop  offset="0" style="stop-color:#DEDAD7"/>
			<stop  offset="6.584089e-002" style="stop-color:#CDC8C8"/>
			<stop  offset="0.1916" style="stop-color:#A39FA2"/>
			<stop  offset="0.264" style="stop-color:#8A868C"/>
			<stop  offset="0.5225" style="stop-color:#F2F3F3"/>
			<stop  offset="0.5895" style="stop-color:#E1E0E1"/>
			<stop  offset="0.7182" style="stop-color:#B7B4B6"/>
			<stop  offset="0.8764" style="stop-color:#807D81"/>
			<stop  offset="1" style="stop-color:#D0D2D3"/>
			<stop  offset="1" style="stop-color:#A6A8AB"/>
		</linearGradient>
		<path class="st6" d="M2135.1,165c0,1.5-0.5,2.8-1.1,2.8h-13.8c-0.6,0-1.1-1.2-1.1-2.8v-1.6c0-1.5,0.5-2.8,1.1-2.8h13.8
			c0.6,0,1.1,1.2,1.1,2.8V165z"/>
		
			<linearGradient id="SVGID_53_" gradientUnits="userSpaceOnUse" x1="3662.4236" y1="4909.6816" x2="3678.3564" y2="4909.6816" gradientTransform="matrix(1 0 0 -1 -1516.9292 5073.9087)">
			<stop  offset="0" style="stop-color:#E4E2DF"/>
			<stop  offset="0" style="stop-color:#DEDAD7"/>
			<stop  offset="6.584089e-002" style="stop-color:#CDC8C8"/>
			<stop  offset="0.1916" style="stop-color:#A39FA2"/>
			<stop  offset="0.264" style="stop-color:#8A868C"/>
			<stop  offset="0.5225" style="stop-color:#F2F3F3"/>
			<stop  offset="0.5895" style="stop-color:#E1E0E1"/>
			<stop  offset="0.7182" style="stop-color:#B7B4B6"/>
			<stop  offset="0.8764" style="stop-color:#807D81"/>
			<stop  offset="1" style="stop-color:#D0D2D3"/>
			<stop  offset="1" style="stop-color:#A6A8AB"/>
		</linearGradient>
		<path class="st7" d="M2161.4,165c0,1.5-0.5,2.8-1.1,2.8h-13.8c-0.6,0-1.1-1.2-1.1-2.8v-1.6c0-1.5,0.5-2.8,1.1-2.8h13.8
			c0.6,0,1.1,1.2,1.1,2.8V165z"/>
		
			<linearGradient id="SVGID_54_" gradientUnits="userSpaceOnUse" x1="-763.4012" y1="1784.2877" x2="-721.546" y2="1784.2877" gradientTransform="matrix(-4.489700e-011 1 1 4.489700e-011 243.5679 738.0455)">
			<stop  offset="0" style="stop-color:#E4E2DF"/>
			<stop  offset="0" style="stop-color:#DEDAD7"/>
			<stop  offset="6.584089e-002" style="stop-color:#CDC8C8"/>
			<stop  offset="0.1916" style="stop-color:#A39FA2"/>
			<stop  offset="0.264" style="stop-color:#8A868C"/>
			<stop  offset="0.5225" style="stop-color:#F2F3F3"/>
			<stop  offset="0.5895" style="stop-color:#E1E0E1"/>
			<stop  offset="0.7182" style="stop-color:#B7B4B6"/>
			<stop  offset="0.8764" style="stop-color:#807D81"/>
			<stop  offset="1" style="stop-color:#D0D2D3"/>
			<stop  offset="1" style="stop-color:#A6A8AB"/>
		</linearGradient>
		<path class="st8" d="M2027,16.5c-1.6,0-2.9-1.2-2.9-2.8v-36.3c0-1.5,1.3-2.8,2.9-2.8h1.7c1.6,0,2.9,1.2,2.9,2.8v36.3
			c0,1.5-1.3,2.8-2.9,2.8H2027z"/>
		<g>
			<path class="st9" d="M2465.9-64.7c14.3,0,25.8,11.3,25.8,25.2v178c0,13.9-11.6,25.2-25.8,25.2h-411.4
				c-14.3,0-25.8-11.3-25.8-25.2v-178c0-13.9,11.6-25.2,25.8-25.2H2465.9 M2465.9-64.9h-411.4c-14.4,0-26.1,11.4-26.1,25.5v178
				c0,14,11.7,25.5,26.1,25.5h411.4c14.4,0,26.1-11.4,26.1-25.5v-178C2492-53.5,2480.3-64.9,2465.9-64.9L2465.9-64.9z"/>
		</g>
		
			<linearGradient id="SVGID_55_" gradientUnits="userSpaceOnUse" x1="1575.2007" y1="2016.6288" x2="1808.6101" y2="2016.6288" gradientTransform="matrix(4.489700e-011 -1 1 4.489700e-011 243.5679 1741.4858)">
			<stop  offset="0" style="stop-color:#E4E2DF"/>
			<stop  offset="0" style="stop-color:#E6E7E9"/>
			<stop  offset="7.112556e-002" style="stop-color:#D7D8D9"/>
			<stop  offset="0.207" style="stop-color:#B1B2B4"/>
			<stop  offset="0.264" style="stop-color:#9FA1A4"/>
			<stop  offset="0.5225" style="stop-color:#F2F3F3"/>
			<stop  offset="0.5989" style="stop-color:#E3E3E4"/>
			<stop  offset="0.7447" style="stop-color:#BDBDBE"/>
			<stop  offset="0.8764" style="stop-color:#96989B"/>
			<stop  offset="1" style="stop-color:#D0D2D3"/>
			<stop  offset="1" style="stop-color:#A6A8AB"/>
		</linearGradient>
		<path class="st10" d="M2026.3-41.4v181.9c0,14.2,11.7,25.8,26.1,25.8h415.7c14.4,0,26.1-11.5,26.1-25.8V-41.4
			c0-14.2-11.7-25.8-26.1-25.8h-415.7C2037.9-67.1,2026.3-55.6,2026.3-41.4z M2411.1-49.1v194.4h-303.2V-49.1H2411.1z"/>
		<path class="st9" d="M2028.7-39.4v178c0,13.9,11.6,25.2,25.8,25.2h411.4c14.3,0,25.8-11.3,25.8-25.2v-178
			c0-13.9-11.6-25.2-25.8-25.2h-411.4C2040.2-64.6,2028.7-53.3,2028.7-39.4z M2411.1-46.1v191.4h-303.2V-46.1H2411.1z"/>
		
			<linearGradient id="SVGID_56_" gradientUnits="userSpaceOnUse" x1="1665.2052" y1="2205.3921" x2="1702.444" y2="2210.978" gradientTransform="matrix(4.489700e-011 -1 1 4.489700e-011 243.5679 1741.4858)">
			<stop  offset="0" style="stop-color:#000000"/>
			<stop  offset="0.1264" style="stop-color:#161616"/>
			<stop  offset="0.2637" style="stop-color:#292929"/>
			<stop  offset="0.6319" style="stop-color:#080808"/>
			<stop  offset="1" style="stop-color:#000000"/>
		</linearGradient>
		<ellipse class="st11" cx="2453" cy="49.6" rx="22.7" ry="21.9"/>
		<path class="st12" d="M2457.2,42.7c1.5,0,2.7,1.2,2.7,2.8v8.1c0,1.5-1.2,2.8-2.7,2.8h-8.6c-1.5,0-2.7-1.2-2.7-2.8v-8.1
			c0-1.5,1.2-2.8,2.7-2.8H2457.2z"/>
		<g>
			<g>
				
					<linearGradient id="SVGID_57_" gradientUnits="userSpaceOnUse" x1="1679.6405" y1="1824.1581" x2="1719.0126" y2="1824.1581" gradientTransform="matrix(4.489700e-011 -1 1 4.489700e-011 243.5679 1741.4858)">
					<stop  offset="0" style="stop-color:#000000"/>
					<stop  offset="0.1264" style="stop-color:#161616"/>
					<stop  offset="0.2637" style="stop-color:#292929"/>
					<stop  offset="0.6319" style="stop-color:#080808"/>
					<stop  offset="1" style="stop-color:#000000"/>
				</linearGradient>
				<path class="st13" d="M2067.7,20.7c3,0,5.4,1.8,5.4,4.1v35c0,2.3-2.4,4.1-5.4,4.1l0,0c-3,0-5.4-1.8-5.4-4.1v-35
					C2062.3,22.5,2064.7,20.7,2067.7,20.7L2067.7,20.7z"/>
				
					<pattern  id="SVGID_58_" xlink:href="#New_Pattern_Swatch_1" patternTransform="matrix(0.8529 0 0 0.7621 -1211.1942 -1938.2378)">
				</pattern>
				<path class="st14" d="M2067.7,23.1c1.9,0,3.4,1.6,3.4,3.6v31.1c0,2-1.5,3.6-3.4,3.6l0,0c-1.9,0-3.4-1.6-3.4-3.6V26.7
					C2064.4,24.7,2065.9,23.1,2067.7,23.1L2067.7,23.1z"/>
			</g>
			<g class="st15">
				<image style="overflow:visible;" width="76" height="115" xlink:href="3AFF9E00.png"  transform="matrix(1 0 0 1 2027 -15)">
				</image>
			</g>
			<g class="st16">
				<image style="overflow:visible;" width="76" height="114" xlink:href="3AFF9E03.png"  transform="matrix(1 0 0 1 2033 -15)">
				</image>
			</g>
		</g>
		<g>
			<g>
				
					<radialGradient id="SVGID_59_" cx="1661.0211" cy="1788.106" r="8.1325" gradientTransform="matrix(4.660900e-011 -1 1.0381 4.489700e-011 211.3502 1741.4858)" gradientUnits="userSpaceOnUse">
					<stop  offset="0" style="stop-color:#000000"/>
					<stop  offset="0.1264" style="stop-color:#161616"/>
					<stop  offset="0.2637" style="stop-color:#292929"/>
					<stop  offset="0.6319" style="stop-color:#080808"/>
					<stop  offset="1" style="stop-color:#000000"/>
				</radialGradient>
				<ellipse class="st17" cx="2067.7" cy="80.5" rx="5.4" ry="5.2"/>
				
					<linearGradient id="SVGID_60_" gradientUnits="userSpaceOnUse" x1="1660.7744" y1="1824.558" x2="1660.1088" y2="1825.7566" gradientTransform="matrix(4.489700e-011 -1 1 4.489700e-011 243.5679 1741.4858)">
					<stop  offset="0" style="stop-color:#0071AA"/>
					<stop  offset="1" style="stop-color:#1D468C"/>
				</linearGradient>
				<ellipse class="st18" cx="2067.7" cy="80.5" rx="2.8" ry="2.7"/>
			</g>
			
				<linearGradient id="SVGID_61_" gradientUnits="userSpaceOnUse" x1="1659.6312" y1="1825.5044" x2="1667.4231" y2="1817.7125" gradientTransform="matrix(4.489700e-011 -1 1 4.489700e-011 243.5679 1741.4858)">
				<stop  offset="0" style="stop-color:#015C9B"/>
				<stop  offset="0.2198" style="stop-color:#FFFFFF"/>
				<stop  offset="0.2912" style="stop-color:#30358C"/>
				<stop  offset="1" style="stop-color:#1D468C"/>
			</linearGradient>
			<ellipse class="st19" cx="2067.7" cy="80.5" rx="1.6" ry="1.5"/>
		</g>
	</g>
	<polygon class="st20" points="2079.5,-67.2 2051,-67.2 2051,-46.2 2079.5,-46.2 2108,-46.2 2108,-67.2 	"/>
	<g class="st4">
		<g>
			<g>
				<polygon class="st21" points="1108,344.8 1079.5,344.8 1079.5,365.8 1108,365.8 1136.5,365.8 1136.5,344.8 				"/>
				<polygon class="st21" points="1108,365.8 1079.5,365.8 1079.5,386.8 1108,386.8 1136.5,386.8 1136.5,365.8 				"/>
			</g>
			<g>
				<polygon class="st21" points="1165,344.8 1136.5,344.8 1136.5,365.8 1165,365.8 1193.5,365.8 1193.5,344.8 				"/>
				<polygon class="st21" points="1165,365.8 1136.5,365.8 1136.5,386.8 1165,386.8 1193.5,386.8 1193.5,365.8 				"/>
			</g>
			<g>
				<polygon class="st21" points="1222,344.8 1193.5,344.8 1193.5,365.8 1222,365.8 1250.5,365.8 1250.5,344.8 				"/>
				<polygon class="st21" points="1222,365.8 1193.5,365.8 1193.5,386.8 1222,386.8 1250.5,386.8 1250.5,365.8 				"/>
			</g>
			<g>
				<polygon class="st21" points="1279,344.8 1250.5,344.8 1250.5,365.8 1279,365.8 1307.5,365.8 1307.5,344.8 				"/>
				<polygon class="st21" points="1279,365.8 1250.5,365.8 1250.5,386.8 1279,386.8 1307.5,386.8 1307.5,365.8 				"/>
			</g>
			<g>
				<polygon class="st21" points="1336,344.8 1307.5,344.8 1307.5,365.8 1336,365.8 1364.5,365.8 1364.5,344.8 				"/>
				<polygon class="st21" points="1336,365.8 1307.5,365.8 1307.5,386.8 1336,386.8 1364.5,386.8 1364.5,365.8 				"/>
			</g>
		</g>
		<g>
			<g>
				<polygon class="st21" points="1108,386.8 1079.5,386.8 1079.5,407.8 1108,407.8 1136.5,407.8 1136.5,386.8 				"/>
				<polygon class="st21" points="1108,407.8 1079.5,407.8 1079.5,428.8 1108,428.8 1136.5,428.8 1136.5,407.8 				"/>
			</g>
			<g>
				<polygon class="st21" points="1165,386.8 1136.5,386.8 1136.5,407.8 1165,407.8 1193.5,407.8 1193.5,386.8 				"/>
				<polygon class="st21" points="1165,407.8 1136.5,407.8 1136.5,428.8 1165,428.8 1193.5,428.8 1193.5,407.8 				"/>
			</g>
			<g>
				<polygon class="st21" points="1222,386.8 1193.5,386.8 1193.5,407.8 1222,407.8 1250.5,407.8 1250.5,386.8 				"/>
				<polygon class="st21" points="1222,407.8 1193.5,407.8 1193.5,428.8 1222,428.8 1250.5,428.8 1250.5,407.8 				"/>
			</g>
			<g>
				<polygon class="st21" points="1279,386.8 1250.5,386.8 1250.5,407.8 1279,407.8 1307.5,407.8 1307.5,386.8 				"/>
				<polygon class="st21" points="1279,407.8 1250.5,407.8 1250.5,428.8 1279,428.8 1307.5,428.8 1307.5,407.8 				"/>
			</g>
			<g>
				<polygon class="st21" points="1336,386.8 1307.5,386.8 1307.5,407.8 1336,407.8 1364.5,407.8 1364.5,386.8 				"/>
				<polygon class="st21" points="1336,407.8 1307.5,407.8 1307.5,428.8 1336,428.8 1364.5,428.8 1364.5,407.8 				"/>
			</g>
		</g>
		<g>
			<g>
				<polygon class="st21" points="1108,428.8 1079.5,428.8 1079.5,449.8 1108,449.8 1136.5,449.8 1136.5,428.8 				"/>
				<polygon class="st21" points="1108,449.8 1079.5,449.8 1079.5,470.8 1108,470.8 1136.5,470.8 1136.5,449.8 				"/>
			</g>
			<g>
				<polygon class="st21" points="1165,428.8 1136.5,428.8 1136.5,449.8 1165,449.8 1193.5,449.8 1193.5,428.8 				"/>
				<polygon class="st21" points="1165,449.8 1136.5,449.8 1136.5,470.8 1165,470.8 1193.5,470.8 1193.5,449.8 				"/>
			</g>
			<g>
				<polygon class="st21" points="1222,428.8 1193.5,428.8 1193.5,449.8 1222,449.8 1250.5,449.8 1250.5,428.8 				"/>
				<polygon class="st21" points="1222,449.8 1193.5,449.8 1193.5,470.8 1222,470.8 1250.5,470.8 1250.5,449.8 				"/>
			</g>
			<g>
				<polygon class="st21" points="1279,428.8 1250.5,428.8 1250.5,449.8 1279,449.8 1307.5,449.8 1307.5,428.8 				"/>
				<polygon class="st21" points="1279,449.8 1250.5,449.8 1250.5,470.8 1279,470.8 1307.5,470.8 1307.5,449.8 				"/>
			</g>
			<g>
				<polygon class="st21" points="1336,428.8 1307.5,428.8 1307.5,449.8 1336,449.8 1364.5,449.8 1364.5,428.8 				"/>
				<polygon class="st21" points="1336,449.8 1307.5,449.8 1307.5,470.8 1336,470.8 1364.5,470.8 1364.5,449.8 				"/>
			</g>
		</g>
		<polygon class="st21" points="1108,470.8 1079.5,470.8 1079.5,491.8 1108,491.8 1136.5,491.8 1136.5,470.8 		"/>
		<polygon class="st21" points="1165,470.8 1136.5,470.8 1136.5,491.8 1165,491.8 1193.5,491.8 1193.5,470.8 		"/>
		<polygon class="st21" points="1222,470.8 1193.5,470.8 1193.5,491.8 1222,491.8 1250.5,491.8 1250.5,470.8 		"/>
		<polygon class="st21" points="1279,470.8 1250.5,470.8 1250.5,491.8 1279,491.8 1307.5,491.8 1307.5,470.8 		"/>
		<polygon class="st21" points="1336,470.8 1307.5,470.8 1307.5,491.8 1336,491.8 1364.5,491.8 1364.5,470.8 		"/>
	</g>
	<g class="st4">
		<polygon class="st21" points="959.7,200.7 931.2,200.7 931.2,221.7 959.7,221.7 988.2,221.7 988.2,200.7 		"/>
		<polygon class="st21" points="959.7,221.7 931.2,221.7 931.2,242.7 959.7,242.7 988.2,242.7 988.2,221.7 		"/>
		<polygon class="st21" points="1016.7,200.7 988.2,200.7 988.2,221.7 1016.7,221.7 1045.2,221.7 1045.2,200.7 		"/>
		<polygon class="st21" points="1016.7,221.7 988.2,221.7 988.2,242.7 1016.7,242.7 1045.2,242.7 1045.2,221.7 		"/>
		<polygon class="st21" points="1073.7,200.7 1045.2,200.7 1045.2,221.7 1073.7,221.7 1102.2,221.7 1102.2,200.7 		"/>
		<polygon class="st21" points="1073.7,221.7 1045.2,221.7 1045.2,242.7 1073.7,242.7 1102.2,242.7 1102.2,221.7 		"/>
		<polygon class="st21" points="959.7,242.7 931.2,242.7 931.2,263.7 959.7,263.7 988.2,263.7 988.2,242.7 		"/>
		<polygon class="st21" points="959.7,263.7 931.2,263.7 931.2,284.6 959.7,284.6 988.2,284.6 988.2,263.7 		"/>
		<polygon class="st21" points="1016.7,242.7 988.2,242.7 988.2,263.7 1016.7,263.7 1045.2,263.7 1045.2,242.7 		"/>
		<polygon class="st21" points="1016.7,263.7 988.2,263.7 988.2,284.6 1016.7,284.6 1045.2,284.6 1045.2,263.7 		"/>
		<polygon class="st21" points="1073.7,242.7 1045.2,242.7 1045.2,263.7 1073.7,263.7 1102.2,263.7 1102.2,242.7 		"/>
		<polygon class="st21" points="1073.7,263.7 1045.2,263.7 1045.2,284.6 1073.7,284.6 1102.2,284.6 1102.2,263.7 		"/>
	</g>
	<g class="st4">
		<polygon class="st21" points="363,272.3 334.5,272.3 334.5,293.3 363,293.3 391.5,293.3 391.5,272.3 		"/>
		<polygon class="st21" points="363,293.3 334.5,293.3 334.5,314.3 363,314.3 391.5,314.3 391.5,293.3 		"/>
		<polygon class="st21" points="420,272.3 391.5,272.3 391.5,293.3 420,293.3 448.5,293.3 448.5,272.3 		"/>
		<polygon class="st21" points="420,293.3 391.5,293.3 391.5,314.3 420,314.3 448.5,314.3 448.5,293.3 		"/>
		<polygon class="st21" points="477,272.3 448.5,272.3 448.5,293.3 477,293.3 505.5,293.3 505.5,272.3 		"/>
		<polygon class="st21" points="477,293.3 448.5,293.3 448.5,314.3 477,314.3 505.5,314.3 505.5,293.3 		"/>
		<polygon class="st21" points="363,314.3 334.5,314.3 334.5,335.3 363,335.3 391.5,335.3 391.5,314.3 		"/>
		<polygon class="st21" points="363,335.3 334.5,335.3 334.5,356.3 363,356.3 391.5,356.3 391.5,335.3 		"/>
		<polygon class="st21" points="420,314.3 391.5,314.3 391.5,335.3 420,335.3 448.5,335.3 448.5,314.3 		"/>
		<polygon class="st21" points="420,335.3 391.5,335.3 391.5,356.3 420,356.3 448.5,356.3 448.5,335.3 		"/>
		<polygon class="st21" points="477,314.3 448.5,314.3 448.5,335.3 477,335.3 505.5,335.3 505.5,314.3 		"/>
		<polygon class="st21" points="477,335.3 448.5,335.3 448.5,356.3 477,356.3 505.5,356.3 505.5,335.3 		"/>
		<polygon class="st21" points="363,356.3 334.5,356.3 334.5,377.3 363,377.3 391.5,377.3 391.5,356.3 		"/>
		<polygon class="st21" points="420,356.3 391.5,356.3 391.5,377.3 420,377.3 448.5,377.3 448.5,356.3 		"/>
		<polygon class="st21" points="477,356.3 448.5,356.3 448.5,377.3 477,377.3 505.5,377.3 505.5,356.3 		"/>
		<polygon class="st21" points="363,377.3 334.5,377.3 334.5,398.3 363,398.3 391.5,398.3 391.5,377.3 		"/>
		<polygon class="st21" points="363,398.3 334.5,398.3 334.5,419.3 363,419.3 391.5,419.3 391.5,398.3 		"/>
		<polygon class="st21" points="420,377.3 391.5,377.3 391.5,398.3 420,398.3 448.5,398.3 448.5,377.3 		"/>
		<polygon class="st21" points="420,398.3 391.5,398.3 391.5,419.3 420,419.3 448.5,419.3 448.5,398.3 		"/>
		<polygon class="st21" points="477,377.3 448.5,377.3 448.5,398.3 477,398.3 505.5,398.3 505.5,377.3 		"/>
		<polygon class="st21" points="477,398.3 448.5,398.3 448.5,419.3 477,419.3 505.5,419.3 505.5,398.3 		"/>
		<polygon class="st21" points="534,272.3 505.5,272.3 505.5,293.3 534,293.3 562.5,293.3 562.5,272.3 		"/>
		<polygon class="st21" points="534,293.3 505.5,293.3 505.5,314.3 534,314.3 562.5,314.3 562.5,293.3 		"/>
		<polygon class="st21" points="534,314.3 505.5,314.3 505.5,335.3 534,335.3 562.5,335.3 562.5,314.3 		"/>
		<polygon class="st21" points="534,335.3 505.5,335.3 505.5,356.3 534,356.3 562.5,356.3 562.5,335.3 		"/>
		<polygon class="st21" points="534,356.3 505.5,356.3 505.5,377.3 534,377.3 562.5,377.3 562.5,356.3 		"/>
		<polygon class="st21" points="534,377.3 505.5,377.3 505.5,398.3 534,398.3 562.5,398.3 562.5,377.3 		"/>
		<polygon class="st21" points="534,398.3 505.5,398.3 505.5,419.3 534,419.3 562.5,419.3 562.5,398.3 		"/>
		<polygon class="st21" points="363,419.3 334.5,419.3 334.5,440.3 363,440.3 391.5,440.3 391.5,419.3 		"/>
		<polygon class="st21" points="420,419.3 391.5,419.3 391.5,440.3 420,440.3 448.5,440.3 448.5,419.3 		"/>
		<polygon class="st21" points="477,419.3 448.5,419.3 448.5,440.3 477,440.3 505.5,440.3 505.5,419.3 		"/>
		<polygon class="st21" points="363,440.3 334.5,440.3 334.5,461.3 363,461.3 391.5,461.3 391.5,440.3 		"/>
		<polygon class="st21" points="420,440.3 391.5,440.3 391.5,461.3 420,461.3 448.5,461.3 448.5,440.3 		"/>
		<polygon class="st21" points="477,440.3 448.5,440.3 448.5,461.3 477,461.3 505.5,461.3 505.5,440.3 		"/>
		<polygon class="st21" points="363,461.3 334.5,461.3 334.5,482.3 363,482.3 391.5,482.3 391.5,461.3 		"/>
		<polygon class="st21" points="363,482.3 334.5,482.3 334.5,503.3 363,503.3 391.5,503.3 391.5,482.3 		"/>
		<polygon class="st21" points="420,461.3 391.5,461.3 391.5,482.3 420,482.3 448.5,482.3 448.5,461.3 		"/>
		<polygon class="st21" points="420,482.3 391.5,482.3 391.5,503.3 420,503.3 448.5,503.3 448.5,482.3 		"/>
		<polygon class="st21" points="477,461.3 448.5,461.3 448.5,482.3 477,482.3 505.5,482.3 505.5,461.3 		"/>
		<polygon class="st21" points="477,482.3 448.5,482.3 448.5,503.3 477,503.3 505.5,503.3 505.5,482.3 		"/>
		<polygon class="st21" points="534,419.3 505.5,419.3 505.5,440.3 534,440.3 562.5,440.3 562.5,419.3 		"/>
		<polygon class="st21" points="534,440.3 505.5,440.3 505.5,461.3 534,461.3 562.5,461.3 562.5,440.3 		"/>
		<polygon class="st21" points="534,461.3 505.5,461.3 505.5,482.3 534,482.3 562.5,482.3 562.5,461.3 		"/>
		<polygon class="st21" points="534,482.3 505.5,482.3 505.5,503.3 534,503.3 562.5,503.3 562.5,482.3 		"/>
		<polygon class="st21" points="363,503.3 334.5,503.3 334.5,524.3 363,524.3 391.5,524.3 391.5,503.3 		"/>
		<polygon class="st21" points="420,503.3 391.5,503.3 391.5,524.3 420,524.3 448.5,524.3 448.5,503.3 		"/>
		<polygon class="st21" points="477,503.3 448.5,503.3 448.5,524.3 477,524.3 505.5,524.3 505.5,503.3 		"/>
		<polygon class="st21" points="363,524.3 334.5,524.3 334.5,545.3 363,545.3 391.5,545.3 391.5,524.3 		"/>
		<polygon class="st21" points="363,545.3 334.5,545.3 334.5,566.3 363,566.3 391.5,566.3 391.5,545.3 		"/>
		<polygon class="st21" points="420,524.3 391.5,524.3 391.5,545.3 420,545.3 448.5,545.3 448.5,524.3 		"/>
		<polygon class="st21" points="420,545.3 391.5,545.3 391.5,566.3 420,566.3 448.5,566.3 448.5,545.3 		"/>
		<polygon class="st21" points="477,524.3 448.5,524.3 448.5,545.3 477,545.3 505.5,545.3 505.5,524.3 		"/>
		<polygon class="st21" points="477,545.3 448.5,545.3 448.5,566.3 477,566.3 505.5,566.3 505.5,545.3 		"/>
		<polygon class="st21" points="534,503.3 505.5,503.3 505.5,524.3 534,524.3 562.5,524.3 562.5,503.3 		"/>
		<polygon class="st21" points="534,524.3 505.5,524.3 505.5,545.3 534,545.3 562.5,545.3 562.5,524.3 		"/>
		<polygon class="st21" points="534,545.3 505.5,545.3 505.5,566.3 534,566.3 562.5,566.3 562.5,545.3 		"/>
	</g>
	<g class="st4">
		<polygon class="st21" points="28.5,754.7 0,754.7 0,775.7 28.5,775.7 57,775.7 57,754.7 		"/>
		<polygon class="st21" points="28.5,775.7 0,775.7 0,796.7 28.5,796.7 57,796.7 57,775.7 		"/>
		<polygon class="st21" points="85.5,754.7 57,754.7 57,775.7 85.5,775.7 114,775.7 114,754.7 		"/>
		<polygon class="st21" points="85.5,775.7 57,775.7 57,796.7 85.5,796.7 114,796.7 114,775.7 		"/>
		<polygon class="st21" points="142.5,754.7 114,754.7 114,775.7 142.5,775.7 171,775.7 171,754.7 		"/>
		<polygon class="st21" points="142.5,775.7 114,775.7 114,796.7 142.5,796.7 171,796.7 171,775.7 		"/>
		<polygon class="st21" points="28.5,796.7 0,796.7 0,817.7 28.5,817.7 57,817.7 57,796.7 		"/>
		<polygon class="st21" points="28.5,817.7 0,817.7 0,838.6 28.5,838.6 57,838.6 57,817.7 		"/>
		<polygon class="st21" points="85.5,796.7 57,796.7 57,817.7 85.5,817.7 114,817.7 114,796.7 		"/>
		<polygon class="st21" points="85.5,817.7 57,817.7 57,838.6 85.5,838.6 114,838.6 114,817.7 		"/>
		<polygon class="st21" points="142.5,796.7 114,796.7 114,817.7 142.5,817.7 171,817.7 171,796.7 		"/>
		<polygon class="st21" points="142.5,817.7 114,817.7 114,838.6 142.5,838.6 171,838.6 171,817.7 		"/>
	</g>
	<g class="st4">
		<polygon class="st21" points="1486,234.4 1457.5,234.4 1457.5,255.4 1486,255.4 1514.5,255.4 1514.5,234.4 		"/>
		<polygon class="st21" points="1486,255.4 1457.5,255.4 1457.5,276.3 1486,276.3 1514.5,276.3 1514.5,255.4 		"/>
		<polygon class="st21" points="1543,234.4 1514.5,234.4 1514.5,255.4 1543,255.4 1571.5,255.4 1571.5,234.4 		"/>
		<polygon class="st21" points="1543,255.4 1514.5,255.4 1514.5,276.3 1543,276.3 1571.5,276.3 1571.5,255.4 		"/>
		<polygon class="st21" points="1600,234.4 1571.5,234.4 1571.5,255.4 1600,255.4 1628.5,255.4 1628.5,234.4 		"/>
		<polygon class="st21" points="1600,255.4 1571.5,255.4 1571.5,276.3 1600,276.3 1628.5,276.3 1628.5,255.4 		"/>
		<polygon class="st21" points="1486,276.3 1457.5,276.3 1457.5,297.3 1486,297.3 1514.5,297.3 1514.5,276.3 		"/>
		<polygon class="st21" points="1486,297.3 1457.5,297.3 1457.5,318.3 1486,318.3 1514.5,318.3 1514.5,297.3 		"/>
		<polygon class="st21" points="1543,276.3 1514.5,276.3 1514.5,297.3 1543,297.3 1571.5,297.3 1571.5,276.3 		"/>
		<polygon class="st21" points="1543,297.3 1514.5,297.3 1514.5,318.3 1543,318.3 1571.5,318.3 1571.5,297.3 		"/>
		<polygon class="st21" points="1600,276.3 1571.5,276.3 1571.5,297.3 1600,297.3 1628.5,297.3 1628.5,276.3 		"/>
		<polygon class="st21" points="1600,297.3 1571.5,297.3 1571.5,318.3 1600,318.3 1628.5,318.3 1628.5,297.3 		"/>
		<polygon class="st21" points="1486,318.3 1457.5,318.3 1457.5,339.3 1486,339.3 1514.5,339.3 1514.5,318.3 		"/>
		<polygon class="st21" points="1543,318.3 1514.5,318.3 1514.5,339.3 1543,339.3 1571.5,339.3 1571.5,318.3 		"/>
		<polygon class="st21" points="1600,318.3 1571.5,318.3 1571.5,339.3 1600,339.3 1628.5,339.3 1628.5,318.3 		"/>
		<polygon class="st21" points="1486,339.3 1457.5,339.3 1457.5,360.3 1486,360.3 1514.5,360.3 1514.5,339.3 		"/>
		<polygon class="st21" points="1486,360.3 1457.5,360.3 1457.5,381.3 1486,381.3 1514.5,381.3 1514.5,360.3 		"/>
		<polygon class="st21" points="1543,339.3 1514.5,339.3 1514.5,360.3 1543,360.3 1571.5,360.3 1571.5,339.3 		"/>
		<polygon class="st21" points="1543,360.3 1514.5,360.3 1514.5,381.3 1543,381.3 1571.5,381.3 1571.5,360.3 		"/>
		<polygon class="st21" points="1600,339.3 1571.5,339.3 1571.5,360.3 1600,360.3 1628.5,360.3 1628.5,339.3 		"/>
		<polygon class="st21" points="1600,360.3 1571.5,360.3 1571.5,381.3 1600,381.3 1628.5,381.3 1628.5,360.3 		"/>
		<polygon class="st21" points="1657,234.4 1628.5,234.4 1628.5,255.4 1657,255.4 1685.5,255.4 1685.5,234.4 		"/>
		<polygon class="st21" points="1657,255.4 1628.5,255.4 1628.5,276.3 1657,276.3 1685.5,276.3 1685.5,255.4 		"/>
		<polygon class="st21" points="1657,276.3 1628.5,276.3 1628.5,297.3 1657,297.3 1685.5,297.3 1685.5,276.3 		"/>
		<polygon class="st21" points="1657,297.3 1628.5,297.3 1628.5,318.3 1657,318.3 1685.5,318.3 1685.5,297.3 		"/>
		<polygon class="st21" points="1657,318.3 1628.5,318.3 1628.5,339.3 1657,339.3 1685.5,339.3 1685.5,318.3 		"/>
		<polygon class="st21" points="1657,339.3 1628.5,339.3 1628.5,360.3 1657,360.3 1685.5,360.3 1685.5,339.3 		"/>
		<polygon class="st21" points="1657,360.3 1628.5,360.3 1628.5,381.3 1657,381.3 1685.5,381.3 1685.5,360.3 		"/>
		<polygon class="st21" points="1486,381.3 1457.5,381.3 1457.5,402.3 1486,402.3 1514.5,402.3 1514.5,381.3 		"/>
		<polygon class="st21" points="1543,381.3 1514.5,381.3 1514.5,402.3 1543,402.3 1571.5,402.3 1571.5,381.3 		"/>
		<polygon class="st21" points="1600,381.3 1571.5,381.3 1571.5,402.3 1600,402.3 1628.5,402.3 1628.5,381.3 		"/>
		<polygon class="st21" points="1657,381.3 1628.5,381.3 1628.5,402.3 1657,402.3 1685.5,402.3 1685.5,381.3 		"/>
	</g>
	<g class="st4">
		<polygon class="st21" points="1090.7,612.3 1062.2,612.3 1062.2,633.3 1090.7,633.3 1119.2,633.3 1119.2,612.3 		"/>
		<polygon class="st21" points="1090.7,633.3 1062.2,633.3 1062.2,654.3 1090.7,654.3 1119.2,654.3 1119.2,633.3 		"/>
		<polygon class="st21" points="1147.7,612.3 1119.2,612.3 1119.2,633.3 1147.7,633.3 1176.2,633.3 1176.2,612.3 		"/>
		<polygon class="st21" points="1147.7,633.3 1119.2,633.3 1119.2,654.3 1147.7,654.3 1176.2,654.3 1176.2,633.3 		"/>
		<polygon class="st21" points="1204.7,612.3 1176.2,612.3 1176.2,633.3 1204.7,633.3 1233.2,633.3 1233.2,612.3 		"/>
		<polygon class="st21" points="1204.7,633.3 1176.2,633.3 1176.2,654.3 1204.7,654.3 1233.2,654.3 1233.2,633.3 		"/>
		<polygon class="st21" points="1090.7,654.3 1062.2,654.3 1062.2,675.3 1090.7,675.3 1119.2,675.3 1119.2,654.3 		"/>
		<polygon class="st21" points="1090.7,675.3 1062.2,675.3 1062.2,696.3 1090.7,696.3 1119.2,696.3 1119.2,675.3 		"/>
		<polygon class="st21" points="1147.7,654.3 1119.2,654.3 1119.2,675.3 1147.7,675.3 1176.2,675.3 1176.2,654.3 		"/>
		<polygon class="st21" points="1147.7,675.3 1119.2,675.3 1119.2,696.3 1147.7,696.3 1176.2,696.3 1176.2,675.3 		"/>
		<polygon class="st21" points="1204.7,654.3 1176.2,654.3 1176.2,675.3 1204.7,675.3 1233.2,675.3 1233.2,654.3 		"/>
		<polygon class="st21" points="1204.7,675.3 1176.2,675.3 1176.2,696.3 1204.7,696.3 1233.2,696.3 1233.2,675.3 		"/>
	</g>
</g>

<defs>
	<script>
		var calque1 = document.getElementById('c1');
		var items = calque1.querySelectorAll('g');
		var listItems = [];
		var children = element.childNodes;
		var len = children.length;
		for(var cpt = 0; cpt < len; cpt++) {
		   /* var child = children[cpt];
		    if(child.nodeType === 1 && child.tagName === "G") {
		        listItems.push(child);
		    }*/
		}
		console.log(listItems);
	</script>
</defs>
</svg>
