<?xml version="1.0" encoding="utf-8"?>
<!-- Generator: Adobe Illustrator 18.0.0, SVG Export Plug-In . SVG Version: 6.00 Build 0)  -->
<!DOCTYPE svg PUBLIC "-//W3C//DTD SVG 1.1//EN" "http://www.w3.org/Graphics/SVG/1.1/DTD/svg11.dtd">
<svg version="1.1" id="Calque_1" xmlns="http://www.w3.org/2000/svg" xmlns:xlink="http://www.w3.org/1999/xlink" x="0px" y="0px"
	 viewBox="0 0 418.5 56.5" enable-background="new 0 0 418.5 56.5" xml:space="preserve">
<g>
	<g>
		<path fill="#3C3C3B" d="M86.8,27.7H65.2v21H90v1.7H63.5v-45H90V7H65.2v19h21.6V27.7z"/>
		<path fill="#3C3C3B" d="M133,50.4h-1.7L102.5,8.4l-0.2,0.1v41.8h-1.7v-45h1.7l28.9,41.8l0.2-0.1V5.4h1.7V50.4z"/>
		<path fill="#3C3C3B" d="M150.5,50.4h-1.7v-45h1.7V50.4z"/>
		<path fill="#3C3C3B" d="M198,44.3c-0.9,1.6-2.8,3.1-5.5,4.6c-2.7,1.4-6,2.1-9.9,2.1c-5.2,0-9.3-1.8-12.5-5.5
			c-3.2-3.7-4.8-8.4-4.8-14.3v-7.4c0-5.6,1.6-10.2,4.7-13.8c3.1-3.6,7.2-5.3,12.1-5.3c4.8,0,8.6,1.2,11.5,3.7
			c2.9,2.5,4.2,5.6,4.1,9.5l-0.1,0.2h-1.4c0-3.4-1.2-6.3-3.7-8.5c-2.5-2.2-5.9-3.3-10.5-3.3c-4.6,0-8.2,1.6-11,4.9
			c-2.8,3.2-4.2,7.4-4.2,12.5v7.4c0,5.4,1.4,9.7,4.3,13.1c2.9,3.4,6.7,5.1,11.4,5.1c3.6,0,6.6-0.6,8.9-1.8s3.9-2.5,4.8-4V30.7h-13.8
			V29H198V44.3z"/>
		<path fill="#3C3C3B" d="M233.7,47.7h0.2l18.8-42.3h1.9v45h-1.7V9.5l-0.2,0l-18.2,40.9h-1.3L214.6,8.5l-0.2,0v41.8h-1.7v-45h2.3
			L233.7,47.7z"/>
		<path fill="#3C3C3B" d="M293.4,36.9h-22l-5,13.4h-1.8l16.8-45h2l16.8,45h-1.8L293.4,36.9z M272.1,35.2h20.7l-9.4-25.2l-0.9-2.6
			h-0.2l-0.8,2.6L272.1,35.2z"/>
		<path fill="#3C3C3B" d="M309,10.5l-1.5,8.4h-1.5l1.4-8.3V5.4h1.7V10.5z"/>
		<path fill="#523460" d="M353,8.5h-15.3v41.8H334V8.5h-15.9V5.4H353V8.5z"/>
		<path fill="#523460" d="M367.1,50.4h-3.7v-45h3.7V50.4z"/>
		<path fill="#523460" d="M412.8,36.3l0.1,0.2c0.1,4.4-1.4,7.9-4.3,10.6s-6.9,4-11.7,4c-5,0-9-1.8-12.1-5.4c-3.1-3.6-4.6-8.3-4.6-14
			v-7.3c0-5.7,1.5-10.4,4.6-14c3.1-3.6,7.1-5.5,12.1-5.5c4.9,0,8.8,1.3,11.7,3.9c2.9,2.6,4.4,6.1,4.3,10.6l-0.1,0.2h-3.5
			c0-3.6-1.1-6.5-3.3-8.5c-2.2-2-5.3-3-9.2-3c-3.9,0-7.1,1.5-9.5,4.6c-2.4,3-3.6,7-3.6,11.7v7.4c0,4.8,1.2,8.8,3.6,11.8
			c2.4,3,5.5,4.6,9.5,4.6c3.9,0,6.9-1,9.2-3c2.2-2,3.3-4.9,3.3-8.6H412.8z"/>
	</g>
	<g>
		<path fill="#523460" d="M29.3,30c-0.1-0.4-0.5-0.8-1-0.8l-0.2,0c-0.3,0-0.5,0.2-0.7,0.4c-0.2,0.2-0.2,0.5-0.2,0.8l10.6,18.2H9.1
			l21.5-28.1c0.3-0.5,0.3-1.1-0.2-1.5c-0.4-0.3-1.1-0.2-1.5,0.2L6.1,49.1c-0.2,0.3-0.3,0.7-0.1,1.1c0.2,0.4,0.5,0.6,0.9,0.6h32.4
			c0.3,0,0.6-0.1,0.8-0.4c0.2-0.2,0.3-0.6,0.2-0.9L29.3,30z"/>
		<path fill="#523460" d="M33.7,4.9h-0.8h-3.7H7.1c-0.4,0-0.7,0.2-0.9,0.5C6,5.7,5.9,6.1,6.1,6.4l9.4,21.8l0,0l0.6,1.3
			c0.2,0.5,0.8,0.7,1.3,0.5l0.1,0c0.5-0.2,0.7-0.8,0.5-1.3l-0.5-1.2c0-0.1-0.1-0.2-0.1-0.3l-1.1-2.6c0,0,0,0,0,0L8.7,7h20.4
			c0,0,0,0,0,0h4.5c0.5,0,1-0.5,1-1V5.9C34.7,5.4,34.2,4.9,33.7,4.9z"/>
	</g>
</g>
</svg>
