<?xml version="1.0" encoding="utf-8"?>
<!-- Generator: Adobe Illustrator 19.1.1, SVG Export Plug-In . SVG Version: 6.00 Build 0)  -->
<svg version="1.1" id="Calque_1" xmlns="http://www.w3.org/2000/svg" xmlns:xlink="http://www.w3.org/1999/xlink" x="0px" y="0px"
	 viewBox="-355 -70 249 700" style="enable-background:new -355 -70 249 700;" xml:space="preserve">
<style type="text/css">
	.st0{fill:#F2AC71;}
	.st1{fill:#0E2759;}
	.st2{fill:#0B1A33;}
	.st3{fill:#4E2700;}
	.st4{fill:#331A00;}
	.st5{fill:#CC8C58;}
	.st6{fill:#282325;}
	.st7{fill:#0F0D0E;}
	.st8{fill:#E8A370;}
	.st9{fill:#222A2B;}
	.st10{fill:#FFFFFF;}
	.st11{fill:#282516;}
	.st12{display:none;}
	.st13{display:inline;}
	.st14{fill:#545454;}
	.st15{fill:#454545;}
	.st16{fill:#B8B8B8;}
	.st117{opacity:0.2;fill:#D0F2FF;enable-background:new    ;}
	.st18{display:inline;fill:#0E2759;}
	.st19{display:inline;fill:#0B1A33;}
</style>
<g id="brasNormal">
	<path class="st0" d="M-164.6,321.6c-0.7,6.4,1.3,15.1,6.1,20.4s6.4,18.4,6.9,23.7c0.4,5.3-2,8.7-3.2,7.7c1.4,5.7-3.2,9.3-5.2,5.5
		c-1.1,4.3-5.7,6.9-6.1,0.1c-4.5,5.3-5.5-3.8-5.5-6.7c0.1-5.8-1.5-20.6-4.6-21.8c-3.6-1.3,0.7,14.3-2.8,14.4s-4.6-7.3-4.3-12.5
		c0.4-5.2-0.3-10.1,3.9-13.6c4.1-3.5,5.9-7.5,6.2-15.9C-172.9,314.5-163.8,315.2-164.6,321.6z"/>
	<g id="bras_x5F_normal">
		<path class="st1" d="M-201.2,211.3c6.7,13.5,19.1,59.1,26.5,68.3c7.3,9.2,19.4-2.6,16.4-10.1s-18.2-87.6-24.4-93.9
			C-188.8,169.5-207.9,197.8-201.2,211.3z"/>
		<path class="st1" d="M-179,273.8c1.6,6.4-1.1,59.1-1.1,59.1l20,0.5c0,0,1.6-49.1,1.4-59.3C-159,261.4-183.9,253.7-179,273.8z"/>
		<path class="st2" d="M-174.8,329.1c-4.3,0-2.4-23.2-2.4-32.9s2.9-20.8,0.5-26.6c-0.6-1.3-1.4-3.6-2.4-6.6
			c-1.6,1.8-2.4,5.2-1.3,10.8c1.3,6.4-0.9,59.1-0.9,59.1l16.2,0.5v-0.2C-168.8,332.3-171.1,329.1-174.8,329.1z"/>
		<path class="st2" d="M-176.7,269.6c-2.4-5.8-10.6-31.5-14-48.4c-1.2,1.1-2.4,2.3-3.4,3.6c5.4,19,12.5,47.8,17.1,54.9
			c0.3,0.5,0.7,0.9,1,1.3C-175.7,276.4-175.6,272.3-176.7,269.6z"/>
	</g>
</g>
<g id="corps">
	<path class="st3" d="M-185.8,575.9c4.7,3.4,21.6,6.9,24.3,8.9c5.5,4-0.3,9.7-12.6,10.1c-7.9,0.2-23.8-2.2-34.7-6.5
		c-6.1-2.4-10.6-5.4-11.2-8.9C-221.5,569.8-196.1,568-185.8,575.9z"/>
	<path class="st4" d="M-161.7,588.7c1.4,1.9-1.5,5.8-12,6.1c-7.9,0.2-23.8-2.2-34.7-6.5c-6.1-2.4-10.6-5.4-11.2-8.9
		c0-0.2-0.1-0.4-0.1-0.6C-201.1,588.9-174.6,591-161.7,588.7z"/>
	<path class="st3" d="M-271.1,575.9c-4.7,3.4-22,8.8-22.7,12.1c-1.3,6.5-1.3,6.5,10.9,6.9c7.9,0.2,23.8-2.2,34.7-6.5
		c6.1-2.4,10.6-5.4,11.2-8.9C-235.4,569.8-260.9,568-271.1,575.9z"/>
	<path class="st4" d="M-293.9,588c-1.4,1.9,0.5,6.6,11,6.9c7.9,0.2,23.8-2.2,34.7-6.5c6.1-2.4,10.6-5.4,11.2-8.9
		c0-0.2,0.1-0.4,0.1-0.6C-255.5,588.9-281,590.2-293.9,588z"/>
	<path class="st1" d="M-294.4,175.6c-6.2,6.3-21.4,86.4-24.4,93.9s9.1,19.3,16.4,10.1c7.4-9.2,19.8-54.8,26.5-68.3
		C-269.2,197.8-288.3,169.5-294.4,175.6z"/>
	<path class="st0" d="M-309.4,323.4c0.6,6.1-1.2,14.3-5.8,19.4c-4.6,5.1-6.1,17.4-6.5,22.5c-0.4,5.1,1.9,8.3,3,7.3
		c-1.3,5.4,3.1,8.8,5,5.2c1,4.1,5.4,6.6,5.8,0.1c4.3,5,5.3-3.6,5.2-6.4c-0.1-5.5,1.4-19.6,4.4-20.7c3.4-1.2-0.6,13.6,2.6,13.7
		c3.3,0.1,4.4-7,4.1-11.9c-0.3-4.9,0.3-9.6-3.7-12.9c-3.9-3.4-5.6-7.1-5.9-15.1C-301.5,316.7-310.1,317.3-309.4,323.4z"/>
	<path class="st1" d="M-318.4,274.1c-0.2,10.2,1.4,59.3,1.4,59.3l20-0.5c0,0-2.7-52.7-1.1-59.1
		C-293.2,253.7-318.1,261.4-318.4,274.1z"/>
	<path class="st2" d="M-312,333.2v0.2l16.2-0.5c0,0-2.2-52.7-0.9-59.1c1.1-5.6,0.3-9-1.3-10.8c-1,3-1.8,5.3-2.4,6.6
		c-2.4,5.8,0.5,16.9,0.5,26.6s1.9,32.9-2.4,32.9C-306,329.1-308.3,332.3-312,333.2z"/>
	<path class="st2" d="M-301.1,281c0.3-0.4,0.7-0.8,1-1.3c4.6-7.1,11.7-35.9,17.1-54.9c-1-1.3-2.2-2.5-3.4-3.6
		c-3.4,16.9-11.6,42.6-14,48.4C-301.5,272.3-301.4,276.4-301.1,281z"/>
	<path class="st0" d="M-252.4,145.2c0,13-10.8,17.6-17.4,19.1c-6.6,1.6,37.1,36.3,37.1,34.3c0-1.9-3.1-63.2-3.1-63.2
		S-245.4,136.3-252.4,145.2z"/>
	<path class="st0" d="M-222.5,145.2c0,13,10.8,17.6,17.4,19.1c6.6,1.6-37.1,36.3-37.1,34.3c0-1.9,3.1-63.2,3.1-63.2
		S-229.4,136.3-222.5,145.2z"/>
	<rect x="-252.4" y="83.8" class="st0" width="29.9" height="91.6"/>
	<polygon class="st5" points="-251.8,120.3 -223.5,120.3 -223.5,137.1 -251.8,151.2 	"/>
	<path class="st5" d="M-248.4,116c7.3,3,13,2.5,18,0.5s5.1-0.5-0.8,2.5c-5,2.6-10.2,2.6-15.9-0.4
		C-252.8,115.7-251.1,114.6-248.4,116z"/>
	<path class="st6" d="M-281.5,290.2c-3.2,24.3-4.8,72.5,1.6,118.1c6.5,45.6,9.7,116,9.7,133.8c0,17.7-3.2,30.9-3.2,30.9
		s3.8,3.5,16.7,3.5c12.9,0,19.4,0.5,19.4,0.5s-1.6-13.2-2.2-32.9c-0.5-19.8-4.8-106.9-4.3-137.3s-1.5-54.4,2.6-54.2
		c2.3,0.1,5.2,0.1,7.6,0c4.1-0.3,3.9,23.8,6.6,54.2c2.8,30.4,5,117.5,5.9,137.3s0.3,32.9,0.3,32.9s6.4-0.5,19.3-0.5
		c12.9,0,16.4-3.5,16.4-3.5s-4.2-13.2-5.5-30.9s-3.3-88.2-0.2-133.8s-0.6-93.8-5.6-118.1C-200,291.8-278,291.8-281.5,290.2z"/>
	<path class="st1" d="M-293,173.2c-9,5.5,10.7,81.9,4.7,142c-0.6,6,15.4,12,49.7,11.2c34.3,0.8,50.3-5.2,49.7-11.2
		c-10.3-103.6,13.7-136.4,4.7-142c-8.6-5.3-20.2-11.6-32.4-15c-4,4.4-13,8.4-21.9,8.4c-8.9,0-16.6-3-20.7-7.4
		C-271.5,162.6-284.4,167.9-293,173.2z"/>
	<g>
		<path class="st7" d="M-284.1,323.5c-0.8,24.5,0,55.2,4.1,84.8c6.5,45.6,9.7,116,9.7,133.8c0,17.7-3.2,30.9-3.2,30.9
			s3.8,3.5,16.7,3.5c2.3,0,4.3,0,6.2,0c-10.5-1.9-16.9-5.9-15.1-12.4c2.5-9-1.9-70.5-1.9-96.7C-267.6,441.2-279.6,361.2-284.1,323.5
			L-284.1,323.5z"/>
		<path class="st7" d="M-242.4,353.4c0.3-0.5,0.7-0.8,1.1-0.8c2.3,0.1,5.2,0.1,7.6,0c4.1-0.3,3.9,23.8,6.6,54.2
			c2.8,30.4,5,117.5,5.9,137.3s0.3,32.9,0.3,32.9s6.4-0.5,19.3-0.5c6.3,0,10.3-0.8,12.8-1.7c-16.4,3.3-26.2-0.3-25.6-7.7
			c0.6-7.8-3.8-80.6-3.8-102.7c0-22.1-4.4-74.6-7-97.3c-2.5-22.7-8.2-17.9-17.8-16.1C-242.7,351.8-242.5,352.6-242.4,353.4z"/>
	</g>
	<path class="st0" d="M-306.1,48.6c6.1-1.5,13,4.6,15.6,13.6s-0.3,17.4-6.3,18.9c-6.1,1.5-13-4.6-15.6-13.6
		C-315,58.5-312.1,50-306.1,48.6z"/>
	<path class="st8" d="M-305.1,53.3c4.3-1.1,9.4,3.3,11.2,9.7c1.8,6.4-0.2,12.5-4.6,13.6c-4.3,1.1-9.4-3.3-11.2-9.7
		C-311.5,60.4-309.5,54.3-305.1,53.3z"/>
	<path class="st0" d="M-167,51.9c-6-1.8-13.2,4-16.2,12.8s-0.6,17.4,5.4,19.2s13.2-4,16.2-12.8C-158.6,62.3-161.1,53.7-167,51.9z"/>
	<path class="st8" d="M-170,56c-4.7-1.4-10.5,3.1-12.9,10.2c-2.4,7-0.4,13.8,4.3,15.2s10.5-3.1,12.9-10.2
		C-163.3,64.3-165.2,57.4-170,56z"/>
	<path class="st0" d="M-237.8,138.6c-12.3-0.3-46.4-19.2-55.6-32.2c-9.3-13-11.9-58.8-9.1-78.8s26.4-56.8,67.9-55.8
		c41.4,1,63.3,38.9,65.1,59s-3,65.7-12.9,78.2C-192.4,121.6-225.5,138.9-237.8,138.6z"/>
	<path class="st5" d="M-242.6,64.2c-0.2,6.7-1,11.2-2.2,17c-1.2,5.7-4.5,11.2,1,13.5c5.5,2.4,8.3,2.4,12-0.6c3.8-3,3.1,0.3,0.5,2.2
		c-2.6,1.9-9.2,3.8-13.5,0.8c-4.4-3-5-0.5-2.1-14.4S-243,59.6-242.6,64.2z"/>
	<path class="st5" d="M-248.9,116c7.2,3.2,12.9,2.8,18,1c5.1-1.9,5.1-0.4-0.8,2.5c-5,2.4-10.3,2.3-15.9-0.8
		C-253.3,115.5-251.6,114.5-248.9,116z"/>
	<path class="st9" d="M-211.4,58.9c3.4,0.1,6,3.6,5.9,7.8s-3,7.6-6.3,7.5c-3.4-0.1-6-3.6-5.9-7.8S-214.7,58.9-211.4,58.9z"/>
	<path class="st10" d="M-209.5,60.7c1.4,0,2.6,1.4,2.5,3c0,1.6-1.3,2.9-2.7,2.9s-2.6-1.4-2.5-3C-212.2,62-211,60.7-209.5,60.7z"/>
	<path class="st11" d="M-219.5,52.5c5.3-0.3,11.9-1.7,17.5-0.5s7.2-0.4,0.6-3c-5.7-2.3-11.5-3.1-17.8-2.8
		C-224.8,46.5-224.2,52.8-219.5,52.5z"/>
	<path class="st9" d="M-262.7,57.8c-3.4-0.1-6.2,3.3-6.3,7.5s2.5,7.7,5.9,7.8s6.2-3.3,6.3-7.5C-256.6,61.4-259.3,57.9-262.7,57.8z"
		/>
	<path class="st10" d="M-260.9,59.7c-1.4,0-2.7,1.3-2.7,2.9c-0.1,1.6,1.1,3,2.5,3s2.7-1.3,2.7-2.9
		C-258.3,61.1-259.4,59.7-260.9,59.7z"/>
	<path class="st11" d="M-254.3,55c-5.2-0.6-11.8-2.3-17.4-1.3c-5.6,0.9-7.1-0.8-0.5-3.1c5.8-2,11.6-2.5,17.9-1.9
		C-248.8,49.3-249.7,55.6-254.3,55z"/>
	<path class="st5" d="M-214.4,106.4c-3.3-0.3-4.7,3.4-15.5,2c-3-0.4-5.6-0.6-7.7-0.7c0-0.1,0-0.1,0-0.2c-0.4,0-0.9,0-1.4,0.1
		c-0.5,0-0.9-0.1-1.4-0.1c0,0.1,0,0.1,0,0.2c-2.2,0.1-4.7,0.2-7.7,0.5c-10.8,1-12.1-2.7-15.5-2.5c-4.3-0.2-3,2.8,0.8,3
		c3.8,0.3,8.9,1.5,14.7,1.5c2.4,0,5.7,0.2,9,0.2c3.3,0.1,6.6,0,9,0.1c5.8,0.2,10.9-0.9,14.7-1C-211.5,109.3-210.1,106.4-214.4,106.4
		z"/>
	<path class="st2" d="M-292.6,209.7c3.2,28.9,8.8,70.6,5.1,106.5c-0.6,6,15.4,12,49.7,11.2c34.3,0.8,50.3-5.2,49.7-11.2
		c-2.3-23-4-57.8-1.8-80.7c0.3-3.3,1-6.7,1.4-9.8c-0.6-12.2-1.7-31.5,0.5-42.1s-5,7-5.5,20.4s-2.8,38-2.2,54.7
		c0.5,16.7,3,47.1,0.5,56.6s-34.8,8.9-43.9,8.9c-9.1,0-23.8,1-32.4-2.4c-8.6-3.3-9.6-9.1-8.6-22.9s-3.5-42-5.1-59.1
		c-1.5-17.2-4.6-45.3-4.6-56.8c-1-5.1-2.4,4-2.4,11.7C-292.2,198.2-292.2,203.9-292.6,209.7z"/>
</g>
<path id="cheveux" class="st11" d="M-290.8,13.9c7.9-5.2,38.4-2.5,45.3,2c6.9,4.6,10.8,4.7,17.2,1c6.3-3.7,29.7-5,41.3-1.5
	s12.7,28.5,11.6,42.4c-1.1,13.8-3.6,21.8,0.6,29c2.3,4.1,6-29,7.1-42.2s13.1-27.4,7.3-45.8S-178.5-28-175.6-21s-10.4,9.8-25.7-3.1
	c-15.2-13-36.1-19.2-59.6-19.1c-23.3,0.1-21.1,3.2-6.3,4.2c14.8,1,6.1,4.6-14.9,5.3c-21.1,0.7-28.1,3-40.8,9.7
	c-12.6,6.6-10.4,9.2,2.2,4.5c12.6-4.7,17.1-1.4,7,2c-8.6,3-20.7,19.7-11.3,13c9.7-6.6,10.7,4.5,13,13.5c1.7,6.5,8.4,9,8,24.2
	c-0.4,15.1-1.5,51.9,3.6,48C-294.7,76.7-302.1,21.2-290.8,13.9z"/>
<g id="brasTel" class="st12">
	<g class="st13">
		<path class="st14" d="M-177.9,87.5l4.1-32.1c0.2-1.7,1.8-3,3.6-2.7l11.7,1.5c1.7,0.2,3,1.8,2.7,3.6l-4.1,32.1
			c-0.2,1.7-1.8,3-3.6,2.7l-11.7-1.5C-176.9,90.8-178.1,89.2-177.9,87.5z"/>
		<path class="st15" d="M-165.6,89.1l4.1-32.1c0.2-1.7,1.8-3,3.6-2.7l0,0c1.7,0.2,3,1.8,2.7,3.6l-4.1,32.1c-0.2,1.7-1.8,3-3.6,2.7
			l0,0C-164.6,92.5-165.9,90.9-165.6,89.1z"/>
		<path class="st16" d="M-159.9,63.5l0.2-1.8c0-0.4,0.4-0.6,0.8-0.6l0,0c0.4,0,0.6,0.4,0.6,0.8l-0.2,1.8c0,0.4-0.4,0.6-0.8,0.6l0,0
			C-159.7,64.2-160,63.9-159.9,63.5z"/>
		<path class="st16" d="M-160.3,66.2V66c0.1-0.4,0.4-0.7,0.8-0.6l0,0c0.4,0.1,0.7,0.4,0.6,0.8v0.2c-0.1,0.4-0.4,0.7-0.8,0.6l0,0
			C-160.1,66.9-160.4,66.6-160.3,66.2z"/>
		
			<rect x="-174.4" y="58.3" transform="matrix(0.9917 0.1285 -0.1285 0.9917 7.7644 22.3926)" class="st117" width="9.4" height="26.1"/>
	</g>
	<g class="st13">
		<path class="st0" d="M-156.6,113.6c-2.2-8.1-4.9-11.6-9.7-14.1c-4.9-2.4-5.3-7.4-6.9-12.3c-1.5-5-2.1-12.4,1.3-13.2
			c3.4-0.7,2.8,15.5,6,13.4c2.7-1.9,0.9-16.7-0.5-22.3c-0.7-2.8-1.8-11.9,3.8-7.8c-1.2-6.7,3.9-5.2,6-1.3c1.1-4.2,6.4-1.7,6.3,4.2
			c0.9-1.2,4.1,1.5,4.9,6.8c0.7,5.3,2.2,18.4-1.3,24.7s-3.4,15.2-1.3,21.3C-145.7,118.9-154.4,121.7-156.6,113.6z"/>
	</g>
	<path class="st18" d="M-188.2,208.2l56.8-33.4c11-9.3,7.9-21.5,7.9-21.5l-21.9-55.1l-22.3,9l20,49c-4.3,1-39.8,18.7-39.8,18.7"/>
	<path class="st19" d="M-140,176.1c-0.5,0.1-1.1,0.1-1.6,0.3c-8.2,2.2-32.8,18.7-49.6,29.2c-0.1,1.6-0.1,3.3,0.1,5
		c13.9-10.2,37.2-23.8,42.9-26.4C-145.5,182.8-142.9,179.7-140,176.1z"/>
	<path class="st19" d="M-124.1,160.1c0.4-1.6,1.1-3.2,1.8-4.7c-0.3-0.6-0.7-1.2-1.1-1.8c-3.6-5.5-21.2-55.2-21.2-55.2l-15.2,5.6
		l0.1,0.2c3.8-0.5,7.1,1.6,10.5,0.2c4-1.6,10.9,20.6,14.5,29.6s5.1,20.4,9.4,24.9C-125,159.2-124.6,159.6-124.1,160.1z"/>
</g>
</svg>
