<?xml version="1.0" encoding="utf-8"?>
<!-- Generator: Adobe Illustrator 18.0.0, SVG Export Plug-In . SVG Version: 6.00 Build 0)  -->
<!DOCTYPE svg PUBLIC "-//W3C//DTD SVG 1.1//EN" "http://www.w3.org/Graphics/SVG/1.1/DTD/svg11.dtd">
<svg version="1.1" id="Calque_1" xmlns="http://www.w3.org/2000/svg" xmlns:xlink="http://www.w3.org/1999/xlink" x="0px" y="0px"
	 viewBox="0 0 47.5 55.3" enable-background="new 0 0 47.5 55.3" xml:space="preserve">
<g>
	<path fill="#F6F6F6" d="M29.9,29.8c-0.1-0.4-0.5-0.8-1-0.8l-0.2,0c-0.3,0-0.5,0.2-0.7,0.4c-0.2,0.2-0.2,0.5-0.2,0.8l10.6,18.2H9.7
		l21.5-28.1c0.3-0.5,0.3-1.1-0.2-1.5c-0.4-0.3-1.1-0.2-1.5,0.2L6.7,48.9c-0.2,0.3-0.3,0.7-0.1,1.1c0.2,0.4,0.5,0.6,0.9,0.6H40
		c0.3,0,0.6-0.1,0.8-0.4c0.2-0.2,0.3-0.6,0.2-0.9L29.9,29.8z"/>
	<path fill="#F6F6F6" d="M34.3,4.7h-0.8h-3.7H7.7C7.3,4.7,7,4.9,6.8,5.2c-0.2,0.3-0.2,0.7-0.1,1L16.1,28l0,0l0.6,1.3
		c0.2,0.5,0.8,0.7,1.3,0.5l0.1,0c0.5-0.2,0.7-0.8,0.5-1.3l-0.5-1.2c0-0.1-0.1-0.2-0.1-0.3l-1.1-2.6c0,0,0,0,0,0L9.3,6.9h20.4
		c0,0,0,0,0,0h4.5c0.5,0,1-0.5,1-1V5.7C35.3,5.2,34.8,4.7,34.3,4.7z"/>
</g>
</svg>
