<?xml version="1.0" encoding="utf-8"?>
<!-- Generator: Adobe Illustrator 18.0.0, SVG Export Plug-In . SVG Version: 6.00 Build 0)  -->
<!DOCTYPE svg PUBLIC "-//W3C//DTD SVG 1.1//EN" "http://www.w3.org/Graphics/SVG/1.1/DTD/svg11.dtd">
<svg version="1.1" xmlns="http://www.w3.org/2000/svg" xmlns:xlink="http://www.w3.org/1999/xlink" x="0px" y="0px"
	 viewBox="0 0 255 693.1" enable-background="new 0 0 255 693.1" xml:space="preserve">
<g id="Background">
</g>
<g id="Calque_3">
</g>
<g id="Objects">
	<g>
		<path fill-rule="evenodd" clip-rule="evenodd" fill="#4E2700" d="M182.2,646.9c4.7,3.4,21.6,6.9,24.3,8.9c5.5,4-0.3,9.7-12.6,10.1
			c-7.9,0.2-23.8-2.2-34.7-6.5c-6.1-2.4-10.6-5.4-11.2-8.9C146.5,640.9,172,639.1,182.2,646.9z"/>
		<path fill-rule="evenodd" clip-rule="evenodd" fill="#331A00" d="M206.3,659.8c1.4,1.9-1.5,5.8-12,6.1c-7.9,0.2-23.8-2.2-34.7-6.5
			c-6.1-2.4-10.6-5.4-11.2-8.9c0-0.2-0.1-0.4-0.1-0.6C166.9,660,193.4,662.1,206.3,659.8z"/>
		<path fill-rule="evenodd" clip-rule="evenodd" fill="#4E2700" d="M96.9,646.9c-4.7,3.4-22,8.8-22.7,12.1
			c-1.3,6.5-1.3,6.5,10.9,6.9c7.9,0.2,23.8-2.2,34.7-6.5c6.1-2.4,10.6-5.4,11.2-8.9C132.6,640.9,107.2,639.1,96.9,646.9z"/>
		<path fill-rule="evenodd" clip-rule="evenodd" fill="#331A00" d="M74.2,659c-1.4,1.9,0.5,6.6,11,6.9c7.9,0.2,23.8-2.2,34.7-6.5
			c6.1-2.4,10.6-5.4,11.2-8.9c0-0.2,0.1-0.4,0.1-0.6C112.5,660,87.1,661.3,74.2,659z"/>
		<path fill-rule="evenodd" clip-rule="evenodd" fill="#0E2759" d="M73.6,246.7c-6.2,6.3-21.4,86.4-24.4,93.9
			c-3,7.5,9.1,19.3,16.4,10.1c7.4-9.2,19.8-54.8,26.5-68.3C98.8,268.9,79.7,240.6,73.6,246.7z"/>
		<path fill-rule="evenodd" clip-rule="evenodd" fill="#F2AC71" d="M58.6,394.5c0.6,6.1-1.2,14.3-5.8,19.4
			c-4.6,5.1-6.1,17.4-6.5,22.5c-0.4,5.1,1.9,8.3,3,7.3c-1.3,5.4,3.1,8.8,5,5.2c1,4.1,5.4,6.6,5.8,0.1c4.3,5,5.3-3.6,5.2-6.4
			c-0.1-5.5,1.4-19.6,4.4-20.7c3.4-1.2-0.6,13.6,2.6,13.7c3.3,0.1,4.4-7,4.1-11.9c-0.3-4.9,0.3-9.6-3.7-12.9
			c-3.9-3.4-5.6-7.1-5.9-15.1C66.5,387.7,57.9,388.4,58.6,394.5z"/>
		<path fill-rule="evenodd" clip-rule="evenodd" fill="#0E2759" d="M49.6,345.2c-0.2,10.2,1.4,59.3,1.4,59.3l20-0.5
			c0,0-2.7-52.7-1.1-59.1C74.8,324.7,49.9,332.5,49.6,345.2z"/>
		<path fill-rule="evenodd" clip-rule="evenodd" fill="#0B1A33" d="M56,404.3l0,0.2l16.2-0.5c0,0-2.2-52.7-0.9-59.1
			c1.1-5.6,0.3-9-1.3-10.8c-1,3-1.8,5.3-2.4,6.6c-2.4,5.8,0.5,16.9,0.5,26.6c0,9.7,1.9,32.9-2.4,32.9C62,400.1,59.7,403.3,56,404.3z
			"/>
		<path fill-rule="evenodd" clip-rule="evenodd" fill="#0B1A33" d="M67,352c0.3-0.4,0.7-0.8,1-1.3c4.6-7.1,11.7-35.9,17.1-54.9
			c-1-1.3-2.2-2.5-3.4-3.6c-3.4,16.9-11.6,42.6-14,48.4C66.5,343.4,66.6,347.5,67,352z"/>
		<path fill-rule="evenodd" clip-rule="evenodd" fill="#F2AC71" d="M115.6,216.2c0,13-10.8,17.6-17.4,19.1
			c-6.6,1.6,37.1,36.3,37.1,34.3c0-1.9-3.1-63.2-3.1-63.2S122.6,207.3,115.6,216.2z"/>
		<path fill-rule="evenodd" clip-rule="evenodd" fill="#F2AC71" d="M145.5,216.2c0,13,10.8,17.6,17.4,19.1
			c6.6,1.6-37.1,36.3-37.1,34.3c0-1.9,3.1-63.2,3.1-63.2S138.6,207.3,145.5,216.2z"/>
		<rect x="115.6" y="154.9" fill-rule="evenodd" clip-rule="evenodd" fill="#F2AC71" width="29.9" height="91.6"/>
		<polygon fill-rule="evenodd" clip-rule="evenodd" fill="#CC8C58" points="116.3,191.4 144.5,191.4 144.5,208.1 116.3,222.3 		"/>
		<path fill-rule="evenodd" clip-rule="evenodd" fill="#CC8C58" d="M119.6,187.1c7.3,3,13,2.5,18,0.5c5-2,5.1-0.5-0.8,2.5
			c-5,2.6-10.2,2.6-15.9-0.4C115.3,186.7,116.9,185.6,119.6,187.1z"/>
		<path fill-rule="evenodd" clip-rule="evenodd" fill="#282325" d="M86.5,361.2c-3.2,24.3-4.8,72.5,1.6,118.1
			c6.5,45.6,9.7,116,9.7,133.8c0,17.7-3.2,30.9-3.2,30.9s3.8,3.5,16.7,3.5c12.9,0,19.4,0.5,19.4,0.5s-1.6-13.2-2.2-32.9
			c-0.5-19.8-4.8-106.9-4.3-137.3c0.5-30.4-1.5-54.4,2.6-54.2c2.3,0.1,5.2,0.1,7.6,0c4.1-0.3,3.9,23.8,6.6,54.2
			c2.8,30.4,5,117.5,5.9,137.3c0.9,19.8,0.3,32.9,0.3,32.9s6.4-0.5,19.3-0.5c12.9,0,16.4-3.5,16.4-3.5s-4.2-13.2-5.5-30.9
			c-1.3-17.7-3.3-88.2-0.2-133.8c3.1-45.6-0.6-93.8-5.6-118.1C168,362.9,90,362.8,86.5,361.2z"/>
		<path fill-rule="evenodd" clip-rule="evenodd" fill="#0E2759" d="M75.7,245.3c-9,5.5,10.7,81.9,4.7,142c-0.6,6,15.4,12,49.7,11.2
			c34.3,0.8,50.3-5.2,49.7-11.2c-10.3-103.6,13.7-136.4,4.7-142c-8.6-5.3-21.4-10.6-33.7-14c-4,4.4-11.8,7.4-20.7,7.4
			c-8.9,0-16.6-3-20.7-7.4C97.2,234.7,84.3,240,75.7,245.3z"/>
		<path fill-rule="evenodd" clip-rule="evenodd" fill="#0E2759" d="M186.3,246.7c6.2,6.3,21.4,86.4,24.4,93.9
			c3,7.5-9.1,19.3-16.4,10.1c-7.4-9.2-19.8-54.8-26.5-68.3C161.1,268.8,180.3,240.6,186.3,246.7z"/>
		<path fill-rule="evenodd" clip-rule="evenodd" fill="#F2AC71" d="M201.3,394.4c-0.6,6.1,1.2,14.3,5.8,19.4
			c4.6,5.1,6.1,17.4,6.5,22.5c0.4,5.1-1.9,8.3-3,7.3c1.3,5.4-3.1,8.8-5,5.2c-1,4.1-5.4,6.6-5.8,0.1c-4.3,5-5.3-3.6-5.2-6.4
			c0.1-5.5-1.4-19.6-4.4-20.7c-3.4-1.2,0.6,13.6-2.6,13.7c-3.3,0.1-4.4-7-4.1-11.9c0.3-4.9-0.3-9.6,3.7-12.9
			c3.9-3.4,5.6-7.1,5.9-15.1C193.4,387.7,202,388.3,201.3,394.4z"/>
		<path fill-rule="evenodd" clip-rule="evenodd" fill="#0E2759" d="M210.3,345.1c0.2,10.2-1.4,59.3-1.4,59.3l-20-0.5
			c0,0,2.7-52.7,1.1-59.1C185.1,324.7,210,332.5,210.3,345.1z"/>
		<path fill-rule="evenodd" clip-rule="evenodd" fill="#0B1A33" d="M75.4,280.7c3.2,28.9,8.8,70.6,5.1,106.5
			c-0.6,6,15.4,12,49.7,11.2c34.3,0.8,50.3-5.2,49.7-11.2c-2.3-23-4-57.8-1.8-80.7c0.3-3.3,1-6.7,1.4-9.8
			c-0.6-12.2-1.7-31.5,0.5-42.1c2.2-10.6-5,7-5.5,20.4c-0.5,13.4-2.8,38-2.2,54.7c0.5,16.7,3,47.1,0.5,56.6
			c-2.5,9.5-34.8,8.9-43.9,8.9c-9.1,0-23.8,1-32.4-2.4c-8.6-3.3-9.6-9.1-8.6-22.9c1-13.8-3.5-42-5.1-59.1
			c-1.5-17.2-4.6-45.3-4.6-56.8c-1-5.1-2.4,4-2.4,11.7C75.8,269.3,75.8,275,75.4,280.7z"/>
		<path fill-rule="evenodd" clip-rule="evenodd" fill="#0B1A33" d="M203.9,404.2l0,0.2l-16.2-0.5c0,0,2.2-52.7,0.9-59.1
			c-1.1-5.6-0.3-9,1.3-10.8c1,3,1.8,5.3,2.4,6.6c2.4,5.8-0.5,16.9-0.5,26.6c0,9.7-1.9,32.9,2.4,32.9
			C197.9,400.1,200.2,403.3,203.9,404.2z"/>
		<path fill-rule="evenodd" clip-rule="evenodd" fill="#0B1A33" d="M193,352c-0.3-0.4-0.7-0.8-1-1.3c-4.6-7.1-11.7-35.9-17.1-54.9
			c1-1.3,2.2-2.5,3.4-3.6c3.4,16.9,11.6,42.6,14,48.4C193.4,343.4,193.4,347.4,193,352z"/>
		<g>
			<path fill-rule="evenodd" clip-rule="evenodd" fill="#0F0D0E" d="M83.9,394.6c-0.8,24.5,0,55.2,4.1,84.8
				c6.5,45.6,9.7,116,9.7,133.8c0,17.7-3.2,30.9-3.2,30.9s3.8,3.5,16.7,3.5c2.3,0,4.3,0,6.2,0c-10.5-1.9-16.9-5.9-15.1-12.4
				c2.5-9-1.9-70.5-1.9-96.7C100.5,512.2,88.4,432.2,83.9,394.6L83.9,394.6z"/>
			<path fill-rule="evenodd" clip-rule="evenodd" fill="#0F0D0E" d="M125.6,424.4c0.3-0.5,0.7-0.8,1.1-0.8c2.3,0.1,5.2,0.1,7.6,0
				c4.1-0.3,3.9,23.8,6.6,54.2c2.8,30.4,5,117.5,5.9,137.3c0.9,19.8,0.3,32.9,0.3,32.9s6.4-0.5,19.3-0.5c6.3,0,10.3-0.8,12.8-1.7
				c-16.4,3.3-26.2-0.3-25.6-7.7c0.6-7.8-3.8-80.6-3.8-102.7c0-22.1-4.4-74.6-7-97.3c-2.5-22.7-8.2-17.9-17.8-16.1
				C125.3,422.8,125.5,423.6,125.6,424.4z"/>
		</g>
		<path fill-rule="evenodd" clip-rule="evenodd" fill="#F2AC71" d="M61.9,119.6c6.1-1.5,13,4.6,15.6,13.6c2.6,9-0.3,17.4-6.3,18.9
			c-6.1,1.5-13-4.6-15.6-13.6C53,129.6,55.9,121.1,61.9,119.6z"/>
		<path fill-rule="evenodd" clip-rule="evenodd" fill="#F2AC71" d="M201,123c-6-1.8-13.2,4-16.2,12.8c-3,8.8-0.6,17.4,5.4,19.2
			c6,1.8,13.2-4,16.2-12.8C209.4,133.4,207,124.8,201,123z"/>
		<path fill-rule="evenodd" clip-rule="evenodd" fill="#E8A370" d="M198,127.1c-4.7-1.4-10.5,3.1-12.9,10.2
			c-2.4,7-0.4,13.8,4.3,15.2c4.7,1.4,10.5-3.1,12.9-10.2C204.7,135.3,202.8,128.5,198,127.1z"/>
		<path fill-rule="evenodd" clip-rule="evenodd" fill="#E8A370" d="M62.9,124.4c4.3-1.1,9.4,3.3,11.2,9.7c1.8,6.4-0.2,12.5-4.6,13.6
			c-4.3,1.1-9.4-3.3-11.2-9.7C56.5,131.5,58.5,125.4,62.9,124.4z"/>
		<path fill-rule="evenodd" clip-rule="evenodd" fill="#F2AC71" d="M130.2,209.7c-12.3-0.3-46.4-19.2-55.6-32.2
			c-9.3-13-11.9-58.8-9.1-78.8c2.8-20,26.4-56.8,67.9-55.8c41.4,1,63.3,38.9,65.1,59c1.8,20.1-3,65.7-12.9,78.2
			C175.6,192.7,142.5,210,130.2,209.7z"/>
		<path fill-rule="evenodd" clip-rule="evenodd" fill="#CC8C58" d="M125.4,135.3c-0.2,6.7-1,11.2-2.2,17c-1.2,5.7-4.5,11.2,1,13.5
			c5.5,2.4,8.3,2.4,12-0.6c3.8-3,3.1,0.3,0.5,2.2c-2.6,1.9-9.2,3.8-13.5,0.8c-4.4-3-5-0.5-2.1-14.4
			C124.1,139.9,125,130.6,125.4,135.3z"/>
		<path fill-rule="evenodd" clip-rule="evenodd" fill="#CC8C58" d="M119.1,187c7.2,3.2,12.9,2.8,18,1c5.1-1.9,5.1-0.4-0.8,2.5
			c-5,2.4-10.3,2.3-15.9-0.8C114.7,186.6,116.4,185.5,119.1,187z"/>
		<path fill-rule="evenodd" clip-rule="evenodd" fill="#222A2B" d="M156.7,130c3.4,0.1,6,3.6,5.9,7.8c-0.1,4.2-3,7.6-6.3,7.5
			c-3.4-0.1-6-3.6-5.9-7.8C150.4,133.3,153.3,129.9,156.7,130z"/>
		<path fill-rule="evenodd" clip-rule="evenodd" fill="#FFFFFF" d="M158.5,131.8c1.4,0,2.6,1.4,2.5,3c0,1.6-1.3,2.9-2.7,2.9
			c-1.4,0-2.6-1.4-2.5-3C155.8,133,157.1,131.7,158.5,131.8z"/>
		<path fill-rule="evenodd" clip-rule="evenodd" fill="#282516" d="M148.5,123.6c5.3-0.3,11.9-1.7,17.5-0.5c5.6,1.2,7.2-0.4,0.6-3
			c-5.7-2.3-11.5-3.1-17.8-2.8C143.2,117.5,143.8,123.9,148.5,123.6z"/>
		<path fill-rule="evenodd" clip-rule="evenodd" fill="#222A2B" d="M105.4,128.9c-3.4-0.1-6.2,3.3-6.3,7.5c-0.1,4.2,2.5,7.7,5.9,7.8
			c3.4,0.1,6.2-3.3,6.3-7.5C111.4,132.5,108.7,129,105.4,128.9z"/>
		<path fill-rule="evenodd" clip-rule="evenodd" fill="#FFFFFF" d="M107.1,130.8c-1.4,0-2.7,1.3-2.7,2.9c-0.1,1.6,1.1,3,2.5,3
			c1.4,0,2.7-1.3,2.7-2.9C109.7,132.1,108.6,130.8,107.1,130.8z"/>
		<path fill-rule="evenodd" clip-rule="evenodd" fill="#282516" d="M113.7,126.1c-5.2-0.6-11.8-2.3-17.4-1.3
			c-5.6,0.9-7.1-0.8-0.5-3.1c5.8-2,11.6-2.5,17.9-1.9C119.2,120.4,118.3,126.6,113.7,126.1z"/>
		<path fill-rule="evenodd" clip-rule="evenodd" fill="#CC8C58" d="M153.6,177.5c-3.3-0.3-4.7,3.4-15.5,2c-3-0.4-5.6-0.6-7.7-0.7
			c0-0.1,0-0.1,0-0.2c-0.4,0-0.9,0-1.4,0.1c-0.5,0-0.9-0.1-1.4-0.1c0,0.1,0,0.1,0,0.2c-2.2,0.1-4.7,0.2-7.7,0.5
			c-10.8,1-12.1-2.7-15.5-2.5c-4.3-0.2-3,2.8,0.8,3c3.8,0.3,8.9,1.5,14.7,1.5c2.4,0,5.7,0.2,9,0.2c3.3,0.1,6.6,0,9,0.1
			c5.8,0.2,10.9-0.9,14.7-1C156.5,180.4,157.9,177.4,153.6,177.5z"/>
		<path fill-rule="evenodd" clip-rule="evenodd" fill="#282516" d="M77.2,84.9c7.8-5.1,37.8-2.5,44.6,2c6.8,4.5,10.6,4.6,16.9,1
			c6.2-3.6,29.3-4.9,40.7-1.5c11.4,3.4,12.5,28.1,11.4,41.8c-1.1,13.6-3.5,21.5,0.6,28.6c2.3,4,5.9-28.6,7-41.6
			c1.1-13,12.9-27,7.2-45.1C200,52,187.9,43.6,190.8,50.5c2.9,6.9-10.2,9.7-25.3-3.1c-15-12.8-35.6-18.9-58.7-18.8
			c-23,0.1-20.8,3.2-6.2,4.2c14.6,1,6,4.5-14.7,5.2c-20.8,0.7-27.7,3-40.2,9.6c-12.4,6.5-10.2,9.1,2.2,4.4c12.4-4.7,16.8-1.4,6.9,2
			c-8.5,3-20.4,19.4-11.1,12.8c9.4-6.6,10.4,4.4,12.7,13.2c1.7,6.4,8.3,8.9,7.9,23.8c-0.4,14.9-1.5,51.1,3.5,47.3
			C73.4,146.8,66.1,92.1,77.2,84.9z"/>
	</g>
</g>
<g id="Calque_4">
</g>
</svg>
