<?xml version="1.0" encoding="utf-8"?>
<!-- Generator: Adobe Illustrator 18.0.0, SVG Export Plug-In . SVG Version: 6.00 Build 0)  -->
<!DOCTYPE svg PUBLIC "-//W3C//DTD SVG 1.1//EN" "http://www.w3.org/Graphics/SVG/1.1/DTD/svg11.dtd">
<svg version="1.1" id="图层_2" xmlns="http://www.w3.org/2000/svg" xmlns:xlink="http://www.w3.org/1999/xlink" x="0px" y="0px"
	 viewBox="203.6 350.5 986.9 133.5" enable-background="new 203.6 350.5 986.9 133.5" xml:space="preserve">
<g>
	<polygon fill="#3C3C3B" points="410.4,416.9 359.8,416.9 359.8,466 417.8,466 417.8,469.9 355.9,469.9 355.9,364.6 417.8,364.6 
		417.8,368.5 359.8,368.5 359.8,413 410.4,413 410.4,416.9 	"/>
	<polygon fill="#3C3C3B" points="518.5,469.9 514.6,469.9 447.1,371.8 446.7,372 446.7,469.9 442.7,469.9 442.7,364.6 446.7,364.6 
		514.2,462.4 514.6,462.3 514.6,364.6 518.5,364.6 518.5,469.9 	"/>
	<polygon fill="#3C3C3B" points="559.4,469.9 555.5,469.9 555.5,364.6 559.4,364.6 559.4,469.9 	"/>
	<path fill="#3C3C3B" d="M670.6,455.7c-2.2,3.8-6.5,7.3-12.8,10.7c-6.3,3.4-14,5-23.2,5c-12,0-21.8-4.3-29.3-12.9
		c-7.5-8.6-11.2-19.7-11.2-33.5v-17.2c0-13.2,3.6-24,10.9-32.3c7.3-8.3,16.7-12.5,28.4-12.5c11.2,0,20.2,2.9,26.9,8.7
		c6.7,5.8,9.9,13.2,9.7,22.3l-0.1,0.4h-3.3c0-8-2.9-14.6-8.6-19.8c-5.8-5.1-13.9-7.7-24.5-7.7c-10.7,0-19.2,3.8-25.7,11.4
		c-6.5,7.6-9.7,17.4-9.7,29.3V425c0,12.5,3.3,22.7,10,30.6c6.7,7.9,15.6,11.8,26.6,11.8c8.4,0,15.4-1.4,20.9-4.1
		c5.5-2.7,9.2-5.9,11.2-9.5V424h-32.2v-4h36.1V455.7L670.6,455.7z"/>
	<polygon fill="#3C3C3B" points="754.1,463.6 754.6,463.6 798.5,364.6 802.9,364.6 802.9,469.9 799,469.9 799,374.2 798.6,374.1 
		755.9,469.9 752.8,469.9 709.2,372.1 708.8,372.1 708.8,469.9 704.9,469.9 704.9,364.6 710.3,364.6 754.1,463.6 	"/>
	<path fill="#3C3C3B" d="M843.8,434.5h48.5l-22-58.9l-2-6.1h-0.4l-2,6.1L843.8,434.5L843.8,434.5z M893.8,438.4h-51.4l-11.8,31.4
		h-4.3l39.3-105.3h4.8l39.4,105.3h-4.3L893.8,438.4L893.8,438.4z"/>
	<polygon fill="#3C3C3B" points="930.2,376.6 926.6,396.2 923,396.2 926.3,376.8 926.3,364.6 930.2,364.6 930.2,376.6 	"/>
	<polygon fill="#523460" points="1033,372 997.2,372 997.2,469.9 988.6,469.9 988.6,372 951.5,372 951.5,364.6 1033,364.6 1033,372 
			"/>
	<g>
		<defs>
			<rect id="SVGID_1_" x="221.1" y="363.1" width="951.9" height="108.3"/>
		</defs>
		<clipPath id="SVGID_2_">
			<use xlink:href="#SVGID_1_"  overflow="visible"/>
		</clipPath>
		<polygon clip-path="url(#SVGID_2_)" fill="#523460" points="1066.1,469.9 1057.4,469.9 1057.4,364.6 1066.1,364.6 1066.1,469.9 		
			"/>
		<path clip-path="url(#SVGID_2_)" fill="#523460" d="M1172.9,437l0.1,0.4c0.2,10.3-3.2,18.6-10.1,24.7c-6.9,6.2-16,9.3-27.3,9.3
			c-11.7,0-21.2-4.2-28.3-12.7c-7.2-8.5-10.8-19.4-10.8-32.9v-17.1c0-13.4,3.6-24.3,10.8-32.9c7.2-8.5,16.6-12.8,28.3-12.8
			c11.4,0,20.6,3,27.4,9c6.9,6,10.2,14.3,10,24.9l-0.1,0.4h-8.1c0-8.5-2.6-15.1-7.8-19.8c-5.2-4.7-12.3-7.1-21.4-7.1
			c-9.2,0-16.6,3.6-22.2,10.7c-5.6,7.1-8.4,16.3-8.4,27.4v17.3c0,11.3,2.8,20.5,8.4,27.6c5.6,7.1,13,10.7,22.2,10.7
			c9.1,0,16.3-2.3,21.4-6.9c5.2-4.6,7.8-11.3,7.8-20.2H1172.9L1172.9,437z"/>
		<path clip-path="url(#SVGID_2_)" fill="#523460" d="M275.9,422.3c-0.3-1-1.3-1.8-2.4-1.8l-0.4,0c-0.7,0.1-1.2,0.5-1.6,1
			c-0.4,0.5-0.5,1.2-0.4,1.8l24.7,42.6h-67.2l50.4-65.7c0.8-1.1,0.6-2.6-0.5-3.5c-1-0.8-2.7-0.6-3.5,0.5l-53.3,69.7
			c-0.6,0.8-0.7,1.7-0.2,2.6c0.4,0.8,1.3,1.4,2.2,1.4h75.8c0.7,0,1.4-0.3,1.9-0.9c0.5-0.6,0.7-1.3,0.6-2L275.9,422.3L275.9,422.3z"
			/>
	</g>
	<path fill="#523460" d="M286.1,363.6h-1.8h-8.7h-51.7c-0.8,0-1.6,0.4-2.1,1.1c-0.5,0.7-0.5,1.6-0.2,2.4l22.1,51l0.1,0.1l1.4,3.1
		c0.5,1.2,1.9,1.7,3.1,1.2l0.2-0.1c1.2-0.5,1.7-1.9,1.2-3.1l-1.2-2.8c-0.1-0.2-0.2-0.5-0.3-0.7l-2.7-6.2c0,0,0,0,0,0l-17.7-41.1
		h47.8c0,0,0.1,0,0.1,0h10.5c1.3,0,2.3-1.1,2.3-2.3v-0.3C288.4,364.6,287.4,363.6,286.1,363.6L286.1,363.6z"/>
</g>
</svg>
