<?xml version="1.0" encoding="utf-8"?>
<!-- Generator: Adobe Illustrator 18.0.0, SVG Export Plug-In . SVG Version: 6.00 Build 0)  -->
<!DOCTYPE svg PUBLIC "-//W3C//DTD SVG 1.1//EN" "http://www.w3.org/Graphics/SVG/1.1/DTD/svg11.dtd">
<svg version="1.1" id="图层_2" xmlns="http://www.w3.org/2000/svg" xmlns:xlink="http://www.w3.org/1999/xlink" x="0px" y="0px"
	 viewBox="0 0 413.9 82.6" enable-background="new 0 0 413.9 82.6" xml:space="preserve">
<g>
	<g>
		<path fill="#3C3C3B" d="M140.9,41.2h-17.7v17.1h20.2v1.4h-21.6V22.9h21.6v1.4h-20.2v15.6h17.7V41.2z"/>
		<path fill="#3C3C3B" d="M178.6,59.7h-1.4l-23.6-34.2l-0.2,0.1v34.2h-1.4V22.9h1.4l23.6,34.2l0.2-0.1V22.9h1.4V59.7z"/>
		<path fill="#3C3C3B" d="M192.9,59.7h-1.4V22.9h1.4V59.7z"/>
		<path fill="#3C3C3B" d="M231.7,54.7c-0.8,1.3-2.3,2.6-4.5,3.7c-2.2,1.2-4.9,1.8-8.1,1.8c-4.2,0-7.6-1.5-10.2-4.5
			c-2.6-3-3.9-6.9-3.9-11.7v-6c0-4.6,1.3-8.4,3.8-11.3c2.5-2.9,5.8-4.4,9.9-4.4c3.9,0,7,1,9.4,3c2.3,2,3.5,4.6,3.4,7.8l-0.1,0.2
			h-1.1c0-2.8-1-5.1-3-6.9c-2-1.8-4.9-2.7-8.5-2.7c-3.7,0-6.7,1.3-9,4c-2.3,2.7-3.4,6.1-3.4,10.2V44c0,4.4,1.2,7.9,3.5,10.7
			c2.3,2.8,5.4,4.1,9.3,4.1c2.9,0,5.4-0.5,7.3-1.4c1.9-1,3.2-2.1,3.9-3.3V43.6h-11.2v-1.4h12.6V54.7z"/>
		<path fill="#3C3C3B" d="M260.9,57.5h0.2l15.4-34.6h1.5v36.8h-1.4V26.3l-0.2,0l-14.9,33.4h-1.1l-15.2-34.2l-0.2,0v34.1h-1.4V22.9
			h1.9L260.9,57.5z"/>
		<path fill="#3C3C3B" d="M309.7,48.7h-18l-4.1,11h-1.5l13.7-36.8h1.7l13.8,36.8h-1.5L309.7,48.7z M292.2,47.3h16.9l-7.7-20.6
			l-0.7-2.1h-0.2l-0.7,2.1L292.2,47.3z"/>
		<path fill="#3C3C3B" d="M322.4,27.1l-1.3,6.8h-1.3l1.2-6.8v-4.3h1.4V27.1z"/>
		<path fill="#513460" d="M358.3,25.5h-12.5v34.2h-3V25.5h-13v-2.6h28.5V25.5z"/>
		<path fill="#513460" d="M369.8,59.7h-3V22.9h3V59.7z"/>
		<path fill="#513460" d="M407.1,48.2l0.1,0.2c0.1,3.6-1.1,6.5-3.5,8.6c-2.4,2.2-5.6,3.2-9.5,3.2c-4.1,0-7.4-1.5-9.9-4.4
			c-2.5-3-3.8-6.8-3.8-11.5v-6c0-4.7,1.3-8.5,3.8-11.5c2.5-3,5.8-4.5,9.9-4.5c4,0,7.2,1.1,9.6,3.2c2.4,2.1,3.6,5,3.5,8.7l-0.1,0.2
			h-2.8c0-3-0.9-5.3-2.7-6.9c-1.8-1.7-4.3-2.5-7.5-2.5c-3.2,0-5.8,1.2-7.7,3.7c-1.9,2.5-2.9,5.7-2.9,9.6v6c0,3.9,1,7.1,2.9,9.6
			c1.9,2.5,4.5,3.7,7.7,3.7c3.2,0,5.7-0.8,7.5-2.4c1.8-1.6,2.7-4,2.7-7H407.1z"/>
	</g>
	<g>
		<g>
			<path fill="none" stroke="#4C3164" stroke-width="3" stroke-miterlimit="10" d="M38.8,79.5c-5.5,0-12.2-3.9-15-8.6L11.7,49.9
				C9,45.2,9,37.4,11.7,32.6l12.1-20.7c2.7-4.8,9.5-8.4,15-8.4h24.1c5.5,0,12.2,3.7,15,8.4L90,32.7c2.7,4.8,2.7,12.5,0,17.3
				L77.9,70.9c-2.7,4.8-9.5,8.6-15,8.6H38.8z"/>
		</g>
		<g>
			<path fill="#513460" d="M57,44.5c-0.1-0.4-0.5-0.7-0.9-0.7l-0.1,0c-0.2,0-0.5,0.2-0.6,0.4c-0.1,0.2-0.2,0.4-0.2,0.7l9.3,16H39.2
				l18.9-24.7c0.3-0.4,0.2-1-0.2-1.3c-0.4-0.3-1-0.2-1.3,0.2l-20,26.1c-0.2,0.3-0.2,0.7-0.1,1c0.2,0.3,0.5,0.5,0.8,0.5h28.4
				c0.3,0,0.5-0.1,0.7-0.3c0.2-0.2,0.3-0.5,0.2-0.8L57,44.5z"/>
			<path fill="#513460" d="M60.8,22.5h-0.7h-3.3H37.5c-0.3,0-0.6,0.2-0.8,0.4c-0.2,0.3-0.2,0.6-0.1,0.9L44.9,43l0,0l0.5,1.2
				c0.2,0.4,0.7,0.6,1.2,0.5l0.1,0c0.4-0.2,0.6-0.7,0.5-1.2l-0.5-1.1c0-0.1-0.1-0.2-0.1-0.3l-1-2.3c0,0,0,0,0,0l-6.6-15.4h17.9
				c0,0,0,0,0,0h3.9c0.5,0,0.9-0.4,0.9-0.9v-0.1C61.7,22.9,61.3,22.5,60.8,22.5z"/>
		</g>
	</g>
</g>
</svg>
